<svg viewBox="0 0 531 337" x="0" y="0" fill="none" xmlns="http://www.w3.org/2000/svg"><defs><filter id="filter2_d_224_100152" x="-59.028999999999996" y="-53.13000000000011" width="649.058" height="455.058" filterUnits="userSpaceOnUse" color-interpolation-filters="sRGB" xmlns="http://www.w3.org/2000/svg">
<feFlood flood-opacity="0" result="BackgroundImageFix"/>
<feColorMatrix in="SourceAlpha" type="matrix" values="0 0 0 0 0 0 0 0 0 0 0 0 0 0 0 0 0 0 127 0" result="hardAlpha"/>
<feOffset dy="5.90292"/>
<feGaussianBlur stdDeviation="29.5146"/>
<feColorMatrix type="matrix" values="0 0 0 0 0 0 0 0 0 0 0 0 0 0 0 0 0 0 0.05 0"/>
<feBlend mode="normal" in2="BackgroundImageFix" result="effect1_dropShadow_224_100152"/>
<feBlend mode="normal" in="SourceGraphic" in2="effect1_dropShadow_224_100152" result="shape"/>
</filter></defs><g id="Frame_23" filter="url(#filter2_d_224_100152)" xmlns="http://www.w3.org/2000/svg">
<rect x="0" y="0" width="531" height="337" rx="24" fill="#171717"/>
<g id="Frame_24">
<rect width="529" height="42" transform="translate(1, 1)" fill="#313131"/>
<g id="Frame_25">
<path id="api.check.ts" d="M215.919,26.14c-1.551,0 -2.585,-0.97 -2.585,-2.45c0,-1.44 1.034,-2.29 2.885,-2.39l2.233,-0.11v-0.74c0,-1.01 -0.622,-1.58 -1.753,-1.58c-0.937,0 -1.597,0.4 -1.806,1.1h-1.252c0.15,-1.31 1.409,-2.2 3.073,-2.2c1.911,0 3.005,0.98 3.005,2.67v5.57h-1.214v-1.22h-0.128c-0.389,0.87 -1.274,1.35 -2.458,1.35zM216.287,25.03c1.229,0 2.165,-0.82 2.165,-1.91v-0.96l-2.091,0.1c-1.139,0.05 -1.738,0.54 -1.738,1.39c0,0.85 0.637,1.38 1.664,1.38zM226.357,17.73c1.881,0 3.11,1.36 3.11,3.45v1.52c0,2.08 -1.229,3.43 -3.11,3.43c-1.177,0 -2.038,-0.5 -2.391,-1.39h-0.142v4h-1.297v-10.87h1.259v1.24h0.135c0.428,-0.9 1.274,-1.38 2.436,-1.38zM225.99,18.9c-1.342,0 -2.196,0.96 -2.196,2.46v1.17c0,1.51 0.854,2.47 2.196,2.47c1.341,0 2.195,-0.97 2.195,-2.47v-1.17c0,-1.5 -0.854,-2.46 -2.195,-2.46zM235.09,15.88c-0.6,0 -1.05,-0.45 -1.05,-1.05c0,-0.6 0.45,-1.05 1.05,-1.05c0.6,0 1.06,0.45 1.06,1.05c0,0.6 -0.46,1.05 -1.06,1.05zM238.5,26h-6.734v-1.06h2.784v-6.01h-2.762v-1.06h4.022v7.07h2.69zM244.05,26.04c-0.74,0 -1.35,-0.62 -1.35,-1.38c0,-0.76 0.61,-1.38 1.35,-1.38c0.75,0 1.36,0.62 1.36,1.38c0,0.76 -0.61,1.38 -1.36,1.38zM256.55,20.4h-1.26c-0.16,-0.95 -0.96,-1.55 -2,-1.55c-1.42,0 -2.21,0.97 -2.21,2.71v0.74c0,1.74 0.79,2.7 2.21,2.7c1.04,0 1.84,-0.59 2,-1.52h1.26c-0.21,1.66 -1.44,2.67 -3.24,2.67c-2.21,0 -3.5,-1.36 -3.5,-3.69v-1.06c0,-2.33 1.29,-3.69 3.5,-3.69c1.8,0 3.03,1.02 3.24,2.69zM258.93,26v-11.32h1.23v4.63h0.1c0.43,-1.01 1.36,-1.58 2.61,-1.58c1.77,0 2.73,1.06 2.73,3v5.27h-1.28v-4.95c0,-1.46 -0.6,-2.15 -1.87,-2.15c-1.34,0 -2.25,0.93 -2.25,2.32v4.78zM273.56,23.9h1.24c-0.25,1.34 -1.54,2.25 -3.25,2.25c-2.23,0 -3.53,-1.34 -3.53,-3.66v-1.22c0,-2.14 1.37,-3.55 3.44,-3.55c2.12,0 3.36,1.4 3.36,3.75v0.8h-5.54v0.33c0,1.49 0.89,2.45 2.27,2.45c1.03,0 1.79,-0.44 2.01,-1.15zM271.46,18.81c-1.36,0 -2.18,0.93 -2.18,2.49h4.28c0,-1.55 -0.79,-2.49 -2.1,-2.49zM283.86,20.4h-1.26c-0.16,-0.95 -0.95,-1.55 -2,-1.55c-1.42,0 -2.21,0.97 -2.21,2.71v0.74c0,1.74 0.79,2.7 2.21,2.7c1.05,0 1.84,-0.59 2,-1.52h1.26c-0.21,1.66 -1.44,2.67 -3.24,2.67c-2.21,0 -3.5,-1.36 -3.5,-3.69v-1.06c0,-2.33 1.29,-3.69 3.5,-3.69c1.8,0 3.03,1.02 3.24,2.69zM288.22,21.52l3.54,-3.65h1.54l-3.15,3.22l3.38,4.91h-1.51l-2.78,-4.04l-1.12,1.08v2.96h-1.28v-11.32h1.28v6.84zM298.68,26.04c-0.75,0 -1.36,-0.62 -1.36,-1.38c0,-0.76 0.61,-1.38 1.36,-1.38c0.74,0 1.35,0.62 1.35,1.38c0,0.76 -0.61,1.38 -1.35,1.38zM306.39,15.69h1.26v2.2h3.3v1.09h-3.28v4.58c0,0.89 0.62,1.37 1.77,1.37c0.45,0 1.27,-0.02 1.49,-0.05v1.08c-0.2,0.04 -1.19,0.08 -1.58,0.08c-2.02,0 -2.96,-0.77 -2.96,-2.46v-4.6h-2.16v-1.09h2.16zM313.92,20.06c0,-1.4 1.2,-2.35 2.99,-2.35c1.7,0 2.84,0.85 2.99,2.2h-1.23c-0.15,-0.71 -0.83,-1.14 -1.78,-1.14c-1.03,0 -1.7,0.48 -1.7,1.22c0,0.62 0.42,0.97 1.44,1.2l1.15,0.26c1.58,0.36 2.3,1.05 2.3,2.23c0,1.5 -1.26,2.47 -3.18,2.47c-1.84,0 -3.07,-0.86 -3.21,-2.26h1.3c0.19,0.75 0.9,1.19 1.95,1.19c1.11,0 1.82,-0.5 1.82,-1.28c0,-0.65 -0.4,-0.99 -1.43,-1.22l-1.21,-0.28c-1.47,-0.34 -2.2,-1.08 -2.2,-2.24z" fill="#D1D5DB"/>
</g>
<g id="Frame_26">
<rect id="Rectangle" x="20" y="16" width="12" height="12" rx="6" fill="white" fill-opacity="0.4"/>
<rect id="Rectangle_2" x="37" y="16" width="12" height="12" rx="6" fill="white" fill-opacity="0.4"/>
<rect id="Rectangle_3" x="53" y="16" width="12" height="12" rx="6" fill="white" fill-opacity="0.4"/>
</g>
</g>
<g id="Frame_27">
<g id="Frame_28">
<g id="Frame_29">
<path id="new" d="M32.434,81v-8.23h1.237v1.45h0.106c0.44,-1.03 1.381,-1.6 2.633,-1.6c1.79,0 2.762,1.07 2.762,3.04v5.34h-1.29v-5.02c0,-1.48 -0.607,-2.18 -1.889,-2.18c-1.359,0 -2.269,0.95 -2.269,2.35v4.85zM47.243,78.88h1.252c-0.25,1.35 -1.555,2.27 -3.285,2.27c-2.261,0 -3.574,-1.36 -3.574,-3.7v-1.24c0,-2.17 1.389,-3.59 3.483,-3.59c2.139,0 3.399,1.41 3.399,3.8v0.8h-5.607v0.34c0,1.51 0.895,2.48 2.299,2.48c1.039,0 1.806,-0.44 2.033,-1.16zM45.111,73.72c-1.373,0 -2.2,0.94 -2.2,2.52h4.332c0,-1.57 -0.804,-2.52 -2.132,-2.52zM40.249,92.77l-1.768,8.23h-1.237l-1.396,-6.42h-0.091l-1.396,6.42h-1.237l-1.767,-8.23h1.259l1.115,6.6h0.137l1.328,-6.59h1.214l1.328,6.59h0.136l1.116,-6.6z" fill="white"/>
<g id="ApiCheck('hello-api-1', {">
<path d="M75.633,91l-0.948,-3.14h-3.809l-0.956,3.14h-1.359l3.529,-10.95h1.426l3.528,10.95zM72.765,81.66l-1.54,5.05h3.111l-1.533,-5.05zM82.536,82.63c1.904,0 3.149,1.37 3.149,3.49v1.53c0,2.11 -1.245,3.49 -3.149,3.49c-1.191,0 -2.064,-0.51 -2.42,-1.41h-0.145v4.05h-1.312v-11.01h1.275v1.26h0.136c0.433,-0.91 1.29,-1.4 2.466,-1.4zM82.164,83.81c-1.358,0 -2.223,0.98 -2.223,2.49v1.19c0,1.52 0.865,2.49 2.223,2.49c1.358,0 2.223,-0.98 2.223,-2.49v-1.19c0,-1.51 -0.865,-2.49 -2.223,-2.49zM91.381,80.75c-0.607,0 -1.069,-0.46 -1.069,-1.06c0,-0.6 0.462,-1.06 1.069,-1.06c0.607,0 1.07,0.46 1.07,1.06c0,0.6 -0.463,1.06 -1.07,1.06zM94.834,91h-6.821v-1.07h2.822v-6.09h-2.8v-1.07h4.075v7.16h2.724zM100.705,89.96c1.457,0 2.382,-0.87 2.42,-2.28h1.351c0,2.11 -1.533,3.55 -3.771,3.55c-2.572,0 -4.067,-1.74 -4.067,-4.73v-1.95c0,-2.99 1.495,-4.73 4.067,-4.73c2.306,0 3.733,1.41 3.778,3.74h-1.358c-0.045,-1.48 -1.024,-2.47 -2.428,-2.47c-1.768,0 -2.693,1.19 -2.693,3.46v1.95c0,2.27 0.925,3.46 2.701,3.46zM106.295,91v-11.46h1.245v4.68h0.106c0.432,-1.02 1.381,-1.6 2.64,-1.6c1.791,0 2.762,1.08 2.762,3.05v5.33h-1.29v-5.01c0,-1.48 -0.607,-2.18 -1.897,-2.18c-1.358,0 -2.276,0.95 -2.276,2.35v4.84zM121.112,88.88h1.252c-0.25,1.35 -1.555,2.27 -3.285,2.27c-2.261,0 -3.574,-1.36 -3.574,-3.7v-1.24c0,-2.17 1.388,-3.59 3.483,-3.59c2.139,0 3.399,1.41 3.399,3.8v0.8h-5.607v0.34c0,1.51 0.895,2.48 2.299,2.48c1.039,0 1.805,-0.44 2.033,-1.16zM118.98,83.72c-1.373,0 -2.2,0.94 -2.2,2.52h4.332c0,-1.57 -0.804,-2.52 -2.132,-2.52zM131.536,85.33h-1.275c-0.159,-0.96 -0.964,-1.57 -2.026,-1.57c-1.434,0 -2.231,0.98 -2.231,2.75v0.74c0,1.77 0.797,2.74 2.231,2.74c1.062,0 1.867,-0.6 2.026,-1.54h1.275c-0.205,1.68 -1.457,2.7 -3.278,2.7c-2.238,0 -3.543,-1.37 -3.543,-3.73v-1.08c0,-2.36 1.305,-3.73 3.543,-3.73c1.821,0 3.065,1.03 3.278,2.72zM135.95,86.46l3.589,-3.69h1.563l-3.194,3.26l3.422,4.97h-1.533l-2.807,-4.09l-1.139,1.09v3h-1.289v-11.46h1.289v6.92z" fill="#00B51D"/>
<path d="M144.887,85.52c0,-2.57 0.773,-4.81 2.283,-6.52h1.283c-1.571,2.2 -2.231,4.14 -2.231,6.52c0,2.38 0.66,4.32 2.231,6.53h-1.283c-1.51,-1.72 -2.283,-3.95 -2.283,-6.53zM296.98,92.04h-1.04c-1.84,0 -2.42,-0.58 -2.42,-2.46v-1.7c0,-1.17 -0.69,-1.85 -2.46,-1.67v-1.37c1.77,0.18 2.46,-0.49 2.46,-1.67v-1.7c0,-1.87 0.58,-2.46 2.42,-2.46h1.04v1.04h-0.83c-1.14,0 -1.36,0.27 -1.36,1.59v2.02c0,1.07 -0.8,1.77 -2.34,1.81v0.12c1.54,0.03 2.34,0.74 2.34,1.8v2.02c0,1.32 0.22,1.59 1.36,1.59h0.83z" fill="#EEEEEE"/>
<path d="M156.448,84.99h-1.381v-4.94h1.381zM161.599,91v-11.46h1.244v4.68h0.106c0.433,-1.02 1.381,-1.6 2.641,-1.6c1.79,0 2.761,1.08 2.761,3.05v5.33h-1.289v-5.01c0,-1.48 -0.607,-2.18 -1.897,-2.18c-1.358,0 -2.277,0.95 -2.277,2.35v4.84zM176.415,88.88h1.252c-0.25,1.35 -1.555,2.27 -3.285,2.27c-2.261,0 -3.574,-1.36 -3.574,-3.7v-1.24c0,-2.17 1.389,-3.59 3.483,-3.59c2.14,0 3.399,1.41 3.399,3.8v0.8h-5.607v0.34c0,1.51 0.895,2.48 2.299,2.48c1.039,0 1.806,-0.44 2.033,-1.16zM174.283,83.72c-1.373,0 -2.2,0.94 -2.2,2.52h4.332c0,-1.57 -0.804,-2.52 -2.132,-2.52zM187.006,91h-6.821v-1.07h2.815v-9.32h-2.792v-1.07h4.082v10.39h2.716zM196.223,91h-6.821v-1.07h2.815v-9.32h-2.792v-1.07h4.082v10.39h2.716zM201.844,91.15c-2.178,0 -3.566,-1.42 -3.566,-3.64v-1.24c0,-2.23 1.388,-3.65 3.566,-3.65c2.177,0 3.566,1.42 3.566,3.65v1.24c0,2.22 -1.389,3.64 -3.566,3.64zM201.844,83.76c-1.411,0 -2.292,1 -2.292,2.62v1.01c0,1.62 0.881,2.62 2.292,2.62c1.411,0 2.291,-1 2.291,-2.62v-1.01c0,-1.62 -0.88,-2.62 -2.291,-2.62zM215.075,86.74h-8.028v-1.2h8.028zM219.444,91.14c-1.571,0 -2.618,-0.98 -2.618,-2.48c0,-1.45 1.047,-2.32 2.921,-2.42l2.261,-0.11v-0.74c0,-1.04 -0.63,-1.61 -1.775,-1.61c-0.949,0 -1.616,0.41 -1.829,1.11h-1.267c0.152,-1.32 1.427,-2.22 3.111,-2.22c1.935,0 3.043,0.99 3.043,2.7v5.64h-1.23v-1.24h-0.129c-0.394,0.88 -1.29,1.37 -2.488,1.37zM219.815,90.01c1.245,0 2.193,-0.82 2.193,-1.92v-0.97l-2.117,0.09c-1.153,0.06 -1.76,0.55 -1.76,1.41c0,0.86 0.645,1.39 1.684,1.39zM230.011,82.63c1.905,0 3.149,1.37 3.149,3.49v1.53c0,2.11 -1.244,3.49 -3.149,3.49c-1.191,0 -2.063,-0.51 -2.42,-1.41h-0.144v4.05h-1.313v-11.01h1.275v1.26h0.137c0.432,-0.91 1.289,-1.4 2.465,-1.4zM229.64,83.81c-1.358,0 -2.223,0.98 -2.223,2.49v1.19c0,1.52 0.865,2.49 2.223,2.49c1.358,0 2.223,-0.98 2.223,-2.49v-1.19c0,-1.51 -0.865,-2.49 -2.223,-2.49zM238.86,80.75c-0.61,0 -1.07,-0.46 -1.07,-1.06c0,-0.6 0.46,-1.06 1.07,-1.06c0.6,0 1.07,0.46 1.07,1.06c0,0.6 -0.47,1.06 -1.07,1.06zM242.31,91h-6.82v-1.07h2.82v-6.09h-2.8v-1.07h4.08v7.16h2.72zM251.94,86.74h-8.02v-1.2h8.02zM261.28,91h-7.63v-1.18h3.23v-8.25h-0.12l-3.13,2.02v-1.42l3.26,-2.12h1.31v9.77h3.08zM267.05,84.99h-1.38v-4.94h1.38z" fill="#FD4B28"/>
<path d="M274.89,93.52h-1.22l0.94,-4.93h1.71z" fill="white"/>
</g>
<g id="name:">
<path d="M50.868,112v-8.23h1.237v1.45h0.106c0.441,-1.03 1.381,-1.6 2.633,-1.6c1.791,0 2.762,1.07 2.762,3.04v5.34h-1.29v-5.02c0,-1.48 -0.607,-2.18 -1.889,-2.18c-1.358,0 -2.269,0.95 -2.269,2.35v4.85zM62.62,112.14c-1.571,0 -2.618,-0.98 -2.618,-2.48c0,-1.45 1.047,-2.32 2.921,-2.42l2.261,-0.11v-0.74c0,-1.04 -0.629,-1.61 -1.775,-1.61c-0.948,0 -1.616,0.41 -1.829,1.11h-1.267c0.152,-1.32 1.427,-2.22 3.111,-2.22c1.935,0 3.043,0.99 3.043,2.7v5.64h-1.229v-1.24h-0.129c-0.395,0.88 -1.29,1.37 -2.489,1.37zM62.992,111.01c1.244,0 2.192,-0.82 2.192,-1.92v-0.97l-2.116,0.09c-1.154,0.06 -1.761,0.55 -1.761,1.41c0,0.86 0.645,1.39 1.685,1.39zM76.64,105.94v6.06h-1.161v-5.68c0,-1 -0.364,-1.53 -1.055,-1.53c-0.72,0 -1.16,0.63 -1.16,1.66v5.55h-1.154v-5.69c0,-0.99 -0.364,-1.52 -1.062,-1.52c-0.728,0 -1.184,0.63 -1.184,1.66v5.55h-1.161v-8.23h1.154v1.16h0.136c0.205,-0.83 0.797,-1.31 1.571,-1.31c0.774,0 1.32,0.47 1.495,1.29h0.136c0.213,-0.79 0.873,-1.29 1.7,-1.29c1.146,0 1.745,0.79 1.745,2.32zM84.112,109.88h1.252c-0.25,1.35 -1.555,2.27 -3.285,2.27c-2.261,0 -3.574,-1.36 -3.574,-3.7v-1.24c0,-2.17 1.388,-3.59 3.483,-3.59c2.139,0 3.399,1.41 3.399,3.8v0.8h-5.607v0.34c0,1.51 0.895,2.48 2.299,2.48c1.039,0 1.805,-0.44 2.033,-1.16zM81.98,104.72c-1.373,0 -2.2,0.94 -2.2,2.52h4.332c0,-1.57 -0.804,-2.52 -2.132,-2.52z" fill="#EEEEEE"/>
<path d="M91.106,106.22c-0.751,0 -1.373,-0.64 -1.373,-1.41c0,-0.76 0.622,-1.4 1.373,-1.4c0.751,0 1.373,0.64 1.373,1.4c0,0.77 -0.622,1.41 -1.373,1.41zM91.106,112.05c-0.751,0 -1.373,-0.63 -1.373,-1.41c0,-0.76 0.622,-1.39 1.373,-1.39c0.751,0 1.373,0.63 1.373,1.39c0,0.78 -0.622,1.41 -1.373,1.41z" fill="white"/>
</g>
<g id="'Hello API',">
<path d="M110.493,105.99h-1.381v-4.94h1.381zM122.662,112h-1.328v-4.98h-4.628v4.98h-1.328v-10.95h1.328v4.74h4.628v-4.74h1.328zM130.46,109.88h1.252c-0.25,1.35 -1.555,2.27 -3.285,2.27c-2.261,0 -3.574,-1.36 -3.574,-3.7v-1.24c0,-2.17 1.389,-3.59 3.483,-3.59c2.14,0 3.399,1.41 3.399,3.8v0.8h-5.607v0.34c0,1.51 0.895,2.48 2.299,2.48c1.039,0 1.806,-0.44 2.033,-1.16zM128.328,104.72c-1.373,0 -2.2,0.94 -2.2,2.52h4.332c0,-1.57 -0.804,-2.52 -2.132,-2.52zM141.051,112h-6.821v-1.07h2.815v-9.32h-2.792v-1.07h4.082v10.39h2.716zM150.268,112h-6.821v-1.07h2.815v-9.32h-2.792v-1.07h4.082v10.39h2.716zM155.889,112.15c-2.178,0 -3.566,-1.42 -3.566,-3.64v-1.24c0,-2.23 1.388,-3.65 3.566,-3.65c2.178,0 3.566,1.42 3.566,3.65v1.24c0,2.22 -1.388,3.64 -3.566,3.64zM155.889,104.76c-1.411,0 -2.291,1 -2.291,2.62v1.01c0,1.62 0.88,2.62 2.291,2.62c1.411,0 2.291,-1 2.291,-2.62v-1.01c0,-1.62 -0.88,-2.62 -2.291,-2.62zM177.153,112l-0.948,-3.14h-3.809l-0.956,3.14h-1.358l3.528,-10.95h1.427l3.528,10.95zM174.285,102.66l-1.54,5.05h3.111l-1.533,-5.05zM180.24,101.05h3.642c2.124,0 3.513,1.39 3.513,3.51c0,2.12 -1.404,3.51 -3.543,3.51h-2.269v3.93h-1.343zM181.583,102.24v4.64h1.965c1.594,0 2.489,-0.83 2.489,-2.32c0,-1.49 -0.895,-2.32 -2.489,-2.32zM195.641,112h-5.766v-1.19h2.215v-8.57h-2.215v-1.19h5.766v1.19h-2.216v8.57h2.216zM202.665,105.99h-1.38v-4.94h1.38z" fill="#FD4B28"/>
<path d="M210.502,114.52h-1.222l0.941,-4.93h1.707z" fill="white"/>
</g>
<g id="activated:">
<path d="M53.403,132.14c-1.571,0 -2.618,-0.98 -2.618,-2.48c0,-1.45 1.047,-2.32 2.921,-2.42l2.261,-0.11v-0.74c0,-1.04 -0.63,-1.61 -1.775,-1.61c-0.949,0 -1.616,0.41 -1.829,1.11h-1.267c0.152,-1.32 1.427,-2.22 3.111,-2.22c1.935,0 3.042,0.99 3.042,2.7v5.64h-1.229v-1.24h-0.129c-0.394,0.88 -1.29,1.37 -2.488,1.37zM53.774,131.01c1.245,0 2.193,-0.82 2.193,-1.92v-0.97l-2.117,0.09c-1.153,0.06 -1.76,0.55 -1.76,1.41c0,0.86 0.645,1.39 1.684,1.39zM66.884,126.33h-1.275c-0.159,-0.96 -0.963,-1.57 -2.026,-1.57c-1.434,0 -2.23,0.98 -2.23,2.75v0.74c0,1.77 0.796,2.74 2.23,2.74c1.063,0 1.867,-0.6 2.026,-1.54h1.275c-0.205,1.68 -1.457,2.7 -3.278,2.7c-2.238,0 -3.543,-1.37 -3.543,-3.73v-1.08c0,-2.36 1.305,-3.73 3.543,-3.73c1.821,0 3.066,1.03 3.278,2.72zM71.268,121.56h1.275v2.23h3.338v1.1h-3.323v4.64c0,0.9 0.63,1.38 1.791,1.38c0.462,0 1.289,-0.02 1.509,-0.04v1.09c-0.204,0.04 -1.206,0.08 -1.601,0.08c-2.041,0 -2.989,-0.78 -2.989,-2.49v-4.66h-2.193v-1.1h2.193zM82.033,121.75c-0.607,0 -1.07,-0.46 -1.07,-1.06c0,-0.6 0.463,-1.06 1.07,-1.06c0.607,0 1.07,0.46 1.07,1.06c0,0.6 -0.463,1.06 -1.07,1.06zM85.485,132h-6.821v-1.07h2.823v-6.09h-2.8v-1.07h4.074v7.16h2.724zM87.388,123.77h1.381l2.299,6.85h0.099l2.284,-6.85h1.373l-3.005,8.23h-1.418zM99.489,132.14c-1.571,0 -2.618,-0.98 -2.618,-2.48c0,-1.45 1.047,-2.32 2.921,-2.42l2.261,-0.11v-0.74c0,-1.04 -0.629,-1.61 -1.775,-1.61c-0.949,0 -1.616,0.41 -1.829,1.11h-1.267c0.152,-1.32 1.427,-2.22 3.111,-2.22c1.935,0 3.043,0.99 3.043,2.7v5.64h-1.23v-1.24h-0.129c-0.394,0.88 -1.289,1.37 -2.488,1.37zM99.861,131.01c1.244,0 2.192,-0.82 2.192,-1.92v-0.97l-2.117,0.09c-1.153,0.06 -1.76,0.55 -1.76,1.41c0,0.86 0.645,1.39 1.685,1.39zM108.137,121.56h1.275v2.23h3.338v1.1h-3.323v4.64c0,0.9 0.63,1.38 1.79,1.38c0.463,0 1.29,-0.02 1.51,-0.04v1.09c-0.205,0.04 -1.206,0.08 -1.601,0.08c-2.041,0 -2.989,-0.78 -2.989,-2.49v-4.66h-2.193v-1.1h2.193zM120.981,129.88h1.252c-0.251,1.35 -1.556,2.27 -3.286,2.27c-2.261,0 -3.573,-1.36 -3.573,-3.7v-1.24c0,-2.17 1.388,-3.59 3.482,-3.59c2.14,0 3.4,1.41 3.4,3.8v0.8h-5.608v0.34c0,1.51 0.896,2.48 2.299,2.48c1.04,0 1.806,-0.44 2.034,-1.16zM118.849,124.72c-1.373,0 -2.201,0.94 -2.201,2.52h4.333c0,-1.57 -0.804,-2.52 -2.132,-2.52zM127.459,132.14c-1.904,0 -3.149,-1.38 -3.149,-3.49v-1.54c0,-2.11 1.245,-3.48 3.149,-3.48c1.191,0 2.071,0.51 2.428,1.41h0.137v-4.5h1.312v11.46h-1.267v-1.26h-0.144c-0.425,0.91 -1.29,1.4 -2.466,1.4zM127.838,130.96c1.351,0 2.224,-0.97 2.224,-2.5v-1.18c0,-1.52 -0.873,-2.49 -2.224,-2.49c-1.358,0 -2.23,0.97 -2.23,2.49v1.18c0,1.52 0.872,2.5 2.23,2.5z" fill="#EEEEEE"/>
<path d="M137.192,126.22c-0.751,0 -1.373,-0.64 -1.373,-1.41c0,-0.76 0.622,-1.4 1.373,-1.4c0.751,0 1.374,0.64 1.374,1.4c0,0.77 -0.623,1.41 -1.374,1.41zM137.192,132.05c-0.751,0 -1.373,-0.63 -1.373,-1.41c0,-0.76 0.622,-1.39 1.373,-1.39c0.751,0 1.374,0.63 1.374,1.39c0,0.78 -0.623,1.41 -1.374,1.41z" fill="white"/>
</g>
<g id="true,">
<path d="M154.399,121.56h1.275v2.23h3.338v1.1h-3.323v4.64c0,0.9 0.63,1.38 1.791,1.38c0.463,0 1.29,-0.02 1.51,-0.04v1.09c-0.205,0.04 -1.207,0.08 -1.601,0.08c-2.041,0 -2.99,-0.78 -2.99,-2.49v-4.66h-2.193v-1.1h2.193zM164.694,128.31v2.66h2.549v1.03h-5.47v-1.03h1.661v-6.17h-1.828v-1.03h3.073v2.1h0.167c0.303,-1.53 1.327,-2.31 2.913,-2.31c0.471,0 0.918,0.06 1.191,0.18v1.45c-0.379,-0.14 -0.91,-0.23 -1.358,-0.23c-1.821,0 -2.898,1.26 -2.898,3.35zM177.606,123.77v8.23h-1.237v-1.45h-0.106c-0.44,1.03 -1.381,1.6 -2.633,1.6c-1.79,0 -2.762,-1.07 -2.762,-3.04v-5.34h1.29v5.01c0,1.49 0.607,2.19 1.89,2.19c1.358,0 2.268,-0.95 2.268,-2.35v-4.85zM185.678,129.88h1.252c-0.251,1.35 -1.556,2.27 -3.286,2.27c-2.261,0 -3.574,-1.36 -3.574,-3.7v-1.24c0,-2.17 1.389,-3.59 3.483,-3.59c2.14,0 3.399,1.41 3.399,3.8v0.8h-5.607v0.34c0,1.51 0.896,2.48 2.299,2.48c1.04,0 1.806,-0.44 2.034,-1.16zM183.546,124.72c-1.374,0 -2.201,0.94 -2.201,2.52h4.333c0,-1.57 -0.805,-2.52 -2.132,-2.52z" fill="#00B51D"/>
<path d="M191.981,134.52h-1.221l0.941,-4.93h1.707z" fill="white"/>
</g>
<g id="request: { method:">
<path d="M53.911,149.31v2.66h2.549v1.03h-5.47v-1.03h1.662v-6.17h-1.829v-1.03h3.073v2.1h0.167c0.303,-1.53 1.328,-2.31 2.913,-2.31c0.471,0 0.918,0.06 1.192,0.18v1.45c-0.38,-0.14 -0.911,-0.23 -1.359,-0.23c-1.821,0 -2.898,1.26 -2.898,3.35zM65.678,150.88h1.252c-0.251,1.35 -1.556,2.27 -3.286,2.27c-2.261,0 -3.574,-1.36 -3.574,-3.7v-1.24c0,-2.17 1.389,-3.59 3.483,-3.59c2.14,0 3.399,1.41 3.399,3.8v0.8h-5.607v0.34c0,1.51 0.896,2.48 2.299,2.48c1.04,0 1.806,-0.44 2.034,-1.16zM63.546,145.72c-1.374,0 -2.201,0.94 -2.201,2.52h4.333c0,-1.57 -0.805,-2.52 -2.132,-2.52zM72.156,144.63c1.176,0 2.033,0.49 2.466,1.4h0.136v-1.26h1.275v11.01h-1.313v-4.05h-0.144c-0.356,0.9 -1.229,1.41 -2.42,1.41c-1.905,0 -3.149,-1.38 -3.149,-3.49v-1.53c0,-2.12 1.244,-3.49 3.149,-3.49zM72.528,145.81c-1.359,0 -2.224,0.98 -2.224,2.49v1.19c0,1.51 0.865,2.49 2.224,2.49c1.358,0 2.223,-0.97 2.223,-2.49v-1.19c0,-1.51 -0.865,-2.49 -2.223,-2.49zM85.258,144.77v8.23h-1.237v-1.45h-0.106c-0.44,1.03 -1.381,1.6 -2.633,1.6c-1.791,0 -2.762,-1.07 -2.762,-3.04v-5.34h1.29v5.01c0,1.49 0.607,2.19 1.889,2.19c1.358,0 2.269,-0.95 2.269,-2.35v-4.85zM93.329,150.88h1.252c-0.25,1.35 -1.555,2.27 -3.285,2.27c-2.261,0 -3.574,-1.36 -3.574,-3.7v-1.24c0,-2.17 1.389,-3.59 3.483,-3.59c2.139,0 3.399,1.41 3.399,3.8v0.8h-5.607v0.34c0,1.51 0.895,2.48 2.299,2.48c1.039,0 1.806,-0.44 2.033,-1.16zM91.197,145.72c-1.373,0 -2.2,0.94 -2.2,2.52h4.332c0,-1.57 -0.804,-2.52 -2.132,-2.52zM97.326,146.99c0,-1.43 1.214,-2.38 3.028,-2.38c1.714,0 2.875,0.86 3.027,2.23h-1.244c-0.152,-0.72 -0.842,-1.16 -1.806,-1.16c-1.047,0 -1.722,0.48 -1.722,1.23c0,0.63 0.424,0.99 1.456,1.22l1.161,0.26c1.601,0.37 2.33,1.07 2.33,2.26c0,1.52 -1.268,2.5 -3.217,2.5c-1.867,0 -3.104,-0.87 -3.248,-2.28h1.313c0.189,0.76 0.918,1.2 1.98,1.2c1.123,0 1.836,-0.51 1.836,-1.3c0,-0.65 -0.402,-1 -1.449,-1.24l-1.222,-0.28c-1.487,-0.34 -2.223,-1.09 -2.223,-2.26zM108.137,142.56h1.275v2.23h3.338v1.1h-3.323v4.64c0,0.9 0.63,1.38 1.79,1.38c0.463,0 1.29,-0.02 1.51,-0.04v1.09c-0.205,0.04 -1.206,0.08 -1.601,0.08c-2.041,0 -2.989,-0.78 -2.989,-2.49v-4.66h-2.193v-1.1h2.193zM140.151,154.04h-1.032c-1.843,0 -2.428,-0.58 -2.428,-2.46v-1.7c0,-1.17 -0.682,-1.85 -2.458,-1.67v-1.37c1.776,0.18 2.458,-0.49 2.458,-1.67v-1.7c0,-1.87 0.585,-2.46 2.428,-2.46h1.032v1.04h-0.827c-1.138,0 -1.358,0.27 -1.358,1.59v2.02c0,1.07 -0.797,1.77 -2.337,1.81v0.12c1.54,0.03 2.337,0.74 2.337,1.8v2.02c0,1.32 0.22,1.59 1.358,1.59h0.827zM76.64,166.94v6.06h-1.161v-5.68c0,-1 -0.364,-1.53 -1.055,-1.53c-0.72,0 -1.16,0.63 -1.16,1.66v5.55h-1.154v-5.69c0,-0.99 -0.364,-1.52 -1.062,-1.52c-0.728,0 -1.184,0.63 -1.184,1.66v5.55h-1.161v-8.23h1.154v1.16h0.136c0.205,-0.83 0.797,-1.31 1.571,-1.31c0.774,0 1.32,0.47 1.495,1.29h0.136c0.213,-0.79 0.873,-1.29 1.7,-1.29c1.146,0 1.745,0.79 1.745,2.32zM84.112,170.88h1.252c-0.25,1.35 -1.555,2.27 -3.285,2.27c-2.261,0 -3.574,-1.36 -3.574,-3.7v-1.24c0,-2.17 1.388,-3.59 3.483,-3.59c2.139,0 3.399,1.41 3.399,3.8v0.8h-5.607v0.34c0,1.51 0.895,2.48 2.299,2.48c1.039,0 1.805,-0.44 2.033,-1.16zM81.98,165.72c-1.373,0 -2.2,0.94 -2.2,2.52h4.332c0,-1.57 -0.804,-2.52 -2.132,-2.52zM89.702,162.56h1.275v2.23h3.339v1.1h-3.324v4.64c0,0.9 0.63,1.38 1.791,1.38c0.463,0 1.29,-0.02 1.51,-0.04v1.09c-0.205,0.04 -1.207,0.08 -1.601,0.08c-2.041,0 -2.99,-0.78 -2.99,-2.49v-4.66h-2.192v-1.1h2.192zM96.947,173v-11.46h1.244v4.68h0.107c0.432,-1.02 1.38,-1.6 2.64,-1.6c1.791,0 2.762,1.08 2.762,3.05v5.33h-1.29v-5.01c0,-1.48 -0.607,-2.18 -1.897,-2.18c-1.358,0 -2.276,0.95 -2.276,2.35v4.84zM109.541,173.15c-2.178,0 -3.567,-1.42 -3.567,-3.64v-1.24c0,-2.23 1.389,-3.65 3.567,-3.65c2.177,0 3.566,1.42 3.566,3.65v1.24c0,2.22 -1.389,3.64 -3.566,3.64zM109.541,165.76c-1.412,0 -2.292,1 -2.292,2.62v1.01c0,1.62 0.88,2.62 2.292,2.62c1.411,0 2.291,-1 2.291,-2.62v-1.01c0,-1.62 -0.88,-2.62 -2.291,-2.62zM118.242,173.14c-1.905,0 -3.149,-1.38 -3.149,-3.49v-1.54c0,-2.11 1.244,-3.48 3.149,-3.48c1.191,0 2.071,0.51 2.428,1.41h0.136v-4.5h1.313v11.46h-1.267v-1.26h-0.144c-0.425,0.91 -1.29,1.4 -2.466,1.4zM118.621,171.96c1.351,0 2.223,-0.97 2.223,-2.5v-1.18c0,-1.52 -0.872,-2.49 -2.223,-2.49c-1.358,0 -2.23,0.97 -2.23,2.49v1.18c0,1.52 0.872,2.5 2.23,2.5z" fill="#EEEEEE"/>
<path d="M118.758,147.22c-0.751,0 -1.374,-0.64 -1.374,-1.41c0,-0.76 0.623,-1.4 1.374,-1.4c0.751,0 1.373,0.64 1.373,1.4c0,0.77 -0.622,1.41 -1.373,1.41zM118.758,153.05c-0.751,0 -1.374,-0.63 -1.374,-1.41c0,-0.76 0.623,-1.39 1.374,-1.39c0.751,0 1.373,0.63 1.373,1.39c0,0.78 -0.622,1.41 -1.373,1.41zM127.975,167.22c-0.751,0 -1.373,-0.64 -1.373,-1.41c0,-0.76 0.622,-1.4 1.373,-1.4c0.751,0 1.373,0.64 1.373,1.4c0,0.77 -0.622,1.41 -1.373,1.41zM127.975,173.05c-0.751,0 -1.373,-0.63 -1.373,-1.41c0,-0.76 0.622,-1.39 1.373,-1.39c0.751,0 1.373,0.63 1.373,1.39c0,0.78 -0.622,1.41 -1.373,1.41z" fill="white"/>
</g>
<g id="'GET',">
<path d="M147.493,167.99h-1.381v-4.94h1.381zM158.623,170.65v-1.07h-2.527v-1.15h3.877v2.33c0,2.06 -1.548,3.47 -3.756,3.47c-2.572,0 -4.059,-1.73 -4.059,-4.73v-1.95c0,-3 1.487,-4.73 4.059,-4.73c2.277,0 3.703,1.39 3.756,3.66h-1.35c-0.061,-1.43 -1.032,-2.39 -2.428,-2.39c-1.768,0 -2.686,1.19 -2.686,3.46v1.95c0,2.27 0.925,3.46 2.693,3.46c1.495,0 2.421,-0.88 2.421,-2.31zM168.644,172.77v1.23h-6.464v-10.95h6.464v1.23h-5.121v3.55h4.84v1.18h-4.84v3.76zM175.122,174h-1.335v-9.72h-3.308v-1.23h7.951v1.23h-3.308zM184.362,167.99h-1.381v-4.94h1.381z" fill="#FD4B28"/>
<path d="M192.198,176.52h-1.221l0.941,-4.93h1.707z" fill="white"/>
</g>
<g id="url:">
<path d="M39.172,196.77v8.23h-1.237v-1.45h-0.106c-0.44,1.03 -1.381,1.6 -2.633,1.6c-1.791,0 -2.762,-1.07 -2.762,-3.04v-5.34h1.29v5.01c0,1.49 0.607,2.19 1.889,2.19c1.358,0 2.269,-0.95 2.269,-2.35v-4.85zM44.694,201.31v2.66h2.549v1.03h-5.47v-1.03h1.661v-6.17h-1.828v-1.03h3.073v2.1h0.167c0.303,-1.53 1.327,-2.31 2.913,-2.31c0.471,0 0.918,0.06 1.191,0.18v1.45c-0.379,-0.14 -0.91,-0.23 -1.358,-0.23c-1.821,0 -2.898,1.26 -2.898,3.35zM57.834,205h-6.821v-1.07h2.815v-9.32h-2.793v-1.07h4.082v10.39h2.717z" fill="#EEEEEE"/>
<path d="M63.454,199.22c-0.751,0 -1.373,-0.64 -1.373,-1.41c0,-0.76 0.622,-1.4 1.373,-1.4c0.752,0 1.374,0.64 1.374,1.4c0,0.77 -0.622,1.41 -1.374,1.41zM63.454,205.05c-0.751,0 -1.373,-0.63 -1.373,-1.41c0,-0.76 0.622,-1.39 1.373,-1.39c0.752,0 1.374,0.63 1.374,1.39c0,0.78 -0.622,1.41 -1.374,1.41z" fill="white"/>
</g>
<g id="'https://api.checklyhq.com/public-stats',">
<path d="M119.493,178.99h-1.381v-4.94h1.381zM124.644,185v-11.46h1.244v4.68h0.106c0.433,-1.02 1.381,-1.6 2.641,-1.6c1.79,0 2.761,1.08 2.761,3.05v5.33h-1.289v-5.01c0,-1.48 -0.607,-2.18 -1.897,-2.18c-1.358,0 -2.276,0.95 -2.276,2.35v4.84zM135.834,174.56h1.274v2.23h3.339v1.1h-3.324v4.64c0,0.9 0.63,1.38 1.791,1.38c0.463,0 1.29,-0.02 1.51,-0.04v1.09c-0.205,0.04 -1.206,0.08 -1.601,0.08c-2.041,0 -2.989,-0.78 -2.989,-2.49v-4.66h-2.193v-1.1h2.193zM145.051,174.56h1.275v2.23h3.338v1.1h-3.323v4.64c0,0.9 0.629,1.38 1.79,1.38c0.463,0 1.29,-0.02 1.51,-0.04v1.09c-0.205,0.04 -1.206,0.08 -1.601,0.08c-2.041,0 -2.989,-0.78 -2.989,-2.49v-4.66h-2.193v-1.1h2.193zM156.188,176.63c1.904,0 3.148,1.37 3.148,3.49v1.53c0,2.11 -1.244,3.49 -3.148,3.49c-1.192,0 -2.064,-0.51 -2.421,-1.41h-0.144v4.05h-1.313v-11.01h1.275v1.26h0.137c0.432,-0.91 1.29,-1.4 2.466,-1.4zM155.816,177.81c-1.358,0 -2.223,0.98 -2.223,2.49v1.19c0,1.52 0.865,2.49 2.223,2.49c1.358,0 2.223,-0.98 2.223,-2.49v-1.19c0,-1.51 -0.865,-2.49 -2.223,-2.49zM161.892,178.99c0,-1.43 1.214,-2.38 3.027,-2.38c1.715,0 2.876,0.86 3.028,2.23h-1.245c-0.151,-0.72 -0.842,-1.16 -1.805,-1.16c-1.048,0 -1.723,0.48 -1.723,1.23c0,0.63 0.425,0.99 1.457,1.22l1.161,0.26c1.601,0.37 2.329,1.07 2.329,2.26c0,1.52 -1.267,2.5 -3.217,2.5c-1.866,0 -3.103,-0.87 -3.247,-2.28h1.312c0.19,0.76 0.918,1.2 1.981,1.2c1.123,0 1.836,-0.51 1.836,-1.3c0,-0.65 -0.402,-1 -1.449,-1.24l-1.222,-0.28c-1.487,-0.34 -2.223,-1.09 -2.223,-2.26zM174.106,179.22c-0.751,0 -1.373,-0.64 -1.373,-1.41c0,-0.76 0.622,-1.4 1.373,-1.4c0.751,0 1.373,0.64 1.373,1.4c0,0.77 -0.622,1.41 -1.373,1.41zM174.106,185.05c-0.751,0 -1.373,-0.63 -1.373,-1.41c0,-0.76 0.622,-1.39 1.373,-1.39c0.751,0 1.373,0.63 1.373,1.39c0,0.78 -0.622,1.41 -1.373,1.41zM181.282,186.04h-1.259l5.334,-13.03h1.267zM190.5,186.04h-1.26l5.334,-13.03h1.267zM200.923,185.14c-1.57,0 -2.617,-0.98 -2.617,-2.48c0,-1.45 1.047,-2.32 2.921,-2.42l2.261,-0.11v-0.74c0,-1.04 -0.63,-1.61 -1.776,-1.61c-0.948,0 -1.616,0.41 -1.828,1.11h-1.267c0.151,-1.32 1.426,-2.22 3.11,-2.22c1.935,0 3.043,0.99 3.043,2.7v5.64h-1.229v-1.24h-0.129c-0.395,0.88 -1.29,1.37 -2.489,1.37zM201.295,184.01c1.244,0 2.193,-0.82 2.193,-1.92v-0.97l-2.117,0.09c-1.153,0.06 -1.76,0.55 -1.76,1.41c0,0.86 0.644,1.39 1.684,1.39zM211.491,176.63c1.904,0 3.149,1.37 3.149,3.49v1.53c0,2.11 -1.245,3.49 -3.149,3.49c-1.191,0 -2.064,-0.51 -2.42,-1.41h-0.145v4.05h-1.312v-11.01h1.274v1.26h0.137c0.433,-0.91 1.29,-1.4 2.466,-1.4zM211.119,177.81c-1.358,0 -2.223,0.98 -2.223,2.49v1.19c0,1.52 0.865,2.49 2.223,2.49c1.358,0 2.223,-0.98 2.223,-2.49v-1.19c0,-1.51 -0.865,-2.49 -2.223,-2.49zM220.336,174.75c-0.607,0 -1.069,-0.46 -1.069,-1.06c0,-0.6 0.462,-1.06 1.069,-1.06c0.607,0 1.07,0.46 1.07,1.06c0,0.6 -0.463,1.06 -1.07,1.06zM223.789,185h-6.821v-1.07h2.822v-6.09h-2.8v-1.07h4.075v7.16h2.724zM229.409,185.05c-0.751,0 -1.373,-0.63 -1.373,-1.41c0,-0.76 0.622,-1.39 1.373,-1.39c0.752,0 1.374,0.63 1.374,1.39c0,0.78 -0.622,1.41 -1.374,1.41zM242.06,179.33h-1.28c-0.16,-0.96 -0.96,-1.57 -2.02,-1.57c-1.44,0 -2.24,0.98 -2.24,2.75v0.74c0,1.77 0.8,2.74 2.24,2.74c1.06,0 1.86,-0.6 2.02,-1.54h1.28c-0.21,1.68 -1.46,2.7 -3.28,2.7c-2.24,0 -3.54,-1.37 -3.54,-3.73v-1.08c0,-2.36 1.3,-3.73 3.54,-3.73c1.82,0 3.06,1.03 3.28,2.72zM244.47,185v-11.46h1.24v4.68h0.11c0.43,-1.02 1.38,-1.6 2.64,-1.6c1.79,0 2.76,1.08 2.76,3.05v5.33h-1.29v-5.01c0,-1.48 -0.61,-2.18 -1.9,-2.18c-1.35,0 -2.27,0.95 -2.27,2.35v4.84zM259.28,182.88h1.26c-0.25,1.35 -1.56,2.27 -3.29,2.27c-2.26,0 -3.57,-1.36 -3.57,-3.7v-1.24c0,-2.17 1.39,-3.59 3.48,-3.59c2.14,0 3.4,1.41 3.4,3.8v0.8h-5.61v0.34c0,1.51 0.9,2.48 2.3,2.48c1.04,0 1.81,-0.44 2.03,-1.16zM257.15,177.72c-1.37,0 -2.2,0.94 -2.2,2.52h4.33c0,-1.57 -0.8,-2.52 -2.13,-2.52zM269.71,179.33h-1.28c-0.16,-0.96 -0.96,-1.57 -2.02,-1.57c-1.44,0 -2.23,0.98 -2.23,2.75v0.74c0,1.77 0.79,2.74 2.23,2.74c1.06,0 1.86,-0.6 2.02,-1.54h1.28c-0.21,1.68 -1.46,2.7 -3.28,2.7c-2.24,0 -3.54,-1.37 -3.54,-3.73v-1.08c0,-2.36 1.3,-3.73 3.54,-3.73c1.82,0 3.07,1.03 3.28,2.72zM274.12,180.46l3.59,-3.69h1.56l-3.19,3.26l3.42,4.97h-1.53l-2.81,-4.09l-1.14,1.09v3h-1.29v-11.46h1.29v6.92zM288.31,185h-6.82v-1.07h2.81v-9.32h-2.79v-1.07h4.08v10.39h2.72zM291.62,187.93c-0.19,0 -0.44,-0.01 -0.55,-0.02v-1.13c0.1,0.02 0.33,0.03 0.45,0.03c0.78,0 1.2,-0.35 1.54,-1.31l0.15,-0.45l-3.03,-8.28h1.41l2.3,6.89h0.1l2.3,-6.89h1.37l-3.1,8.53c-0.72,2.03 -1.41,2.63 -2.94,2.63zM299.77,185v-11.46h1.25v4.68h0.1c0.43,-1.02 1.38,-1.6 2.64,-1.6c1.79,0 2.76,1.08 2.76,3.05v5.33h-1.29v-5.01c0,-1.48 -0.6,-2.18 -1.89,-2.18c-1.36,0 -2.28,0.95 -2.28,2.35v4.84zM311.85,176.63c1.17,0 2.03,0.49 2.46,1.4h0.14v-1.26h1.28v11.01h-1.32v-4.05h-0.14c-0.36,0.9 -1.23,1.41 -2.42,1.41c-1.91,0 -3.15,-1.38 -3.15,-3.49v-1.53c0,-2.12 1.24,-3.49 3.15,-3.49zM312.22,177.81c-1.36,0 -2.22,0.98 -2.22,2.49v1.19c0,1.51 0.86,2.49 2.22,2.49c1.36,0 2.22,-0.97 2.22,-2.49v-1.19c0,-1.51 -0.86,-2.49 -2.22,-2.49zM321.58,185.05c-0.75,0 -1.37,-0.63 -1.37,-1.41c0,-0.76 0.62,-1.39 1.37,-1.39c0.75,0 1.37,0.63 1.37,1.39c0,0.78 -0.62,1.41 -1.37,1.41zM334.23,179.33h-1.28c-0.16,-0.96 -0.96,-1.57 -2.02,-1.57c-1.44,0 -2.23,0.98 -2.23,2.75v0.74c0,1.77 0.79,2.74 2.23,2.74c1.06,0 1.86,-0.6 2.02,-1.54h1.28c-0.21,1.68 -1.46,2.7 -3.28,2.7c-2.24,0 -3.54,-1.37 -3.54,-3.73v-1.08c0,-2.36 1.3,-3.73 3.54,-3.73c1.82,0 3.07,1.03 3.28,2.72zM340.02,185.15c-2.18,0 -3.57,-1.42 -3.57,-3.64v-1.24c0,-2.23 1.39,-3.65 3.57,-3.65c2.17,0 3.56,1.42 3.56,3.65v1.24c0,2.22 -1.39,3.64 -3.56,3.64zM340.02,177.76c-1.42,0 -2.3,1 -2.3,2.62v1.01c0,1.62 0.88,2.62 2.3,2.62c1.41,0 2.29,-1 2.29,-2.62v-1.01c0,-1.62 -0.88,-2.62 -2.29,-2.62zM353.2,178.94v6.06h-1.16v-5.68c0,-1 -0.36,-1.53 -1.05,-1.53c-0.72,0 -1.16,0.63 -1.16,1.66v5.55h-1.16v-5.69c0,-0.99 -0.36,-1.52 -1.06,-1.52c-0.73,0 -1.18,0.63 -1.18,1.66v5.55h-1.17v-8.23h1.16v1.16h0.13c0.21,-0.83 0.8,-1.31 1.58,-1.31c0.77,0 1.32,0.47 1.49,1.29h0.14c0.21,-0.79 0.87,-1.29 1.7,-1.29c1.14,0 1.74,0.79 1.74,2.32zM356.41,186.04h-1.26l5.33,-13.03h1.27zM368.18,176.63c1.91,0 3.15,1.37 3.15,3.49v1.53c0,2.11 -1.24,3.49 -3.15,3.49c-1.19,0 -2.06,-0.51 -2.42,-1.41h-0.14v4.05h-1.31v-11.01h1.27v1.26h0.14c0.43,-0.91 1.29,-1.4 2.46,-1.4zM367.81,177.81c-1.36,0 -2.22,0.98 -2.22,2.49v1.19c0,1.52 0.86,2.49 2.22,2.49c1.36,0 2.22,-0.98 2.22,-2.49v-1.19c0,-1.51 -0.86,-2.49 -2.22,-2.49zM380.25,176.77v8.23h-1.23v-1.45h-0.11c-0.44,1.03 -1.38,1.6 -2.63,1.6c-1.79,0 -2.76,-1.07 -2.76,-3.04v-5.34h1.29v5.01c0,1.49 0.6,2.19 1.89,2.19c1.35,0 2.26,-0.95 2.26,-2.35v-4.85zM386.62,185.14c-1.18,0 -2.04,-0.49 -2.47,-1.4h-0.14v1.26h-1.27v-11.46h1.31v4.5h0.14c0.36,-0.9 1.24,-1.41 2.43,-1.41c1.9,0 3.15,1.37 3.15,3.48v1.54c0,2.11 -1.25,3.49 -3.15,3.49zM386.24,183.96c1.36,0 2.23,-0.98 2.23,-2.5v-1.18c0,-1.52 -0.87,-2.49 -2.23,-2.49c-1.35,0 -2.22,0.97 -2.22,2.49v1.18c0,1.53 0.87,2.5 2.22,2.5zM398.92,185h-6.83v-1.07h2.82v-9.32h-2.79v-1.07h4.08v10.39h2.72zM404.68,174.75c-0.61,0 -1.07,-0.46 -1.07,-1.06c0,-0.6 0.46,-1.06 1.07,-1.06c0.61,0 1.07,0.46 1.07,1.06c0,0.6 -0.46,1.06 -1.07,1.06zM408.13,185h-6.82v-1.07h2.82v-6.09h-2.8v-1.07h4.08v7.16h2.72zM417.18,179.33h-1.27c-0.16,-0.96 -0.97,-1.57 -2.03,-1.57c-1.43,0 -2.23,0.98 -2.23,2.75v0.74c0,1.77 0.8,2.74 2.23,2.74c1.06,0 1.87,-0.6 2.03,-1.54h1.27c-0.2,1.68 -1.45,2.7 -3.27,2.7c-2.24,0 -3.55,-1.37 -3.55,-3.73v-1.08c0,-2.36 1.31,-3.73 3.55,-3.73c1.82,0 3.06,1.03 3.27,2.72zM426.98,180.74h-8.02v-1.2h8.02zM115.806,198.99c0,-1.43 1.214,-2.38 3.027,-2.38c1.715,0 2.876,0.86 3.028,2.23h-1.245c-0.152,-0.72 -0.842,-1.16 -1.806,-1.16c-1.047,0 -1.722,0.48 -1.722,1.23c0,0.63 0.425,0.99 1.457,1.22l1.161,0.26c1.601,0.37 2.329,1.07 2.329,2.26c0,1.52 -1.267,2.5 -3.217,2.5c-1.866,0 -3.103,-0.87 -3.247,-2.28h1.312c0.19,0.76 0.918,1.2 1.981,1.2c1.122,0 1.836,-0.51 1.836,-1.3c0,-0.65 -0.402,-1 -1.449,-1.24l-1.222,-0.28c-1.487,-0.34 -2.223,-1.09 -2.223,-2.26zM126.616,194.56h1.275v2.23h3.339v1.1h-3.324v4.64c0,0.9 0.63,1.38 1.791,1.38c0.463,0 1.29,-0.02 1.51,-0.04v1.09c-0.205,0.04 -1.207,0.08 -1.601,0.08c-2.041,0 -2.99,-0.78 -2.99,-2.49v-4.66h-2.192v-1.1h2.192zM136.403,205.14c-1.571,0 -2.618,-0.98 -2.618,-2.48c0,-1.45 1.047,-2.32 2.921,-2.42l2.261,-0.11v-0.74c0,-1.04 -0.63,-1.61 -1.775,-1.61c-0.949,0 -1.616,0.41 -1.829,1.11h-1.267c0.152,-1.32 1.427,-2.22 3.111,-2.22c1.935,0 3.042,0.99 3.042,2.7v5.64h-1.229v-1.24h-0.129c-0.394,0.88 -1.29,1.37 -2.488,1.37zM136.774,204.01c1.245,0 2.193,-0.82 2.193,-1.92v-0.97l-2.117,0.09c-1.153,0.06 -1.76,0.55 -1.76,1.41c0,0.86 0.645,1.39 1.684,1.39zM145.051,194.56h1.275v2.23h3.338v1.1h-3.323v4.64c0,0.9 0.629,1.38 1.79,1.38c0.463,0 1.29,-0.02 1.51,-0.04v1.09c-0.205,0.04 -1.206,0.08 -1.601,0.08c-2.041,0 -2.989,-0.78 -2.989,-2.49v-4.66h-2.193v-1.1h2.193zM152.675,198.99c0,-1.43 1.214,-2.38 3.027,-2.38c1.715,0 2.876,0.86 3.027,2.23h-1.244c-0.152,-0.72 -0.842,-1.16 -1.806,-1.16c-1.047,0 -1.722,0.48 -1.722,1.23c0,0.63 0.425,0.99 1.457,1.22l1.161,0.26c1.601,0.37 2.329,1.07 2.329,2.26c0,1.52 -1.267,2.5 -3.217,2.5c-1.867,0 -3.103,-0.87 -3.248,-2.28h1.313c0.19,0.76 0.918,1.2 1.98,1.2c1.123,0 1.837,-0.51 1.837,-1.3c0,-0.65 -0.403,-1 -1.45,-1.24l-1.221,-0.28c-1.487,-0.34 -2.223,-1.09 -2.223,-2.26zM165.579,198.99h-1.381v-4.94h1.381z" fill="#FD4B28"/>
<path d="M173.416,207.52h-1.222l0.941,-4.93h1.707z" fill="white"/>
</g>
<g id="assertions: [">
<path d="M71.837,205.14c-1.571,0 -2.618,-0.98 -2.618,-2.48c0,-1.45 1.047,-2.32 2.922,-2.42l2.261,-0.11v-0.74c0,-1.04 -0.63,-1.61 -1.776,-1.61c-0.948,0 -1.616,0.41 -1.828,1.11h-1.267c0.151,-1.32 1.426,-2.22 3.11,-2.22c1.935,0 3.043,0.99 3.043,2.7v5.64h-1.229v-1.24h-0.129c-0.395,0.88 -1.29,1.37 -2.489,1.37zM72.209,204.01c1.244,0 2.193,-0.82 2.193,-1.92v-0.97l-2.117,0.09c-1.154,0.06 -1.761,0.55 -1.761,1.41c0,0.86 0.645,1.39 1.685,1.39zM78.892,198.99c0,-1.43 1.214,-2.38 3.027,-2.38c1.715,0 2.876,0.86 3.028,2.23h-1.245c-0.151,-0.72 -0.842,-1.16 -1.805,-1.16c-1.048,0 -1.723,0.48 -1.723,1.23c0,0.63 0.425,0.99 1.457,1.22l1.161,0.26c1.601,0.37 2.329,1.07 2.329,2.26c0,1.52 -1.267,2.5 -3.217,2.5c-1.866,0 -3.103,-0.87 -3.247,-2.28h1.312c0.19,0.76 0.918,1.2 1.981,1.2c1.123,0 1.836,-0.51 1.836,-1.3c0,-0.65 -0.402,-1 -1.449,-1.24l-1.222,-0.28c-1.487,-0.34 -2.223,-1.09 -2.223,-2.26zM88.109,198.99c0,-1.43 1.214,-2.38 3.027,-2.38c1.715,0 2.876,0.86 3.028,2.23h-1.244c-0.152,-0.72 -0.843,-1.16 -1.806,-1.16c-1.047,0 -1.723,0.48 -1.723,1.23c0,0.63 0.425,0.99 1.457,1.22l1.161,0.26c1.601,0.37 2.329,1.07 2.329,2.26c0,1.52 -1.267,2.5 -3.217,2.5c-1.866,0 -3.103,-0.87 -3.247,-2.28h1.313c0.189,0.76 0.918,1.2 1.98,1.2c1.123,0 1.836,-0.51 1.836,-1.3c0,-0.65 -0.402,-1 -1.449,-1.24l-1.222,-0.28c-1.487,-0.34 -2.223,-1.09 -2.223,-2.26zM102.546,202.88h1.252c-0.25,1.35 -1.555,2.27 -3.285,2.27c-2.261,0 -3.574,-1.36 -3.574,-3.7v-1.24c0,-2.17 1.389,-3.59 3.483,-3.59c2.14,0 3.399,1.41 3.399,3.8v0.8h-5.607v0.34c0,1.51 0.895,2.48 2.299,2.48c1.04,0 1.806,-0.44 2.033,-1.16zM100.414,197.72c-1.373,0 -2.2,0.94 -2.2,2.52h4.332c0,-1.57 -0.804,-2.52 -2.132,-2.52zM109.214,201.31v2.66h2.55v1.03h-5.471v-1.03h1.662v-6.17h-1.829v-1.03h3.073v2.1h0.167c0.304,-1.53 1.328,-2.31 2.914,-2.31c0.47,0 0.918,0.06 1.191,0.18v1.45c-0.38,-0.14 -0.911,-0.23 -1.358,-0.23c-1.821,0 -2.899,1.26 -2.899,3.35zM117.354,194.56h1.275v2.23h3.338v1.1h-3.323v4.64c0,0.9 0.63,1.38 1.791,1.38c0.462,0 1.289,-0.02 1.51,-0.04v1.09c-0.205,0.04 -1.207,0.08 -1.601,0.08c-2.041,0 -2.99,-0.78 -2.99,-2.49v-4.66h-2.193v-1.1h2.193zM128.119,194.75c-0.607,0 -1.07,-0.46 -1.07,-1.06c0,-0.6 0.463,-1.06 1.07,-1.06c0.607,0 1.07,0.46 1.07,1.06c0,0.6 -0.463,1.06 -1.07,1.06zM131.571,205h-6.821v-1.07h2.823v-6.09h-2.8v-1.07h4.075v7.16h2.723zM137.192,205.15c-2.177,0 -3.566,-1.42 -3.566,-3.64v-1.24c0,-2.23 1.389,-3.65 3.566,-3.65c2.178,0 3.566,1.42 3.566,3.65v1.24c0,2.22 -1.388,3.64 -3.566,3.64zM137.192,197.76c-1.411,0 -2.291,1 -2.291,2.62v1.01c0,1.62 0.88,2.62 2.291,2.62c1.411,0 2.292,-1 2.292,-2.62v-1.01c0,-1.62 -0.881,-2.62 -2.292,-2.62zM143.041,205v-8.23h1.236v1.45h0.107c0.44,-1.03 1.38,-1.6 2.632,-1.6c1.791,0 2.762,1.07 2.762,3.04v5.34h-1.29v-5.02c0,-1.48 -0.607,-2.18 -1.889,-2.18c-1.358,0 -2.269,0.95 -2.269,2.35v4.85zM152.63,198.99c0,-1.43 1.214,-2.38 3.027,-2.38c1.715,0 2.876,0.86 3.027,2.23h-1.244c-0.152,-0.72 -0.842,-1.16 -1.806,-1.16c-1.047,0 -1.722,0.48 -1.722,1.23c0,0.63 0.425,0.99 1.457,1.22l1.161,0.26c1.6,0.37 2.329,1.07 2.329,2.26c0,1.52 -1.267,2.5 -3.217,2.5c-1.867,0 -3.103,-0.87 -3.248,-2.28h1.313c0.19,0.76 0.918,1.2 1.98,1.2c1.123,0 1.837,-0.51 1.837,-1.3c0,-0.65 -0.403,-1 -1.45,-1.24l-1.221,-0.28c-1.487,-0.34 -2.223,-1.09 -2.223,-2.26zM33.83,213.01h3.999v1.04h-2.747v10.95h2.762v1.04h-4.014z" fill="#EEEEEE"/>
<path d="M164.844,199.22c-0.751,0 -1.373,-0.64 -1.373,-1.41c0,-0.76 0.622,-1.4 1.373,-1.4c0.751,0 1.373,0.64 1.373,1.4c0,0.77 -0.622,1.41 -1.373,1.41zM164.844,205.05c-0.751,0 -1.373,-0.63 -1.373,-1.41c0,-0.76 0.622,-1.39 1.373,-1.39c0.751,0 1.373,0.63 1.373,1.39c0,0.78 -0.622,1.41 -1.373,1.41z" fill="white"/>
</g>
<g id="AssertionBuilder.statusCode().equals(200)">
<path d="M93.633,226l-0.948,-3.14h-3.809l-0.956,3.14h-1.359l3.529,-10.95h1.426l3.528,10.95zM90.765,216.66l-1.54,5.05h3.111l-1.533,-5.05zM97.023,219.99c0,-1.43 1.214,-2.38 3.027,-2.38c1.715,0 2.876,0.86 3.028,2.23h-1.245c-0.151,-0.72 -0.842,-1.16 -1.805,-1.16c-1.047,0 -1.723,0.48 -1.723,1.23c0,0.63 0.425,0.99 1.457,1.22l1.161,0.26c1.601,0.37 2.329,1.07 2.329,2.26c0,1.52 -1.267,2.5 -3.217,2.5c-1.866,0 -3.103,-0.87 -3.247,-2.28h1.312c0.19,0.76 0.919,1.2 1.981,1.2c1.123,0 1.836,-0.51 1.836,-1.3c0,-0.65 -0.402,-1 -1.449,-1.24l-1.222,-0.28c-1.487,-0.34 -2.223,-1.09 -2.223,-2.26zM106.24,219.99c0,-1.43 1.214,-2.38 3.028,-2.38c1.714,0 2.875,0.86 3.027,2.23h-1.244c-0.152,-0.72 -0.843,-1.16 -1.806,-1.16c-1.047,0 -1.722,0.48 -1.722,1.23c0,0.63 0.424,0.99 1.456,1.22l1.161,0.26c1.601,0.37 2.33,1.07 2.33,2.26c0,1.52 -1.268,2.5 -3.218,2.5c-1.866,0 -3.103,-0.87 -3.247,-2.28h1.313c0.189,0.76 0.918,1.2 1.98,1.2c1.123,0 1.836,-0.51 1.836,-1.3c0,-0.65 -0.402,-1 -1.449,-1.24l-1.222,-0.28c-1.487,-0.34 -2.223,-1.09 -2.223,-2.26zM120.678,223.88h1.252c-0.251,1.35 -1.556,2.27 -3.286,2.27c-2.261,0 -3.574,-1.36 -3.574,-3.7v-1.24c0,-2.17 1.389,-3.59 3.483,-3.59c2.14,0 3.399,1.41 3.399,3.8v0.8h-5.607v0.34c0,1.51 0.896,2.48 2.299,2.48c1.04,0 1.806,-0.44 2.034,-1.16zM118.546,218.72c-1.374,0 -2.201,0.94 -2.201,2.52h4.333c0,-1.57 -0.805,-2.52 -2.132,-2.52zM127.345,222.31v2.66h2.55v1.03h-5.471v-1.03h1.662v-6.17h-1.829v-1.03h3.073v2.1h0.167c0.304,-1.53 1.328,-2.31 2.914,-2.31c0.47,0 0.918,0.06 1.191,0.18v1.45c-0.379,-0.14 -0.91,-0.23 -1.358,-0.23c-1.821,0 -2.899,1.26 -2.899,3.35zM135.485,215.56h1.275v2.23h3.338v1.1h-3.323v4.64c0,0.9 0.63,1.38 1.791,1.38c0.463,0 1.29,-0.02 1.51,-0.04v1.09c-0.205,0.04 -1.207,0.08 -1.601,0.08c-2.041,0 -2.99,-0.78 -2.99,-2.49v-4.66h-2.193v-1.1h2.193zM146.25,215.75c-0.607,0 -1.07,-0.46 -1.07,-1.06c0,-0.6 0.463,-1.06 1.07,-1.06c0.607,0 1.07,0.46 1.07,1.06c0,0.6 -0.463,1.06 -1.07,1.06zM149.703,226h-6.822v-1.07h2.823v-6.09h-2.8v-1.07h4.075v7.16h2.724zM155.323,226.15c-2.177,0 -3.566,-1.42 -3.566,-3.64v-1.24c0,-2.23 1.389,-3.65 3.566,-3.65c2.178,0 3.566,1.42 3.566,3.65v1.24c0,2.22 -1.388,3.64 -3.566,3.64zM155.323,218.76c-1.411,0 -2.291,1 -2.291,2.62v1.01c0,1.62 0.88,2.62 2.291,2.62c1.412,0 2.292,-1 2.292,-2.62v-1.01c0,-1.62 -0.88,-2.62 -2.292,-2.62zM161.172,226v-8.23h1.237v1.45h0.106c0.44,-1.03 1.381,-1.6 2.633,-1.6c1.79,0 2.761,1.07 2.761,3.04v5.34h-1.289v-5.02c0,-1.48 -0.607,-2.18 -1.89,-2.18c-1.358,0 -2.268,0.95 -2.268,2.35v4.85zM173.963,226h-3.582v-10.95h3.544c2.018,0 3.232,1.01 3.232,2.71c0,1.21 -0.782,2.2 -1.882,2.39v0.11c1.472,0.15 2.436,1.22 2.436,2.68c0,1.92 -1.396,3.06 -3.748,3.06zM171.709,216.2v3.58h1.707c1.556,0 2.39,-0.63 2.39,-1.78c0,-1.15 -0.789,-1.8 -2.185,-1.8zM171.709,224.84h1.965c1.738,0 2.648,-0.68 2.648,-1.99c0,-1.29 -0.918,-1.96 -2.693,-1.96h-1.92zM186.344,217.77v8.23h-1.237v-1.45h-0.106c-0.44,1.03 -1.381,1.6 -2.633,1.6c-1.791,0 -2.762,-1.07 -2.762,-3.04v-5.34h1.29v5.01c0,1.49 0.607,2.19 1.889,2.19c1.358,0 2.269,-0.95 2.269,-2.35v-4.85zM192.336,215.75c-0.607,0 -1.069,-0.46 -1.069,-1.06c0,-0.6 0.462,-1.06 1.069,-1.06c0.607,0 1.07,0.46 1.07,1.06c0,0.6 -0.463,1.06 -1.07,1.06zM195.789,226h-6.821v-1.07h2.822v-6.09h-2.8v-1.07h4.075v7.16h2.724zM205.006,226h-6.821v-1.07h2.815v-9.32h-2.792v-1.07h4.082v10.39h2.716zM210.111,226.14c-1.905,0 -3.149,-1.38 -3.149,-3.49v-1.54c0,-2.11 1.244,-3.48 3.149,-3.48c1.191,0 2.071,0.51 2.428,1.41h0.136v-4.5h1.313v11.46h-1.267v-1.26h-0.144c-0.425,0.91 -1.29,1.4 -2.466,1.4zM210.49,224.96c1.351,0 2.223,-0.97 2.223,-2.5v-1.18c0,-1.52 -0.872,-2.49 -2.223,-2.49c-1.358,0 -2.231,0.97 -2.231,2.49v1.18c0,1.52 0.873,2.5 2.231,2.5zM222.067,223.88h1.252c-0.25,1.35 -1.556,2.27 -3.285,2.27c-2.262,0 -3.574,-1.36 -3.574,-3.7v-1.24c0,-2.17 1.388,-3.59 3.482,-3.59c2.14,0 3.4,1.41 3.4,3.8v0.8h-5.607v0.34c0,1.51 0.895,2.48 2.299,2.48c1.039,0 1.805,-0.44 2.033,-1.16zM219.935,218.72c-1.373,0 -2.2,0.94 -2.2,2.52h4.332c0,-1.57 -0.804,-2.52 -2.132,-2.52zM228.735,222.31v2.66h2.549v1.03h-5.47v-1.03h1.661v-6.17h-1.828v-1.03h3.073v2.1h0.167c0.303,-1.53 1.327,-2.31 2.913,-2.31c0.471,0 0.918,0.06 1.191,0.18v1.45c-0.379,-0.14 -0.91,-0.23 -1.358,-0.23c-1.821,0 -2.898,1.26 -2.898,3.35zM238.28,226.05c-0.75,0 -1.38,-0.63 -1.38,-1.41c0,-0.76 0.63,-1.39 1.38,-1.39c0.75,0 1.37,0.63 1.37,1.39c0,0.78 -0.62,1.41 -1.37,1.41zM244.5,219.99c0,-1.43 1.21,-2.38 3.03,-2.38c1.71,0 2.87,0.86 3.02,2.23h-1.24c-0.15,-0.72 -0.84,-1.16 -1.81,-1.16c-1.04,0 -1.72,0.48 -1.72,1.23c0,0.63 0.43,0.99 1.46,1.22l1.16,0.26c1.6,0.37 2.33,1.07 2.33,2.26c0,1.52 -1.27,2.5 -3.22,2.5c-1.87,0 -3.1,-0.87 -3.25,-2.28h1.32c0.19,0.76 0.91,1.2 1.98,1.2c1.12,0 1.83,-0.51 1.83,-1.3c0,-0.65 -0.4,-1 -1.45,-1.24l-1.22,-0.28c-1.49,-0.34 -2.22,-1.09 -2.22,-2.26zM255.31,215.56h1.27v2.23h3.34v1.1h-3.32v4.64c0,0.9 0.63,1.38 1.79,1.38c0.46,0 1.29,-0.02 1.51,-0.04v1.09c-0.21,0.04 -1.21,0.08 -1.6,0.08c-2.04,0 -2.99,-0.78 -2.99,-2.49v-4.66h-2.19v-1.1h2.19zM265.1,226.14c-1.58,0 -2.62,-0.98 -2.62,-2.48c0,-1.45 1.04,-2.32 2.92,-2.42l2.26,-0.11v-0.74c0,-1.04 -0.63,-1.61 -1.78,-1.61c-0.94,0 -1.61,0.41 -1.82,1.11h-1.27c0.15,-1.32 1.43,-2.22 3.11,-2.22c1.93,0 3.04,0.99 3.04,2.7v5.64h-1.23v-1.24h-0.13c-0.39,0.88 -1.29,1.37 -2.48,1.37zM265.47,225.01c1.24,0 2.19,-0.82 2.19,-1.92v-0.97l-2.12,0.09c-1.15,0.06 -1.76,0.55 -1.76,1.41c0,0.86 0.65,1.39 1.69,1.39zM273.74,215.56h1.28v2.23h3.34v1.1h-3.33v4.64c0,0.9 0.63,1.38 1.79,1.38c0.47,0 1.29,-0.02 1.51,-0.04v1.09c-0.2,0.04 -1.2,0.08 -1.6,0.08c-2.04,0 -2.99,-0.78 -2.99,-2.49v-4.66h-2.19v-1.1h2.19zM287.73,217.77v8.23h-1.23v-1.45h-0.11c-0.44,1.03 -1.38,1.6 -2.63,1.6c-1.79,0 -2.76,-1.07 -2.76,-3.04v-5.34h1.29v5.01c0,1.49 0.6,2.19 1.88,2.19c1.36,0 2.27,-0.95 2.27,-2.35v-4.85zM290.58,219.99c0,-1.43 1.22,-2.38 3.03,-2.38c1.72,0 2.88,0.86 3.03,2.23h-1.25c-0.15,-0.72 -0.84,-1.16 -1.8,-1.16c-1.05,0 -1.72,0.48 -1.72,1.23c0,0.63 0.42,0.99 1.45,1.22l1.16,0.26c1.61,0.37 2.33,1.07 2.33,2.26c0,1.52 -1.26,2.5 -3.21,2.5c-1.87,0 -3.11,-0.87 -3.25,-2.28h1.31c0.19,0.76 0.92,1.2 1.98,1.2c1.13,0 1.84,-0.51 1.84,-1.3c0,-0.65 -0.4,-1 -1.45,-1.24l-1.22,-0.28c-1.49,-0.34 -2.23,-1.09 -2.23,-2.26zM303.05,224.96c1.46,0 2.38,-0.87 2.42,-2.28h1.35c0,2.11 -1.53,3.55 -3.77,3.55c-2.57,0 -4.07,-1.74 -4.07,-4.73v-1.95c0,-2.99 1.5,-4.73 4.07,-4.73c2.31,0 3.73,1.41 3.78,3.74h-1.36c-0.05,-1.48 -1.02,-2.47 -2.43,-2.47c-1.77,0 -2.69,1.19 -2.69,3.46v1.95c0,2.27 0.92,3.46 2.7,3.46zM312.02,226.15c-2.18,0 -3.57,-1.42 -3.57,-3.64v-1.24c0,-2.23 1.39,-3.65 3.57,-3.65c2.17,0 3.56,1.42 3.56,3.65v1.24c0,2.22 -1.39,3.64 -3.56,3.64zM312.02,218.76c-1.42,0 -2.3,1 -2.3,2.62v1.01c0,1.62 0.88,2.62 2.3,2.62c1.41,0 2.29,-1 2.29,-2.62v-1.01c0,-1.62 -0.88,-2.62 -2.29,-2.62zM320.72,226.14c-1.91,0 -3.15,-1.38 -3.15,-3.49v-1.54c0,-2.11 1.24,-3.48 3.15,-3.48c1.19,0 2.07,0.51 2.43,1.41h0.13v-4.5h1.31v11.46h-1.26v-1.26h-0.15c-0.42,0.91 -1.29,1.4 -2.46,1.4zM321.1,224.96c1.35,0 2.22,-0.97 2.22,-2.5v-1.18c0,-1.52 -0.87,-2.49 -2.22,-2.49c-1.36,0 -2.23,0.97 -2.23,2.49v1.18c0,1.52 0.87,2.5 2.23,2.5zM332.67,223.88h1.26c-0.25,1.35 -1.56,2.27 -3.29,2.27c-2.26,0 -3.57,-1.36 -3.57,-3.7v-1.24c0,-2.17 1.38,-3.59 3.48,-3.59c2.14,0 3.4,1.41 3.4,3.8v0.8h-5.61v0.34c0,1.51 0.9,2.48 2.3,2.48c1.04,0 1.81,-0.44 2.03,-1.16zM330.54,218.72c-1.37,0 -2.2,0.94 -2.2,2.52h4.33c0,-1.57 -0.8,-2.52 -2.13,-2.52zM358.1,226.05c-0.75,0 -1.37,-0.63 -1.37,-1.41c0,-0.76 0.62,-1.39 1.37,-1.39c0.75,0 1.38,0.63 1.38,1.39c0,0.78 -0.63,1.41 -1.38,1.41zM369.54,223.88h1.25c-0.25,1.35 -1.55,2.27 -3.28,2.27c-2.26,0 -3.57,-1.36 -3.57,-3.7v-1.24c0,-2.17 1.38,-3.59 3.48,-3.59c2.14,0 3.4,1.41 3.4,3.8v0.8h-5.61v0.34c0,1.51 0.9,2.48 2.3,2.48c1.04,0 1.8,-0.44 2.03,-1.16zM367.41,218.72c-1.37,0 -2.2,0.94 -2.2,2.52h4.33c0,-1.57 -0.8,-2.52 -2.13,-2.52zM376.02,217.63c1.18,0 2.03,0.49 2.47,1.4h0.13v-1.26h1.28v11.01h-1.31v-4.05h-0.15c-0.36,0.9 -1.23,1.41 -2.42,1.41c-1.9,0 -3.15,-1.38 -3.15,-3.49v-1.53c0,-2.12 1.25,-3.49 3.15,-3.49zM376.39,218.81c-1.36,0 -2.22,0.98 -2.22,2.49v1.19c0,1.51 0.86,2.49 2.22,2.49c1.36,0 2.23,-0.97 2.23,-2.49v-1.19c0,-1.51 -0.87,-2.49 -2.23,-2.49zM389.12,217.77v8.23h-1.23v-1.45h-0.11c-0.44,1.03 -1.38,1.6 -2.63,1.6c-1.79,0 -2.77,-1.07 -2.77,-3.04v-5.34h1.29v5.01c0,1.49 0.61,2.19 1.89,2.19c1.36,0 2.27,-0.95 2.27,-2.35v-4.85zM394.14,226.14c-1.57,0 -2.62,-0.98 -2.62,-2.48c0,-1.45 1.05,-2.32 2.92,-2.42l2.26,-0.11v-0.74c0,-1.04 -0.63,-1.61 -1.77,-1.61c-0.95,0 -1.62,0.41 -1.83,1.11h-1.27c0.15,-1.32 1.43,-2.22 3.11,-2.22c1.94,0 3.04,0.99 3.04,2.7v5.64h-1.23v-1.24h-0.13c-0.39,0.88 -1.28,1.37 -2.48,1.37zM394.51,225.01c1.24,0 2.19,-0.82 2.19,-1.92v-0.97l-2.12,0.09c-1.15,0.06 -1.76,0.55 -1.76,1.41c0,0.86 0.65,1.39 1.69,1.39zM407.78,226h-6.82v-1.07h2.82v-9.32h-2.79v-1.07h4.08v10.39h2.71zM410.41,219.99c0,-1.43 1.21,-2.38 3.03,-2.38c1.71,0 2.87,0.86 3.02,2.23h-1.24c-0.15,-0.72 -0.84,-1.16 -1.81,-1.16c-1.04,0 -1.72,0.48 -1.72,1.23c0,0.63 0.43,0.99 1.46,1.22l1.16,0.26c1.6,0.37 2.33,1.07 2.33,2.26c0,1.52 -1.27,2.5 -3.22,2.5c-1.87,0 -3.1,-0.87 -3.25,-2.28h1.32c0.19,0.76 0.91,1.2 1.98,1.2c1.12,0 1.83,-0.51 1.83,-1.3c0,-0.65 -0.4,-1 -1.45,-1.24l-1.22,-0.28c-1.49,-0.34 -2.22,-1.09 -2.22,-2.26zM428.35,218.13c0,-1.93 1.43,-3.31 3.42,-3.31c2.01,0 3.39,1.25 3.39,3.08c0,1.13 -0.51,2.05 -2.26,3.95l-2.58,2.81v0.13h5.02v1.21h-6.93v-0.93l3.7,-4.12c1.39,-1.55 1.73,-2.14 1.73,-3c0,-1.18 -0.83,-1.95 -2.11,-1.95c-1.26,0 -2.09,0.84 -2.09,2.13v0.05h-1.29zM90.81,246.25c-2.382,0 -3.695,-2.03 -3.695,-5.72c0,-3.69 1.313,-5.72 3.695,-5.72c2.375,0 3.696,2.03 3.696,5.72c0,3.69 -1.321,5.72 -3.696,5.72zM88.443,240.53c0,0.43 0.023,0.83 0.053,1.21l4.416,-3.69c-0.356,-1.36 -1.07,-2.06 -2.102,-2.06c-1.547,0 -2.367,1.57 -2.367,4.54zM90.81,245.07c1.548,0 2.36,-1.57 2.36,-4.54c0,-0.44 -0.015,-0.84 -0.053,-1.22l-4.401,3.72c0.357,1.34 1.063,2.04 2.094,2.04zM100.028,246.25c-2.383,0 -3.695,-2.03 -3.695,-5.72c0,-3.69 1.312,-5.72 3.695,-5.72c2.375,0 3.695,2.03 3.695,5.72c0,3.69 -1.32,5.72 -3.695,5.72zM97.66,240.53c0,0.43 0.023,0.83 0.053,1.21l4.416,-3.69c-0.356,-1.36 -1.069,-2.06 -2.101,-2.06c-1.548,0 -2.368,1.57 -2.368,4.54zM100.028,245.07c1.547,0 2.359,-1.57 2.359,-4.54c0,-0.44 -0.015,-0.84 -0.053,-1.22l-4.4,3.72c0.356,1.34 1.062,2.04 2.094,2.04z" fill="#00B51D"/>
<path d="M338.01,220.52c0,-2.57 0.78,-4.81 2.29,-6.52h1.28c-1.57,2.2 -2.23,4.14 -2.23,6.52c0,2.38 0.66,4.32 2.23,6.53h-1.28c-1.51,-1.72 -2.29,-3.95 -2.29,-6.53zM350.54,220.52c0,2.58 -0.77,4.81 -2.28,6.53h-1.29c1.57,-2.21 2.23,-4.15 2.23,-6.53c0,-2.38 -0.66,-4.32 -2.23,-6.52h1.29c1.51,1.71 2.28,3.95 2.28,6.52zM420.97,220.52c0,-2.57 0.77,-4.81 2.28,-6.52h1.28c-1.57,2.2 -2.23,4.14 -2.23,6.52c0,2.38 0.66,4.32 2.23,6.53h-1.28c-1.51,-1.72 -2.28,-3.95 -2.28,-6.53zM110.891,240.52c0,2.58 -0.774,4.81 -2.283,6.53h-1.283c1.571,-2.21 2.231,-4.15 2.231,-6.53c0,-2.38 -0.66,-4.32 -2.231,-6.52h1.283c1.509,1.71 2.283,3.95 2.283,6.52z" fill="#EEEEEE"/>
</g>
<g id="], } })">
<path d="M74.713,245.01v13.03h-4.014v-1.04h2.754v-10.95h-2.739v-1.04zM51.278,279.04v-1.04h0.827c1.138,0 1.358,-0.27 1.358,-1.59v-2.02c0,-1.06 0.797,-1.77 2.337,-1.8v-0.12c-1.54,-0.04 -2.337,-0.74 -2.337,-1.81v-2.02c0,-1.32 -0.22,-1.59 -1.358,-1.59h-0.827v-1.04h1.032c1.844,0 2.428,0.59 2.428,2.46v1.7c0,1.18 0.683,1.85 2.458,1.67v1.37c-1.775,-0.18 -2.458,0.5 -2.458,1.67v1.7c0,1.88 -0.584,2.46 -2.428,2.46zM32.844,299.04v-1.04h0.827c1.138,0 1.358,-0.27 1.358,-1.59v-2.02c0,-1.06 0.797,-1.77 2.337,-1.8v-0.12c-1.54,-0.04 -2.337,-0.74 -2.337,-1.81v-2.02c0,-1.32 -0.22,-1.59 -1.358,-1.59h-0.827v-1.04h1.032c1.843,0 2.428,0.59 2.428,2.46v1.7c0,1.18 0.682,1.85 2.458,1.67v1.37c-1.776,-0.18 -2.458,0.5 -2.458,1.67v1.7c0,1.88 -0.585,2.46 -2.428,2.46zM46.674,292.52c0,2.58 -0.774,4.81 -2.284,6.53h-1.282c1.571,-2.21 2.231,-4.15 2.231,-6.53c0,-2.38 -0.66,-4.32 -2.231,-6.52h1.282c1.51,1.71 2.284,3.95 2.284,6.52z" fill="#EEEEEE"/>
<path d="M81.198,259.52h-1.221l0.941,-4.93h1.707z" fill="white"/>
</g>
</g>
</g>
</g>
</g></svg>