<svg viewBox="0 0 304 193" x="0" y="0" fill="none" xmlns="http://www.w3.org/2000/svg"><defs><filter id="filter1_d_224_101557" x="-33.81683" y="-30.434999999999945" width="371.634" height="260.634" filterUnits="userSpaceOnUse" color-interpolation-filters="sRGB" xmlns="http://www.w3.org/2000/svg">
<feFlood flood-opacity="0" result="BackgroundImageFix"/>
<feColorMatrix in="SourceAlpha" type="matrix" values="0 0 0 0 0 0 0 0 0 0 0 0 0 0 0 0 0 0 127 0" result="hardAlpha"/>
<feOffset dy="3.38168"/>
<feGaussianBlur stdDeviation="16.9084"/>
<feColorMatrix type="matrix" values="0 0 0 0 0 0 0 0 0 0 0 0 0 0 0 0 0 0 0.05 0"/>
<feBlend mode="normal" in2="BackgroundImageFix" result="effect1_dropShadow_224_101557"/>
<feBlend mode="normal" in="SourceGraphic" in2="effect1_dropShadow_224_101557" result="shape"/>
</filter></defs><g id="Frame_15" filter="url(#filter1_d_224_101557)" xmlns="http://www.w3.org/2000/svg">
<rect x="0" y="0" width="304" height="193" rx="13.7492" fill="#171717"/>
<g id="Frame_16">
<rect width="303" height="24" transform="translate(1, 1)" fill="#313131"/>
<g id="Frame_17">
<path id="api.check.ts" d="M125.245,15.08c-0.888,0 -1.481,-0.56 -1.481,-1.4c0,-0.83 0.593,-1.32 1.653,-1.37l1.279,-0.07v-0.42c0,-0.58 -0.356,-0.9 -1.004,-0.9c-0.537,0 -0.915,0.22 -1.035,0.62h-0.717c0.086,-0.74 0.807,-1.25 1.76,-1.25c1.095,0 1.722,0.55 1.722,1.52v3.19h-0.696v-0.7h-0.073c-0.223,0.5 -0.729,0.78 -1.408,0.78zM125.456,14.44c0.704,0 1.24,-0.47 1.24,-1.09v-0.55l-1.197,0.06c-0.653,0.03 -0.996,0.31 -0.996,0.79c0,0.49 0.365,0.79 0.953,0.79zM131.225,10.26c1.077,0 1.781,0.78 1.781,1.98v0.87c0,1.19 -0.704,1.97 -1.781,1.97c-0.674,0 -1.168,-0.29 -1.37,-0.8h-0.081v2.29h-0.743v-6.23h0.721v0.71h0.078c0.244,-0.51 0.729,-0.79 1.395,-0.79zM131.014,10.93c-0.768,0 -1.257,0.55 -1.257,1.41v0.67c0,0.87 0.489,1.41 1.257,1.41c0.769,0 1.258,-0.55 1.258,-1.41v-0.67c0,-0.86 -0.489,-1.41 -1.258,-1.41zM136.23,9.2c-0.344,0 -0.606,-0.26 -0.606,-0.6c0,-0.34 0.262,-0.6 0.606,-0.6c0.343,0 0.605,0.26 0.605,0.6c0,0.34 -0.262,0.6 -0.605,0.6zM138.183,15h-3.859v-0.61h1.597v-3.44h-1.585v-0.61h2.306v4.05h1.541zM141.364,15.03c-0.425,0 -0.778,-0.36 -0.778,-0.8c0,-0.43 0.353,-0.79 0.778,-0.79c0.425,0 0.777,0.36 0.777,0.79c0,0.44 -0.352,0.8 -0.777,0.8zM148.519,11.79h-0.721c-0.09,-0.54 -0.545,-0.89 -1.146,-0.89c-0.812,0 -1.262,0.56 -1.262,1.56v0.42c0,1 0.45,1.55 1.262,1.55c0.601,0 1.056,-0.34 1.146,-0.87h0.721c-0.116,0.95 -0.824,1.53 -1.854,1.53c-1.267,0 -2.005,-0.78 -2.005,-2.12v-0.61c0,-1.33 0.738,-2.11 2.005,-2.11c1.03,0 1.734,0.59 1.854,1.54zM149.884,15v-6.49h0.704v2.66h0.06c0.245,-0.58 0.781,-0.91 1.494,-0.91c1.013,0 1.563,0.61 1.563,1.72v3.02h-0.73v-2.83c0,-0.84 -0.344,-1.24 -1.073,-1.24c-0.769,0 -1.288,0.54 -1.288,1.33v2.74zM158.267,13.8h0.709c-0.142,0.77 -0.88,1.29 -1.859,1.29c-1.28,0 -2.022,-0.77 -2.022,-2.1v-0.7c0,-1.23 0.785,-2.03 1.97,-2.03c1.211,0 1.924,0.8 1.924,2.15v0.45h-3.173v0.19c0,0.86 0.507,1.4 1.301,1.4c0.588,0 1.022,-0.24 1.15,-0.65zM157.061,10.88c-0.777,0 -1.245,0.54 -1.245,1.43h2.451c0,-0.89 -0.455,-1.43 -1.206,-1.43zM164.165,11.79h-0.721c-0.09,-0.54 -0.545,-0.89 -1.146,-0.89c-0.812,0 -1.262,0.56 -1.262,1.56v0.42c0,1 0.45,1.55 1.262,1.55c0.601,0 1.056,-0.34 1.146,-0.87h0.721c-0.116,0.95 -0.824,1.53 -1.854,1.53c-1.267,0 -2.005,-0.78 -2.005,-2.12v-0.61c0,-1.33 0.738,-2.11 2.005,-2.11c1.03,0 1.734,0.59 1.854,1.54zM166.663,12.43l2.031,-2.09h0.884l-1.807,1.85l1.936,2.81h-0.867l-1.589,-2.31l-0.644,0.61v1.7h-0.73v-6.49h0.73v3.92zM172.655,15.03c-0.425,0 -0.777,-0.36 -0.777,-0.8c0,-0.43 0.352,-0.79 0.777,-0.79c0.425,0 0.778,0.36 0.778,0.79c0,0.44 -0.353,0.8 -0.778,0.8zM177.077,9.09h0.721v1.26h1.889v0.63h-1.881v2.62c0,0.51 0.357,0.79 1.014,0.79c0.261,0 0.729,-0.02 0.854,-0.03v0.62c-0.116,0.02 -0.683,0.04 -0.906,0.04c-1.155,0 -1.691,-0.44 -1.691,-1.41v-2.63h-1.241v-0.63h1.241zM181.39,11.6c0,-0.81 0.687,-1.35 1.713,-1.35c0.971,0 1.627,0.49 1.713,1.26h-0.704c-0.086,-0.4 -0.476,-0.65 -1.022,-0.65c-0.592,0 -0.974,0.27 -0.974,0.7c0,0.35 0.24,0.56 0.824,0.68l0.657,0.15c0.906,0.21 1.318,0.61 1.318,1.28c0,0.86 -0.717,1.42 -1.82,1.42c-1.056,0 -1.756,-0.5 -1.838,-1.3h0.743c0.107,0.43 0.519,0.68 1.12,0.68c0.636,0 1.039,-0.29 1.039,-0.73c0,-0.37 -0.227,-0.57 -0.82,-0.7l-0.691,-0.16c-0.841,-0.19 -1.258,-0.62 -1.258,-1.28z" fill="#D1D5DB"/>
</g>
<g id="Frame_18">
<rect id="Rectangle" x="12" y="10" width="7" height="7" rx="3.5" fill="white" fill-opacity="0.4"/>
<rect id="Rectangle_2" x="21" y="10" width="7" height="7" rx="3.5" fill="white" fill-opacity="0.4"/>
<rect id="Rectangle_3" x="31" y="10" width="7" height="7" rx="3.5" fill="white" fill-opacity="0.4"/>
</g>
</g>
<g id="Frame_19">
<g id="Frame_20">
<g id="Frame_21">
<path id="new" d="M18.8215,47v-4.72h0.7085v0.83h0.0609c0.2521,-0.58 0.7911,-0.91 1.5083,-0.91c1.0258,0 1.5822,0.61 1.5822,1.74v3.06h-0.7389v-2.87c0,-0.86 -0.3478,-1.26 -1.0824,-1.26c-0.778,0 -1.2996,0.55 -1.2996,1.35v2.78zM27.3054,45.78h0.7173c-0.1435,0.78 -0.8911,1.31 -1.8822,1.31c-1.2953,0 -2.0473,-0.78 -2.0473,-2.12v-0.71c0,-1.25 0.7955,-2.06 1.9952,-2.06c1.2257,0 1.9473,0.81 1.9473,2.17v0.47h-3.2122v0.19c0,0.86 0.5129,1.42 1.317,1.42c0.5955,0 1.0345,-0.25 1.1649,-0.67zM26.084,42.83c-0.7867,0 -1.2605,0.54 -1.2605,1.44h2.4819c0,-0.9 -0.4607,-1.44 -1.2214,-1.44zM23.2986,54.28l-1.0127,4.72h-0.7086l-0.7997,-3.68h-0.0522l-0.7998,3.68h-0.7085l-1.0128,-4.72h0.7216l0.6389,3.79h0.0783l0.7606,-3.78h0.6955l0.7607,3.78h0.0782l0.639,-3.79z" fill="white"/>
<g id="ApiCheck('hello-api-1', {">
<path d="M43.3728,47l-0.5433,-1.8h-2.1821l-0.5477,1.8h-0.778l2.0212,-6.27h0.8172l2.0212,6.27zM41.7297,41.65l-0.8823,2.89h1.7821l-0.878,-2.89zM47.3274,42.21c1.0911,0 1.8039,0.78 1.8039,2v0.87c0,1.21 -0.7128,2 -1.8039,2c-0.6824,0 -1.1823,-0.29 -1.3866,-0.81h-0.0826v2.32h-0.7519v-6.31h0.7302v0.73h0.0783c0.2477,-0.53 0.7389,-0.8 1.4126,-0.8zM47.1144,42.88c-0.778,0 -1.2735,0.56 -1.2735,1.43v0.68c0,0.87 0.4955,1.43 1.2735,1.43c0.7781,0 1.2736,-0.56 1.2736,-1.43v-0.68c0,-0.87 -0.4955,-1.43 -1.2736,-1.43zM52.3948,41.13c-0.3477,0 -0.6129,-0.26 -0.6129,-0.61c0,-0.34 0.2652,-0.61 0.6129,-0.61c0.3478,0 0.6129,0.27 0.6129,0.61c0,0.35 -0.2651,0.61 -0.6129,0.61zM54.3726,47h-3.9077v-0.61h1.617v-3.49h-1.604v-0.62h2.3342v4.11h1.5605zM57.7361,46.4c0.8345,0 1.3648,-0.5 1.3866,-1.3h0.7737c0,1.21 -0.878,2.03 -2.1603,2.03c-1.4736,0 -2.3299,-0.99 -2.3299,-2.71v-1.11c0,-1.72 0.8563,-2.71 2.3299,-2.71c1.3214,0 2.1386,0.8 2.1646,2.14h-0.778c-0.0261,-0.85 -0.5868,-1.42 -1.391,-1.42c-1.0128,0 -1.5431,0.69 -1.5431,1.99v1.11c0,1.3 0.5303,1.98 1.5475,1.98zM60.9387,47v-6.57h0.7129v2.69h0.0608c0.2478,-0.59 0.7912,-0.92 1.5127,-0.92c1.0258,0 1.5822,0.62 1.5822,1.74v3.06h-0.7389v-2.87c0,-0.85 -0.3478,-1.25 -1.0867,-1.25c-0.7781,0 -1.304,0.54 -1.304,1.35v2.77zM69.427,45.78h0.717c-0.143,0.78 -0.891,1.31 -1.882,1.31c-1.295,0 -2.047,-0.78 -2.047,-2.12v-0.71c0,-1.25 0.795,-2.06 1.995,-2.06c1.226,0 1.947,0.81 1.947,2.17v0.47h-3.212v0.19c0,0.86 0.513,1.42 1.317,1.42c0.596,0 1.035,-0.25 1.165,-0.67zM68.206,42.83c-0.787,0 -1.261,0.54 -1.261,1.44h2.482c0,-0.9 -0.461,-1.44 -1.221,-1.44zM75.399,43.75h-0.731c-0.091,-0.55 -0.552,-0.9 -1.16,-0.9c-0.822,0 -1.278,0.56 -1.278,1.58v0.42c0,1.02 0.456,1.57 1.278,1.57c0.608,0 1.069,-0.34 1.16,-0.88h0.731c-0.118,0.96 -0.835,1.55 -1.878,1.55c-1.283,0 -2.03,-0.79 -2.03,-2.14v-0.62c0,-1.35 0.747,-2.14 2.03,-2.14c1.043,0 1.756,0.59 1.878,1.56zM77.927,44.4l2.056,-2.12h0.896l-1.83,1.87l1.96,2.85h-0.878l-1.608,-2.34l-0.652,0.62v1.72h-0.739v-6.57h0.739v3.97z" fill="#00B51D"/>
<path d="M83.047,43.86c0,-1.47 0.443,-2.75 1.308,-3.74h0.735c-0.9,1.27 -1.278,2.38 -1.278,3.74c0,1.37 0.378,2.47 1.278,3.74h-0.735c-0.865,-0.98 -1.308,-2.26 -1.308,-3.74zM43.4467,59.6h-0.5912c-1.0562,0 -1.3909,-0.34 -1.3909,-1.41v-0.98c0,-0.67 -0.3912,-1.06 -1.4083,-0.95v-0.79c1.0171,0.1 1.4083,-0.28 1.4083,-0.96v-0.97c0,-1.07 0.3347,-1.41 1.3909,-1.41h0.5912v0.6h-0.4738c-0.652,0 -0.7781,0.15 -0.7781,0.91v1.16c0,0.61 -0.4564,1.01 -1.3388,1.03v0.07c0.8824,0.02 1.3388,0.42 1.3388,1.03v1.16c0,0.76 0.1261,0.91 0.7781,0.91h0.4738z" fill="#EEEEEE"/>
<path d="M89.671,43.56h-0.792v-2.83h0.792zM92.621,47v-6.57h0.713v2.69h0.061c0.248,-0.59 0.791,-0.92 1.512,-0.92c1.026,0 1.583,0.62 1.583,1.74v3.06h-0.739v-2.87c0,-0.85 -0.348,-1.25 -1.087,-1.25c-0.778,0 -1.304,0.54 -1.304,1.35v2.77zM101.109,45.78h0.718c-0.144,0.78 -0.892,1.31 -1.883,1.31c-1.295,0 -2.047,-0.78 -2.047,-2.12v-0.71c0,-1.25 0.796,-2.06 1.995,-2.06c1.226,0 1.948,0.81 1.948,2.17v0.47h-3.213v0.19c0,0.86 0.513,1.42 1.317,1.42c0.596,0 1.035,-0.25 1.165,-0.67zM99.888,42.83c-0.787,0 -1.261,0.54 -1.261,1.44h2.482c0,-0.9 -0.46,-1.44 -1.221,-1.44zM107.176,47h-3.907v-0.61h1.612v-5.34h-1.599v-0.62h2.338v5.96h1.556zM112.457,47h-3.908v-0.61h1.613v-5.34h-1.6v-0.62h2.339v5.96h1.556zM115.677,47.09c-1.248,0 -2.043,-0.82 -2.043,-2.09v-0.71c0,-1.28 0.795,-2.09 2.043,-2.09c1.247,0 2.043,0.81 2.043,2.09v0.71c0,1.27 -0.796,2.09 -2.043,2.09zM115.677,42.85c-0.809,0 -1.313,0.58 -1.313,1.5v0.58c0,0.93 0.504,1.5 1.313,1.5c0.808,0 1.313,-0.57 1.313,-1.5v-0.58c0,-0.92 -0.505,-1.5 -1.313,-1.5zM123.257,44.56h-4.599v-0.69h4.599zM125.76,47.08c-0.9,0 -1.5,-0.56 -1.5,-1.42c0,-0.83 0.6,-1.33 1.673,-1.39l1.296,-0.06v-0.43c0,-0.59 -0.361,-0.91 -1.017,-0.91c-0.544,0 -0.926,0.23 -1.048,0.63h-0.726c0.087,-0.76 0.817,-1.27 1.782,-1.27c1.109,0 1.743,0.56 1.743,1.54v3.23h-0.704v-0.7h-0.074c-0.226,0.5 -0.739,0.78 -1.425,0.78zM125.973,46.43c0.712,0 1.256,-0.47 1.256,-1.1v-0.56l-1.213,0.06c-0.661,0.03 -1.008,0.31 -1.008,0.81c0,0.49 0.369,0.79 0.965,0.79zM131.814,42.21c1.091,0 1.804,0.78 1.804,2v0.87c0,1.21 -0.713,2 -1.804,2c-0.683,0 -1.183,-0.29 -1.387,-0.81h-0.083v2.32h-0.752v-6.31h0.731v0.73h0.078c0.248,-0.53 0.739,-0.8 1.413,-0.8zM131.601,42.88c-0.778,0 -1.274,0.56 -1.274,1.43v0.68c0,0.87 0.496,1.43 1.274,1.43c0.778,0 1.273,-0.56 1.273,-1.43v-0.68c0,-0.87 -0.495,-1.43 -1.273,-1.43zM136.881,41.13c-0.348,0 -0.613,-0.26 -0.613,-0.61c0,-0.34 0.265,-0.61 0.613,-0.61c0.348,0 0.613,0.27 0.613,0.61c0,0.35 -0.265,0.61 -0.613,0.61zM138.859,47h-3.908v-0.61h1.617v-3.49h-1.604v-0.62h2.334v4.11h1.561zM144.378,44.56h-4.599v-0.69h4.599zM149.728,47h-4.373v-0.67h1.852v-4.73h-0.069l-1.796,1.16v-0.82l1.869,-1.21h0.752v5.6h1.765zM153.035,43.56h-0.791v-2.83h0.791z" fill="#FD4B28"/>
<path d="M157.524,48.44h-0.699l0.539,-2.82h0.978z" fill="white"/>
</g>
<g id="name:">
<path d="M18.8215,71v-4.72h0.7085v0.83h0.0609c0.2521,-0.58 0.7911,-0.91 1.5083,-0.91c1.0258,0 1.5822,0.61 1.5822,1.74v3.06h-0.7389v-2.87c0,-0.86 -0.3478,-1.26 -1.0824,-1.26c-0.778,0 -1.2996,0.55 -1.2996,1.35v2.78zM25.5537,71.08c-0.8998,0 -1.4996,-0.56 -1.4996,-1.42c0,-0.83 0.5998,-1.33 1.6735,-1.39l1.2953,-0.06v-0.43c0,-0.59 -0.3608,-0.91 -1.0171,-0.91c-0.5434,0 -0.9259,0.23 -1.0476,0.63h-0.7259c0.087,-0.76 0.8172,-1.27 1.7822,-1.27c1.1084,0 1.743,0.56 1.743,1.54v3.23h-0.7042v-0.7h-0.0739c-0.226,0.5 -0.7389,0.78 -1.4257,0.78zM25.7667,70.43c0.7129,0 1.2562,-0.47 1.2562,-1.1v-0.56l-1.2127,0.06c-0.6607,0.03 -1.0085,0.31 -1.0085,0.81c0,0.49 0.3695,0.79 0.965,0.79zM33.5856,67.53v3.47h-0.6651v-3.26c0,-0.57 -0.2086,-0.87 -0.6042,-0.87c-0.4129,0 -0.665,0.36 -0.665,0.95v3.18h-0.6607v-3.26c0,-0.57 -0.2087,-0.87 -0.6086,-0.87c-0.4172,0 -0.678,0.36 -0.678,0.95v3.18h-0.6651v-4.72h0.6607v0.67h0.0783c0.1173,-0.47 0.4564,-0.75 0.8997,-0.75c0.4434,0 0.7564,0.27 0.8563,0.74h0.0783c0.1217,-0.46 0.4998,-0.74 0.9736,-0.74c0.6564,0 0.9998,0.45 0.9998,1.33zM37.8662,69.78h0.7172c-0.1434,0.78 -0.891,1.31 -1.8821,1.31c-1.2953,0 -2.0473,-0.78 -2.0473,-2.12v-0.71c0,-1.25 0.7954,-2.06 1.9951,-2.06c1.2258,0 1.9474,0.81 1.9474,2.17v0.47h-3.2123v0.19c0,0.86 0.513,1.42 1.3171,1.42c0.5955,0 1.0345,-0.25 1.1649,-0.67zM36.6448,66.83c-0.7868,0 -1.2606,0.54 -1.2606,1.44h2.482c0,-0.9 -0.4607,-1.44 -1.2214,-1.44z" fill="#EEEEEE"/>
<path d="M41.873,67.69c-0.4303,0 -0.7867,-0.37 -0.7867,-0.81c0,-0.44 0.3564,-0.8 0.7867,-0.8c0.4303,0 0.7868,0.36 0.7868,0.8c0,0.44 -0.3565,0.81 -0.7868,0.81zM41.873,71.03c-0.4303,0 -0.7867,-0.36 -0.7867,-0.81c0,-0.44 0.3564,-0.8 0.7867,-0.8c0.4303,0 0.7868,0.36 0.7868,0.8c0,0.45 -0.3565,0.81 -0.7868,0.81z" fill="white"/>
</g>
<g id="'Hello API',">
<path d="M63.147,61.56h-0.7911v-2.83h0.7911zM70.118,65h-0.76v-2.85h-2.652v2.85h-0.761v-6.27h0.761v2.71h2.652v-2.71h0.76zM74.586,63.78h0.717c-0.143,0.78 -0.891,1.31 -1.882,1.31c-1.295,0 -2.047,-0.78 -2.047,-2.12v-0.71c0,-1.25 0.795,-2.06 1.995,-2.06c1.226,0 1.947,0.81 1.947,2.17v0.47h-3.212v0.19c0,0.86 0.513,1.42 1.317,1.42c0.595,0 1.034,-0.25 1.165,-0.67zM73.364,60.83c-0.786,0 -1.26,0.54 -1.26,1.44h2.482c0,-0.9 -0.461,-1.44 -1.222,-1.44zM80.653,65h-3.908v-0.61h1.613v-5.34h-1.6v-0.62h2.339v5.96h1.556zM85.933,65h-3.907v-0.61h1.612v-5.34h-1.599v-0.62h2.338v5.96h1.556zM89.153,65.09c-1.247,0 -2.043,-0.82 -2.043,-2.09v-0.71c0,-1.28 0.796,-2.09 2.043,-2.09c1.248,0 2.043,0.81 2.043,2.09v0.71c0,1.27 -0.795,2.09 -2.043,2.09zM89.153,60.85c-0.808,0 -1.312,0.58 -1.312,1.5v0.58c0,0.93 0.504,1.5 1.312,1.5c0.809,0 1.313,-0.57 1.313,-1.5v-0.58c0,-0.92 -0.504,-1.5 -1.313,-1.5zM101.336,65l-0.544,-1.8h-2.182l-0.548,1.8h-0.778l2.022,-6.27h0.817l2.021,6.27zM99.692,59.65l-0.882,2.89h1.782l-0.878,-2.89zM103.104,58.73h2.086c1.217,0 2.013,0.79 2.013,2.01c0,1.21 -0.804,2.01 -2.03,2.01h-1.3v2.25h-0.769zM103.873,59.41v2.66h1.126c0.913,0 1.426,-0.48 1.426,-1.33c0,-0.86 -0.513,-1.33 -1.426,-1.33zM111.927,65h-3.304v-0.68h1.269v-4.91h-1.269v-0.68h3.304v0.68h-1.27v4.91h1.27zM115.951,61.56h-0.791v-2.83h0.791z" fill="#FD4B28"/>
<path d="M120.44,66.44h-0.7l0.539,-2.82h0.978z" fill="white"/>
</g>
<g id="activated:">
<path d="M30.8341,77.08c-0.8998,0 -1.4996,-0.56 -1.4996,-1.42c0,-0.83 0.5998,-1.33 1.6735,-1.39l1.2953,-0.06v-0.43c0,-0.59 -0.3608,-0.91 -1.0171,-0.91c-0.5434,0 -0.9259,0.23 -1.0476,0.63h-0.7259c0.0869,-0.76 0.8172,-1.27 1.7822,-1.27c1.1084,0 1.743,0.56 1.743,1.54v3.23h-0.7042v-0.7h-0.0739c-0.226,0.5 -0.7389,0.78 -1.4257,0.78zM31.0471,76.43c0.7129,0 1.2562,-0.47 1.2562,-1.1v-0.56l-1.2127,0.06c-0.6607,0.03 -1.0085,0.31 -1.0085,0.81c0,0.49 0.3695,0.79 0.965,0.79zM38.5573,73.75h-0.7302c-0.0913,-0.55 -0.552,-0.9 -1.1606,-0.9c-0.8215,0 -1.2779,0.56 -1.2779,1.58v0.42c0,1.02 0.4564,1.57 1.2779,1.57c0.6086,0 1.0693,-0.34 1.1606,-0.88h0.7302c-0.1173,0.96 -0.8345,1.55 -1.8777,1.55c-1.2823,0 -2.0299,-0.79 -2.0299,-2.14v-0.62c0,-1.35 0.7476,-2.14 2.0299,-2.14c1.0432,0 1.756,0.59 1.8777,1.56zM41.0689,71.02h0.7302v1.28h1.9126v0.63h-1.9039v2.66c0,0.51 0.3608,0.79 1.0258,0.79c0.2652,0 0.739,-0.01 0.865,-0.03v0.63c-0.1173,0.02 -0.6911,0.04 -0.9171,0.04c-1.1693,0 -1.7126,-0.44 -1.7126,-1.42v-2.67h-1.2562v-0.63h1.2562zM47.236,71.13c-0.3477,0 -0.6129,-0.26 -0.6129,-0.61c0,-0.34 0.2652,-0.61 0.6129,-0.61c0.3477,0 0.6129,0.27 0.6129,0.61c0,0.35 -0.2652,0.61 -0.6129,0.61zM49.2138,77h-3.9077v-0.61h1.6169v-3.49h-1.6039v-0.62h2.3342v4.11h1.5605zM50.3039,72.28h0.7911l1.3171,3.93h0.0565l1.3083,-3.93h0.7868l-1.7213,4.72h-0.8128zM57.236,77.08c-0.8997,0 -1.4996,-0.56 -1.4996,-1.42c0,-0.83 0.5999,-1.33 1.6735,-1.39l1.2953,-0.06v-0.43c0,-0.59 -0.3607,-0.91 -1.0171,-0.91c-0.5433,0 -0.9258,0.23 -1.0476,0.63h-0.7259c0.087,-0.76 0.8172,-1.27 1.7822,-1.27c1.1084,0 1.743,0.56 1.743,1.54v3.23h-0.7041v-0.7h-0.0739c-0.2261,0.5 -0.739,0.78 -1.4258,0.78zM57.449,76.43c0.7129,0 1.2562,-0.47 1.2562,-1.1v-0.56l-1.2127,0.06c-0.6607,0.03 -1.0084,0.31 -1.0084,0.81c0,0.49 0.3694,0.79 0.9649,0.79zM62.1904,71.02h0.7303v1.28h1.9125v0.63h-1.9038v2.66c0,0.51 0.3607,0.79 1.0258,0.79c0.2651,0 0.7389,-0.01 0.865,-0.03v0.63c-0.1174,0.02 -0.6911,0.04 -0.9172,0.04c-1.1692,0 -1.7126,-0.44 -1.7126,-1.42v-2.67h-1.2562v-0.63h1.2562zM69.549,75.78h0.717c-0.144,0.78 -0.891,1.31 -1.882,1.31c-1.296,0 -2.048,-0.78 -2.048,-2.12v-0.71c0,-1.25 0.796,-2.06 1.995,-2.06c1.226,0 1.948,0.81 1.948,2.17v0.47h-3.212v0.19c0,0.86 0.512,1.42 1.317,1.42c0.595,0 1.034,-0.25 1.165,-0.67zM68.327,72.83c-0.787,0 -1.26,0.54 -1.26,1.44h2.482c0,-0.9 -0.461,-1.44 -1.222,-1.44zM73.26,77.08c-1.091,0 -1.804,-0.79 -1.804,-2v-0.88c0,-1.21 0.713,-1.99 1.804,-1.99c0.682,0 1.186,0.29 1.391,0.8h0.078v-2.58h0.752v6.57h-0.726v-0.72h-0.083c-0.243,0.52 -0.738,0.8 -1.412,0.8zM73.477,76.4c0.774,0 1.274,-0.55 1.274,-1.43v-0.67c0,-0.87 -0.5,-1.43 -1.274,-1.43c-0.778,0 -1.278,0.56 -1.278,1.43v0.67c0,0.87 0.5,1.43 1.278,1.43z" fill="#EEEEEE"/>
<path d="M78.836,73.69c-0.431,0 -0.787,-0.37 -0.787,-0.81c0,-0.44 0.356,-0.8 0.787,-0.8c0.43,0 0.786,0.36 0.786,0.8c0,0.44 -0.356,0.81 -0.786,0.81zM78.836,77.03c-0.431,0 -0.787,-0.36 -0.787,-0.81c0,-0.44 0.356,-0.8 0.787,-0.8c0.43,0 0.786,0.36 0.786,0.8c0,0.45 -0.356,0.81 -0.786,0.81z" fill="white"/>
</g>
<g id="true,">
<path d="M88.947,71.02h0.731v1.28h1.912v0.63h-1.904v2.66c0,0.51 0.361,0.79 1.026,0.79c0.265,0 0.739,-0.01 0.865,-0.03v0.63c-0.117,0.02 -0.691,0.04 -0.917,0.04c-1.169,0 -1.713,-0.44 -1.713,-1.42v-2.67h-1.256v-0.63h1.256zM94.845,74.89v1.52h1.46v0.59h-3.134v-0.59h0.952v-3.54h-1.047v-0.59h1.76v1.21h0.096c0.174,-0.88 0.761,-1.33 1.669,-1.33c0.27,0 0.526,0.04 0.682,0.11v0.83c-0.217,-0.08 -0.521,-0.13 -0.778,-0.13c-1.043,0 -1.66,0.72 -1.66,1.92zM102.242,72.28v4.72h-0.708v-0.83h-0.061c-0.252,0.59 -0.791,0.92 -1.508,0.92c-1.026,0 -1.583,-0.62 -1.583,-1.75v-3.06h0.739v2.88c0,0.85 0.348,1.25 1.083,1.25c0.778,0 1.299,-0.54 1.299,-1.35v-2.78zM106.866,75.78h0.717c-0.143,0.78 -0.891,1.31 -1.882,1.31c-1.295,0 -2.047,-0.78 -2.047,-2.12v-0.71c0,-1.25 0.795,-2.06 1.995,-2.06c1.226,0 1.947,0.81 1.947,2.17v0.47h-3.212v0.19c0,0.86 0.513,1.42 1.317,1.42c0.596,0 1.035,-0.25 1.165,-0.67zM105.645,72.83c-0.787,0 -1.261,0.54 -1.261,1.44h2.482c0,-0.9 -0.461,-1.44 -1.221,-1.44z" fill="#00B51D"/>
<path d="M110.477,78.44h-0.699l0.539,-2.82h0.978z" fill="white"/>
</g>
<g id="request: { method:">
<path d="M31.1253,86.89v1.52h1.4605v0.59h-3.1339v-0.59h0.9519v-3.54h-1.0476v-0.59h1.7604v1.21h0.0957c0.1738,-0.88 0.7606,-1.33 1.6691,-1.33c0.2695,0 0.526,0.04 0.6824,0.11v0.83c-0.2173,-0.08 -0.5216,-0.13 -0.778,-0.13c-1.0432,0 -1.6605,0.72 -1.6605,1.92zM37.8662,87.78h0.7172c-0.1434,0.78 -0.891,1.31 -1.8821,1.31c-1.2953,0 -2.0473,-0.78 -2.0473,-2.12v-0.71c0,-1.25 0.7954,-2.06 1.9951,-2.06c1.2258,0 1.9474,0.81 1.9474,2.17v0.47h-3.2123v0.19c0,0.86 0.513,1.42 1.3171,1.42c0.5955,0 1.0345,-0.25 1.1649,-0.67zM36.6448,84.83c-0.7868,0 -1.2606,0.54 -1.2606,1.44h2.482c0,-0.9 -0.4607,-1.44 -1.2214,-1.44zM41.5774,84.21c0.6738,0 1.165,0.27 1.4127,0.8h0.0783v-0.73h0.7302v6.31h-0.752v-2.32h-0.0826c-0.2042,0.52 -0.7041,0.81 -1.3866,0.81c-1.091,0 -1.8038,-0.79 -1.8038,-2v-0.87c0,-1.22 0.7128,-2 1.8038,-2zM41.7904,84.88c-0.778,0 -1.2736,0.56 -1.2736,1.43v0.68c0,0.87 0.4956,1.43 1.2736,1.43c0.7781,0 1.2736,-0.56 1.2736,-1.43v-0.68c0,-0.87 -0.4955,-1.43 -1.2736,-1.43zM49.0834,84.28v4.72h-0.7086v-0.83h-0.0608c-0.2521,0.59 -0.7911,0.92 -1.5083,0.92c-1.0259,0 -1.5822,-0.62 -1.5822,-1.75v-3.06h0.7389v2.88c0,0.85 0.3477,1.25 1.0823,1.25c0.7781,0 1.2997,-0.54 1.2997,-1.35v-2.78zM53.7074,87.78h0.7172c-0.1434,0.78 -0.8911,1.31 -1.8821,1.31c-1.2954,0 -2.0473,-0.78 -2.0473,-2.12v-0.71c0,-1.25 0.7954,-2.06 1.9951,-2.06c1.2258,0 1.9473,0.81 1.9473,2.17v0.47h-3.2122v0.19c0,0.86 0.5129,1.42 1.3171,1.42c0.5955,0 1.0345,-0.25 1.1649,-0.67zM52.486,84.83c-0.7868,0 -1.2606,0.54 -1.2606,1.44h2.482c0,-0.9 -0.4608,-1.44 -1.2214,-1.44zM55.9972,85.56c0,-0.82 0.6955,-1.37 1.7344,-1.37c0.9823,0 1.6474,0.49 1.7343,1.28h-0.7129c-0.0869,-0.41 -0.4824,-0.66 -1.0345,-0.66c-0.5998,0 -0.9867,0.27 -0.9867,0.7c0,0.36 0.2434,0.57 0.8346,0.7l0.665,0.15c0.9172,0.21 1.3345,0.61 1.3345,1.29c0,0.87 -0.7259,1.44 -1.843,1.44c-1.0693,0 -1.7778,-0.5 -1.8604,-1.31h0.752c0.1086,0.43 0.5259,0.69 1.1345,0.69c0.6433,0 1.0519,-0.3 1.0519,-0.75c0,-0.37 -0.2304,-0.57 -0.8303,-0.71l-0.6998,-0.16c-0.8519,-0.19 -1.2736,-0.62 -1.2736,-1.29zM62.1904,83.02h0.7303v1.28h1.9125v0.63h-1.9038v2.66c0,0.51 0.3607,0.79 1.0258,0.79c0.2651,0 0.7389,-0.01 0.865,-0.03v0.63c-0.1174,0.02 -0.6911,0.04 -0.9172,0.04c-1.1692,0 -1.7126,-0.44 -1.7126,-1.42v-2.67h-1.2562v-0.63h1.2562zM80.531,89.6h-0.591c-1.056,0 -1.391,-0.34 -1.391,-1.41v-0.98c0,-0.67 -0.391,-1.06 -1.408,-0.95v-0.79c1.017,0.1 1.408,-0.28 1.408,-0.96v-0.97c0,-1.07 0.335,-1.41 1.391,-1.41h0.591v0.6h-0.474c-0.652,0 -0.778,0.15 -0.778,0.91v1.16c0,0.61 -0.456,1.01 -1.339,1.03v0.07c0.883,0.02 1.339,0.42 1.339,1.03v1.16c0,0.76 0.126,0.91 0.778,0.91h0.474zM44.1464,97.53v3.47h-0.6651v-3.26c0,-0.57 -0.2086,-0.87 -0.6042,-0.87c-0.4129,0 -0.665,0.36 -0.665,0.95v3.18h-0.6607v-3.26c0,-0.57 -0.2087,-0.87 -0.6086,-0.87c-0.4173,0 -0.6781,0.36 -0.6781,0.95v3.18h-0.665v-4.72h0.6607v0.67h0.0782c0.1174,-0.47 0.4564,-0.75 0.8998,-0.75c0.4434,0 0.7563,0.27 0.8563,0.74h0.0782c0.1218,-0.46 0.4999,-0.74 0.9737,-0.74c0.6564,0 0.9998,0.45 0.9998,1.33zM48.427,99.78h0.7172c-0.1434,0.78 -0.8911,1.31 -1.8821,1.31c-1.2953,0 -2.0473,-0.78 -2.0473,-2.12v-0.71c0,-1.25 0.7954,-2.06 1.9951,-2.06c1.2258,0 1.9473,0.81 1.9473,2.17v0.47h-3.2122v0.19c0,0.86 0.5129,1.42 1.3171,1.42c0.5955,0 1.0345,-0.25 1.1649,-0.67zM47.2056,96.83c-0.7868,0 -1.2606,0.54 -1.2606,1.44h2.482c0,-0.9 -0.4608,-1.44 -1.2214,-1.44zM51.6297,95.02h0.7302v1.28h1.9126v0.63h-1.9039v2.66c0,0.51 0.3608,0.79 1.0258,0.79c0.2652,0 0.739,-0.01 0.865,-0.03v0.63c-0.1173,0.02 -0.6911,0.04 -0.9171,0.04c-1.1693,0 -1.7126,-0.44 -1.7126,-1.42v-2.67h-1.2562v-0.63h1.2562zM55.7799,101v-6.57h0.7129v2.69h0.0608c0.2478,-0.59 0.7911,-0.92 1.5127,-0.92c1.0258,0 1.5822,0.62 1.5822,1.74v3.06h-0.739v-2.87c0,-0.85 -0.3477,-1.25 -1.0866,-1.25c-0.7781,0 -1.3041,0.54 -1.3041,1.35v2.77zM62.9946,101.09c-1.2475,0 -2.043,-0.82 -2.043,-2.09v-0.71c0,-1.28 0.7955,-2.09 2.043,-2.09c1.2475,0 2.0434,0.81 2.0434,2.09v0.71c0,1.27 -0.7959,2.09 -2.0434,2.09zM62.9946,96.85c-0.8085,0 -1.3127,0.58 -1.3127,1.5v0.58c0,0.93 0.5042,1.5 1.3127,1.5c0.8085,0 1.3127,-0.57 1.3127,-1.5v-0.58c0,-0.92 -0.5042,-1.5 -1.3127,-1.5zM67.979,101.08c-1.091,0 -1.804,-0.79 -1.804,-2v-0.88c0,-1.21 0.713,-1.99 1.804,-1.99c0.683,0 1.187,0.29 1.391,0.8h0.079v-2.58h0.752v6.57h-0.726v-0.72h-0.083c-0.243,0.52 -0.739,0.8 -1.413,0.8zM68.197,100.4c0.773,0 1.273,-0.55 1.273,-1.43v-0.67c0,-0.87 -0.5,-1.43 -1.273,-1.43c-0.778,0 -1.278,0.56 -1.278,1.43v0.67c0,0.87 0.5,1.43 1.278,1.43z" fill="#EEEEEE"/>
<path d="M68.275,85.69c-0.43,0 -0.787,-0.37 -0.787,-0.81c0,-0.44 0.357,-0.8 0.787,-0.8c0.43,0 0.787,0.36 0.787,0.8c0,0.44 -0.357,0.81 -0.787,0.81zM68.275,89.03c-0.43,0 -0.787,-0.36 -0.787,-0.81c0,-0.44 0.357,-0.8 0.787,-0.8c0.43,0 0.787,0.36 0.787,0.8c0,0.45 -0.357,0.81 -0.787,0.81zM73.555,97.69c-0.43,0 -0.786,-0.37 -0.786,-0.81c0,-0.44 0.356,-0.8 0.786,-0.8c0.431,0 0.787,0.36 0.787,0.8c0,0.44 -0.356,0.81 -0.787,0.81zM73.555,101.03c-0.43,0 -0.786,-0.36 -0.786,-0.81c0,-0.44 0.356,-0.8 0.786,-0.8c0.431,0 0.787,0.36 0.787,0.8c0,0.45 -0.356,0.81 -0.787,0.81z" fill="white"/>
</g>
<g id="'GET',">
<path d="M84.147,96.56h-0.791v-2.83h0.791zM90.523,98.08v-0.61h-1.448v-0.66h2.221v1.33c0,1.18 -0.886,1.99 -2.151,1.99c-1.474,0 -2.326,-0.99 -2.326,-2.71v-1.11c0,-1.72 0.852,-2.71 2.326,-2.71c1.304,0 2.121,0.79 2.151,2.09h-0.773c-0.035,-0.81 -0.591,-1.37 -1.391,-1.37c-1.013,0 -1.539,0.69 -1.539,1.99v1.11c0,1.3 0.53,1.98 1.543,1.98c0.856,0 1.387,-0.5 1.387,-1.32zM96.264,99.3v0.7h-3.703v-6.27h3.703v0.7h-2.934v2.04h2.773v0.67h-2.773v2.16zM99.975,100h-0.765v-5.57h-1.895v-0.7h4.555v0.7h-1.895zM105.269,96.56h-0.792v-2.83h0.792z" fill="#FD4B28"/>
<path d="M109.758,101.44h-0.7l0.539,-2.82h0.978z" fill="white"/>
</g>
<g id="url:">
<path d="M43.803,107.28v4.72h-0.7086v-0.83h-0.0608c-0.2521,0.59 -0.7911,0.92 -1.5083,0.92c-1.0258,0 -1.5822,-0.62 -1.5822,-1.75v-3.06h0.7389v2.88c0,0.85 0.3478,1.25 1.0824,1.25c0.778,0 1.2996,-0.54 1.2996,-1.35v-2.78zM46.9665,109.89v1.52h1.4605v0.59h-3.134v-0.59h0.9519v-3.54h-1.0475v-0.59h1.7604v1.21h0.0956c0.1739,-0.88 0.7607,-1.33 1.6692,-1.33c0.2695,0 0.5259,0.04 0.6824,0.11v0.83c-0.2173,-0.08 -0.5216,-0.13 -0.7781,-0.13c-1.0432,0 -1.6604,0.72 -1.6604,1.92zM54.4941,112h-3.9077v-0.61h1.6127v-5.34h-1.5996v-0.62h2.3385v5.96h1.5561z" fill="#EEEEEE"/>
<path d="M57.7142,108.69c-0.4303,0 -0.7868,-0.37 -0.7868,-0.81c0,-0.44 0.3565,-0.8 0.7868,-0.8c0.4303,0 0.7867,0.36 0.7867,0.8c0,0.44 -0.3564,0.81 -0.7867,0.81zM57.7142,112.03c-0.4303,0 -0.7868,-0.36 -0.7868,-0.81c0,-0.44 0.3565,-0.8 0.7868,-0.8c0.4303,0 0.7867,0.36 0.7867,0.8c0,0.45 -0.3564,0.81 -0.7867,0.81z" fill="white"/>
</g>
<g id="'https://api.checklyhq.com/public-stats',">
<path d="M69.147,108.56h-0.791v-2.83h0.791zM72.098,112v-6.57h0.712v2.69h0.061c0.248,-0.59 0.791,-0.92 1.513,-0.92c1.026,0 1.582,0.62 1.582,1.74v3.06h-0.739v-2.87c0,-0.85 -0.348,-1.25 -1.086,-1.25c-0.779,0 -1.304,0.54 -1.304,1.35v2.77zM78.508,106.02h0.73v1.28h1.913v0.63h-1.904v2.66c0,0.51 0.361,0.79 1.026,0.79c0.265,0 0.739,-0.01 0.865,-0.03v0.63c-0.117,0.02 -0.691,0.04 -0.917,0.04c-1.17,0 -1.713,-0.44 -1.713,-1.42v-2.67h-1.256v-0.63h1.256zM83.788,106.02h0.731v1.28h1.912v0.63h-1.904v2.66c0,0.51 0.361,0.79 1.026,0.79c0.265,0 0.739,-0.01 0.865,-0.03v0.63c-0.117,0.02 -0.691,0.04 -0.917,0.04c-1.169,0 -1.713,-0.44 -1.713,-1.42v-2.67h-1.256v-0.63h1.256zM90.169,107.21c1.091,0 1.803,0.78 1.803,2v0.87c0,1.21 -0.712,2 -1.803,2c-0.683,0 -1.183,-0.29 -1.387,-0.81h-0.083v2.32h-0.752v-6.31h0.731v0.73h0.078c0.248,-0.53 0.739,-0.8 1.413,-0.8zM89.956,107.88c-0.778,0 -1.274,0.56 -1.274,1.43v0.68c0,0.87 0.496,1.43 1.274,1.43c0.778,0 1.273,-0.56 1.273,-1.43v-0.68c0,-0.87 -0.495,-1.43 -1.273,-1.43zM93.436,108.56c0,-0.82 0.696,-1.37 1.735,-1.37c0.982,0 1.647,0.49 1.734,1.28h-0.713c-0.087,-0.41 -0.482,-0.66 -1.034,-0.66c-0.6,0 -0.987,0.27 -0.987,0.7c0,0.36 0.243,0.57 0.835,0.7l0.665,0.15c0.917,0.21 1.334,0.61 1.334,1.29c0,0.87 -0.726,1.44 -1.843,1.44c-1.069,0 -1.778,-0.5 -1.86,-1.31h0.752c0.108,0.43 0.526,0.69 1.134,0.69c0.643,0 1.052,-0.3 1.052,-0.75c0,-0.37 -0.23,-0.57 -0.83,-0.71l-0.7,-0.16c-0.852,-0.19 -1.274,-0.62 -1.274,-1.29zM100.434,108.69c-0.431,0 -0.787,-0.37 -0.787,-0.81c0,-0.44 0.356,-0.8 0.787,-0.8c0.43,0 0.787,0.36 0.787,0.8c0,0.44 -0.357,0.81 -0.787,0.81zM100.434,112.03c-0.431,0 -0.787,-0.36 -0.787,-0.81c0,-0.44 0.356,-0.8 0.787,-0.8c0.43,0 0.787,0.36 0.787,0.8c0,0.45 -0.357,0.81 -0.787,0.81zM104.545,112.6h-0.722l3.056,-7.47h0.726zM109.825,112.6h-0.721l3.055,-7.47h0.726zM115.797,112.08c-0.9,0 -1.5,-0.56 -1.5,-1.42c0,-0.83 0.6,-1.33 1.674,-1.39l1.295,-0.06v-0.43c0,-0.59 -0.361,-0.91 -1.017,-0.91c-0.543,0 -0.926,0.23 -1.048,0.63h-0.726c0.087,-0.76 0.818,-1.27 1.783,-1.27c1.108,0 1.743,0.56 1.743,1.54v3.23h-0.705v-0.7h-0.073c-0.226,0.5 -0.739,0.78 -1.426,0.78zM116.01,111.43c0.713,0 1.256,-0.47 1.256,-1.1v-0.56l-1.213,0.06c-0.66,0.03 -1.008,0.31 -1.008,0.81c0,0.49 0.369,0.79 0.965,0.79zM121.851,107.21c1.091,0 1.804,0.78 1.804,2v0.87c0,1.21 -0.713,2 -1.804,2c-0.683,0 -1.182,-0.29 -1.387,-0.81h-0.082v2.32h-0.752v-6.31h0.73v0.73h0.078c0.248,-0.53 0.739,-0.8 1.413,-0.8zM121.638,107.88c-0.778,0 -1.274,0.56 -1.274,1.43v0.68c0,0.87 0.496,1.43 1.274,1.43c0.778,0 1.274,-0.56 1.274,-1.43v-0.68c0,-0.87 -0.496,-1.43 -1.274,-1.43zM126.918,106.13c-0.347,0 -0.613,-0.26 -0.613,-0.61c0,-0.34 0.266,-0.61 0.613,-0.61c0.348,0 0.613,0.27 0.613,0.61c0,0.35 -0.265,0.61 -0.613,0.61zM128.896,112h-3.908v-0.61h1.617v-3.49h-1.604v-0.62h2.335v4.11h1.56zM132.116,112.03c-0.43,0 -0.787,-0.36 -0.787,-0.81c0,-0.44 0.357,-0.8 0.787,-0.8c0.43,0 0.787,0.36 0.787,0.8c0,0.45 -0.357,0.81 -0.787,0.81zM139.361,108.75h-0.73c-0.091,-0.55 -0.552,-0.9 -1.161,-0.9c-0.821,0 -1.278,0.56 -1.278,1.58v0.42c0,1.02 0.457,1.57 1.278,1.57c0.609,0 1.07,-0.34 1.161,-0.88h0.73c-0.117,0.96 -0.834,1.55 -1.878,1.55c-1.282,0 -2.029,-0.79 -2.029,-2.14v-0.62c0,-1.35 0.747,-2.14 2.029,-2.14c1.044,0 1.757,0.59 1.878,1.56zM140.743,112v-6.57h0.712v2.69h0.061c0.248,-0.59 0.791,-0.92 1.513,-0.92c1.026,0 1.582,0.62 1.582,1.74v3.06h-0.739v-2.87c0,-0.85 -0.347,-1.25 -1.086,-1.25c-0.778,0 -1.304,0.54 -1.304,1.35v2.77zM149.231,110.78h0.717c-0.143,0.78 -0.891,1.31 -1.882,1.31c-1.295,0 -2.047,-0.78 -2.047,-2.12v-0.71c0,-1.25 0.795,-2.06 1.995,-2.06c1.226,0 1.947,0.81 1.947,2.17v0.47h-3.212v0.19c0,0.86 0.513,1.42 1.317,1.42c0.595,0 1.034,-0.25 1.165,-0.67zM148.009,107.83c-0.786,0 -1.26,0.54 -1.26,1.44h2.482c0,-0.9 -0.461,-1.44 -1.222,-1.44zM155.202,108.75h-0.73c-0.091,-0.55 -0.552,-0.9 -1.16,-0.9c-0.822,0 -1.278,0.56 -1.278,1.58v0.42c0,1.02 0.456,1.57 1.278,1.57c0.608,0 1.069,-0.34 1.16,-0.88h0.73c-0.117,0.96 -0.834,1.55 -1.877,1.55c-1.283,0 -2.03,-0.79 -2.03,-2.14v-0.62c0,-1.35 0.747,-2.14 2.03,-2.14c1.043,0 1.756,0.59 1.877,1.56zM157.731,109.4l2.056,-2.12h0.896l-1.83,1.87l1.96,2.85h-0.878l-1.608,-2.34l-0.652,0.62v1.72h-0.739v-6.57h0.739v3.97zM165.859,112h-3.908v-0.61h1.613v-5.34h-1.6v-0.62h2.339v5.96h1.556zM167.757,113.68c-0.108,0 -0.252,-0.01 -0.317,-0.02v-0.64c0.057,0.01 0.191,0.01 0.261,0.01c0.443,0 0.687,-0.2 0.882,-0.74l0.083,-0.26l-1.734,-4.75h0.804l1.321,3.95h0.057l1.317,-3.95h0.786l-1.777,4.89c-0.413,1.16 -0.809,1.51 -1.683,1.51zM172.425,112v-6.57h0.713v2.69h0.061c0.247,-0.59 0.791,-0.92 1.512,-0.92c1.026,0 1.583,0.62 1.583,1.74v3.06h-0.739v-2.87c0,-0.85 -0.348,-1.25 -1.087,-1.25c-0.778,0 -1.304,0.54 -1.304,1.35v2.77zM179.344,107.21c0.674,0 1.165,0.27 1.413,0.8h0.078v-0.73h0.73v6.31h-0.752v-2.32h-0.082c-0.205,0.52 -0.705,0.81 -1.387,0.81c-1.091,0 -1.804,-0.79 -1.804,-2v-0.87c0,-1.22 0.713,-2 1.804,-2zM179.557,107.88c-0.778,0 -1.274,0.56 -1.274,1.43v0.68c0,0.87 0.496,1.43 1.274,1.43c0.778,0 1.274,-0.56 1.274,-1.43v-0.68c0,-0.87 -0.496,-1.43 -1.274,-1.43zM184.92,112.03c-0.43,0 -0.787,-0.36 -0.787,-0.81c0,-0.44 0.357,-0.8 0.787,-0.8c0.43,0 0.787,0.36 0.787,0.8c0,0.45 -0.357,0.81 -0.787,0.81zM192.165,108.75h-0.73c-0.091,-0.55 -0.552,-0.9 -1.161,-0.9c-0.821,0 -1.278,0.56 -1.278,1.58v0.42c0,1.02 0.457,1.57 1.278,1.57c0.609,0 1.07,-0.34 1.161,-0.88h0.73c-0.117,0.96 -0.834,1.55 -1.878,1.55c-1.282,0 -2.03,-0.79 -2.03,-2.14v-0.62c0,-1.35 0.748,-2.14 2.03,-2.14c1.044,0 1.756,0.59 1.878,1.56zM195.481,112.09c-1.248,0 -2.043,-0.82 -2.043,-2.09v-0.71c0,-1.28 0.795,-2.09 2.043,-2.09c1.247,0 2.043,0.81 2.043,2.09v0.71c0,1.27 -0.796,2.09 -2.043,2.09zM195.481,107.85c-0.809,0 -1.313,0.58 -1.313,1.5v0.58c0,0.93 0.504,1.5 1.313,1.5c0.808,0 1.312,-0.57 1.312,-1.5v-0.58c0,-0.92 -0.504,-1.5 -1.312,-1.5zM203.035,108.53v3.47h-0.666v-3.26c0,-0.57 -0.208,-0.87 -0.604,-0.87c-0.413,0 -0.665,0.36 -0.665,0.95v3.18h-0.66v-3.26c0,-0.57 -0.209,-0.87 -0.609,-0.87c-0.417,0 -0.678,0.36 -0.678,0.95v3.18h-0.665v-4.72h0.661v0.67h0.078c0.117,-0.47 0.456,-0.75 0.9,-0.75c0.443,0 0.756,0.27 0.856,0.74h0.078c0.122,-0.46 0.5,-0.74 0.974,-0.74c0.656,0 1,0.45 1,1.33zM204.872,112.6h-0.721l3.055,-7.47h0.726zM211.618,107.21c1.091,0 1.803,0.78 1.803,2v0.87c0,1.21 -0.712,2 -1.803,2c-0.683,0 -1.183,-0.29 -1.387,-0.81h-0.083v2.32h-0.752v-6.31h0.731v0.73h0.078c0.248,-0.53 0.739,-0.8 1.413,-0.8zM211.405,107.88c-0.779,0 -1.274,0.56 -1.274,1.43v0.68c0,0.87 0.495,1.43 1.274,1.43c0.778,0 1.273,-0.56 1.273,-1.43v-0.68c0,-0.87 -0.495,-1.43 -1.273,-1.43zM218.532,107.28v4.72h-0.708v-0.83h-0.061c-0.252,0.59 -0.791,0.92 -1.508,0.92c-1.026,0 -1.583,-0.62 -1.583,-1.75v-3.06h0.739v2.88c0,0.85 0.348,1.25 1.083,1.25c0.778,0 1.299,-0.54 1.299,-1.35v-2.78zM222.178,112.08c-0.673,0 -1.169,-0.28 -1.412,-0.8h-0.083v0.72h-0.726v-6.57h0.752v2.58h0.078c0.209,-0.51 0.709,-0.8 1.391,-0.8c1.091,0 1.804,0.78 1.804,1.99v0.88c0,1.21 -0.713,2 -1.804,2zM221.961,111.4c0.782,0 1.278,-0.56 1.278,-1.43v-0.67c0,-0.87 -0.496,-1.43 -1.278,-1.43c-0.774,0 -1.269,0.56 -1.269,1.43v0.67c0,0.88 0.495,1.43 1.269,1.43zM229.223,112h-3.907v-0.61h1.612v-5.34h-1.599v-0.62h2.338v5.96h1.556zM232.526,106.13c-0.348,0 -0.613,-0.26 -0.613,-0.61c0,-0.34 0.265,-0.61 0.613,-0.61c0.348,0 0.613,0.27 0.613,0.61c0,0.35 -0.265,0.61 -0.613,0.61zM234.504,112h-3.908v-0.61h1.617v-3.49h-1.604v-0.62h2.334v4.11h1.561zM239.689,108.75h-0.731c-0.091,-0.55 -0.552,-0.9 -1.16,-0.9c-0.822,0 -1.278,0.56 -1.278,1.58v0.42c0,1.02 0.456,1.57 1.278,1.57c0.608,0 1.069,-0.34 1.16,-0.88h0.731c-0.118,0.96 -0.835,1.55 -1.878,1.55c-1.282,0 -2.03,-0.79 -2.03,-2.14v-0.62c0,-1.35 0.748,-2.14 2.03,-2.14c1.043,0 1.756,0.59 1.878,1.56zM245.304,109.56h-4.599v-0.69h4.599zM246.568,108.56c0,-0.82 0.695,-1.37 1.734,-1.37c0.982,0 1.647,0.49 1.734,1.28h-0.712c-0.087,-0.41 -0.483,-0.66 -1.035,-0.66c-0.6,0 -0.987,0.27 -0.987,0.7c0,0.36 0.244,0.57 0.835,0.7l0.665,0.15c0.917,0.21 1.334,0.61 1.334,1.29c0,0.87 -0.726,1.44 -1.843,1.44c-1.069,0 -1.777,-0.5 -1.86,-1.31h0.752c0.109,0.43 0.526,0.69 1.134,0.69c0.644,0 1.052,-0.3 1.052,-0.75c0,-0.37 -0.23,-0.57 -0.83,-0.71l-0.7,-0.16c-0.852,-0.19 -1.273,-0.62 -1.273,-1.29zM252.761,106.02h0.73v1.28h1.913v0.63h-1.904v2.66c0,0.51 0.361,0.79 1.026,0.79c0.265,0 0.739,-0.01 0.865,-0.03v0.63c-0.118,0.02 -0.691,0.04 -0.917,0.04c-1.17,0 -1.713,-0.44 -1.713,-1.42v-2.67h-1.256v-0.63h1.256zM258.367,112.08c-0.899,0 -1.499,-0.56 -1.499,-1.42c0,-0.83 0.6,-1.33 1.673,-1.39l1.295,-0.06v-0.43c0,-0.59 -0.36,-0.91 -1.017,-0.91c-0.543,0 -0.925,0.23 -1.047,0.63h-0.726c0.087,-0.76 0.817,-1.27 1.782,-1.27c1.108,0 1.743,0.56 1.743,1.54v3.23h-0.704v-0.7h-0.074c-0.226,0.5 -0.739,0.78 -1.426,0.78zM258.58,111.43c0.713,0 1.256,-0.47 1.256,-1.1v-0.56l-1.212,0.06c-0.661,0.03 -1.009,0.31 -1.009,0.81c0,0.49 0.37,0.79 0.965,0.79zM263.322,106.02h0.73v1.28h1.912v0.63h-1.903v2.66c0,0.51 0.36,0.79 1.025,0.79c0.266,0 0.739,-0.01 0.865,-0.03v0.63c-0.117,0.02 -0.691,0.04 -0.917,0.04c-1.169,0 -1.712,-0.44 -1.712,-1.42v-2.67h-1.257v-0.63h1.257zM267.689,108.56c0,-0.82 0.696,-1.37 1.735,-1.37c0.982,0 1.647,0.49 1.734,1.28h-0.713c-0.087,-0.41 -0.482,-0.66 -1.034,-0.66c-0.6,0 -0.987,0.27 -0.987,0.7c0,0.36 0.243,0.57 0.834,0.7l0.665,0.15c0.918,0.21 1.335,0.61 1.335,1.29c0,0.87 -0.726,1.44 -1.843,1.44c-1.069,0 -1.778,-0.5 -1.86,-1.31h0.751c0.109,0.43 0.526,0.69 1.135,0.69c0.643,0 1.052,-0.3 1.052,-0.75c0,-0.37 -0.23,-0.57 -0.83,-0.71l-0.7,-0.16c-0.852,-0.19 -1.274,-0.62 -1.274,-1.29zM275.082,108.56h-0.791v-2.83h0.791z" fill="#FD4B28"/>
<path d="M279.571,113.44h-0.699l0.539,-2.82h0.978z" fill="white"/>
</g>
<g id="assertions: [">
<path d="M41.3949,124.08c-0.8998,0 -1.4996,-0.56 -1.4996,-1.42c0,-0.83 0.5998,-1.33 1.6735,-1.39l1.2953,-0.06v-0.43c0,-0.59 -0.3608,-0.91 -1.0172,-0.91c-0.5433,0 -0.9258,0.23 -1.0475,0.63h-0.7259c0.0869,-0.76 0.8172,-1.27 1.7821,-1.27c1.1084,0 1.7431,0.56 1.7431,1.54v3.23h-0.7042v-0.7h-0.0739c-0.226,0.5 -0.7389,0.78 -1.4257,0.78zM41.6079,123.43c0.7128,0 1.2562,-0.47 1.2562,-1.1v-0.56l-1.2128,0.06c-0.6607,0.03 -1.0084,0.31 -1.0084,0.81c0,0.49 0.3695,0.79 0.965,0.79zM45.4365,120.56c0,-0.82 0.6954,-1.37 1.7343,-1.37c0.9824,0 1.6474,0.49 1.7343,1.28h-0.7128c-0.087,-0.41 -0.4825,-0.66 -1.0345,-0.66c-0.5999,0 -0.9867,0.27 -0.9867,0.7c0,0.36 0.2434,0.57 0.8345,0.7l0.6651,0.15c0.9171,0.21 1.3344,0.61 1.3344,1.29c0,0.87 -0.7259,1.44 -1.843,1.44c-1.0693,0 -1.7778,-0.5 -1.8604,-1.31h0.752c0.1087,0.43 0.5259,0.69 1.1345,0.69c0.6433,0 1.0519,-0.3 1.0519,-0.75c0,-0.37 -0.2304,-0.57 -0.8302,-0.71l-0.6999,-0.16c-0.8519,-0.19 -1.2735,-0.62 -1.2735,-1.29zM50.7168,120.56c0,-0.82 0.6955,-1.37 1.7344,-1.37c0.9823,0 1.6474,0.49 1.7343,1.28h-0.7128c-0.087,-0.41 -0.4825,-0.66 -1.0346,-0.66c-0.5998,0 -0.9867,0.27 -0.9867,0.7c0,0.36 0.2435,0.57 0.8346,0.7l0.6651,0.15c0.9171,0.21 1.3344,0.61 1.3344,1.29c0,0.87 -0.7259,1.44 -1.843,1.44c-1.0693,0 -1.7778,-0.5 -1.8604,-1.31h0.752c0.1086,0.43 0.5259,0.69 1.1345,0.69c0.6433,0 1.0519,-0.3 1.0519,-0.75c0,-0.37 -0.2304,-0.57 -0.8302,-0.71l-0.6999,-0.16c-0.8519,-0.19 -1.2736,-0.62 -1.2736,-1.29zM58.9878,122.78h0.7172c-0.1435,0.78 -0.8911,1.31 -1.8821,1.31c-1.2954,0 -2.0473,-0.78 -2.0473,-2.12v-0.71c0,-1.25 0.7954,-2.06 1.9951,-2.06c1.2258,0 1.9473,0.81 1.9473,2.17v0.47h-3.2122v0.19c0,0.86 0.5129,1.42 1.3171,1.42c0.5955,0 1.0345,-0.25 1.1649,-0.67zM57.7663,119.83c-0.7867,0 -1.2605,0.54 -1.2605,1.44h2.482c0,-0.9 -0.4608,-1.44 -1.2215,-1.44zM62.8077,121.89v1.52h1.4605v0.59h-3.134v-0.59h0.9519v-3.54h-1.0475v-0.59h1.7604v1.21h0.0956c0.1739,-0.88 0.7607,-1.33 1.6691,-1.33c0.2695,0 0.5263,0.04 0.6823,0.11v0.83c-0.217,-0.08 -0.5214,-0.13 -0.7779,-0.13c-1.0432,0 -1.6604,0.72 -1.6604,1.92zM67.471,118.02h0.73v1.28h1.913v0.63h-1.904v2.66c0,0.51 0.361,0.79 1.026,0.79c0.265,0 0.739,-0.01 0.865,-0.03v0.63c-0.118,0.02 -0.692,0.04 -0.918,0.04c-1.169,0 -1.712,-0.44 -1.712,-1.42v-2.67h-1.256v-0.63h1.256zM73.638,118.13c-0.348,0 -0.613,-0.26 -0.613,-0.61c0,-0.34 0.265,-0.61 0.613,-0.61c0.348,0 0.613,0.27 0.613,0.61c0,0.35 -0.265,0.61 -0.613,0.61zM75.616,124h-3.908v-0.61h1.617v-3.49h-1.604v-0.62h2.334v4.11h1.561zM78.836,124.09c-1.248,0 -2.043,-0.82 -2.043,-2.09v-0.71c0,-1.28 0.795,-2.09 2.043,-2.09c1.247,0 2.043,0.81 2.043,2.09v0.71c0,1.27 -0.796,2.09 -2.043,2.09zM78.836,119.85c-0.809,0 -1.313,0.58 -1.313,1.5v0.58c0,0.93 0.504,1.5 1.313,1.5c0.808,0 1.312,-0.57 1.312,-1.5v-0.58c0,-0.92 -0.504,-1.5 -1.312,-1.5zM82.186,124v-4.72h0.709v0.83h0.061c0.252,-0.58 0.791,-0.91 1.508,-0.91c1.026,0 1.582,0.61 1.582,1.74v3.06h-0.739v-2.87c0,-0.86 -0.348,-1.26 -1.082,-1.26c-0.778,0 -1.3,0.55 -1.3,1.35v2.78zM87.68,120.56c0,-0.82 0.695,-1.37 1.734,-1.37c0.982,0 1.647,0.49 1.734,1.28h-0.713c-0.087,-0.41 -0.482,-0.66 -1.034,-0.66c-0.6,0 -0.987,0.27 -0.987,0.7c0,0.36 0.244,0.57 0.835,0.7l0.665,0.15c0.917,0.21 1.334,0.61 1.334,1.29c0,0.87 -0.726,1.44 -1.843,1.44c-1.069,0 -1.778,-0.5 -1.86,-1.31h0.752c0.108,0.43 0.526,0.69 1.134,0.69c0.644,0 1.052,-0.3 1.052,-0.75c0,-0.37 -0.23,-0.57 -0.83,-0.71l-0.7,-0.16c-0.852,-0.19 -1.273,-0.62 -1.273,-1.29zM104.108,117.13h2.29v0.6h-1.573v6.27h1.582v0.6h-2.299z" fill="#EEEEEE"/>
<path d="M94.677,120.69c-0.43,0 -0.787,-0.37 -0.787,-0.81c0,-0.44 0.357,-0.8 0.787,-0.8c0.43,0 0.787,0.36 0.787,0.8c0,0.44 -0.357,0.81 -0.787,0.81zM94.677,124.03c-0.43,0 -0.787,-0.36 -0.787,-0.81c0,-0.44 0.357,-0.8 0.787,-0.8c0.43,0 0.787,0.36 0.787,0.8c0,0.45 -0.357,0.81 -0.787,0.81z" fill="white"/>
</g>
<g id="AssertionBuilder.statusCode().equals(200)">
<path d="M54.3728,136l-0.5433,-1.8h-2.1821l-0.5477,1.8h-0.778l2.0212,-6.27h0.8172l2.0212,6.27zM52.7297,130.65l-0.8823,2.89h1.7821l-0.878,-2.89zM56.3149,132.56c0,-0.82 0.6955,-1.37 1.7343,-1.37c0.9824,0 1.6474,0.49 1.7344,1.28h-0.7129c-0.0869,-0.41 -0.4825,-0.66 -1.0345,-0.66c-0.5998,0 -0.9867,0.27 -0.9867,0.7c0,0.36 0.2434,0.57 0.8346,0.7l0.665,0.15c0.9172,0.21 1.3345,0.61 1.3345,1.29c0,0.87 -0.7259,1.44 -1.843,1.44c-1.0693,0 -1.7779,-0.5 -1.8604,-1.31h0.7519c0.1087,0.43 0.526,0.69 1.1345,0.69c0.6433,0 1.0519,-0.3 1.0519,-0.75c0,-0.37 -0.2303,-0.57 -0.8302,-0.71l-0.6998,-0.16c-0.852,-0.19 -1.2736,-0.62 -1.2736,-1.29zM61.5953,132.56c0,-0.82 0.6955,-1.37 1.7343,-1.37c0.9824,0 1.6474,0.49 1.7344,1.28h-0.7129c-0.0869,-0.41 -0.4825,-0.66 -1.0345,-0.66c-0.5999,0 -0.9867,0.27 -0.9867,0.7c0,0.36 0.2434,0.57 0.8346,0.7l0.665,0.15c0.9172,0.21 1.3345,0.61 1.3345,1.29c0,0.87 -0.726,1.44 -1.8431,1.44c-1.0693,0 -1.7778,-0.5 -1.8604,-1.31h0.752c0.1087,0.43 0.526,0.69 1.1345,0.69c0.6433,0 1.0519,-0.3 1.0519,-0.75c0,-0.37 -0.2304,-0.57 -0.8302,-0.71l-0.6998,-0.16c-0.852,-0.19 -1.2736,-0.62 -1.2736,-1.29zM69.866,134.78h0.717c-0.143,0.78 -0.891,1.31 -1.882,1.31c-1.295,0 -2.047,-0.78 -2.047,-2.12v-0.71c0,-1.25 0.795,-2.06 1.995,-2.06c1.226,0 1.947,0.81 1.947,2.17v0.47h-3.212v0.19c0,0.86 0.513,1.42 1.317,1.42c0.596,0 1.035,-0.25 1.165,-0.67zM68.645,131.83c-0.787,0 -1.261,0.54 -1.261,1.44h2.482c0,-0.9 -0.461,-1.44 -1.221,-1.44zM73.686,133.89v1.52h1.461v0.59h-3.134v-0.59h0.952v-3.54h-1.048v-0.59h1.76v1.21h0.096c0.174,-0.88 0.761,-1.33 1.669,-1.33c0.27,0 0.526,0.04 0.683,0.11v0.83c-0.218,-0.08 -0.522,-0.13 -0.778,-0.13c-1.044,0 -1.661,0.72 -1.661,1.92zM78.349,130.02h0.731v1.28h1.912v0.63h-1.904v2.66c0,0.51 0.361,0.79 1.026,0.79c0.265,0 0.739,-0.01 0.865,-0.03v0.63c-0.117,0.02 -0.691,0.04 -0.917,0.04c-1.169,0 -1.713,-0.44 -1.713,-1.42v-2.67h-1.256v-0.63h1.256zM84.516,130.13c-0.347,0 -0.613,-0.26 -0.613,-0.61c0,-0.34 0.266,-0.61 0.613,-0.61c0.348,0 0.613,0.27 0.613,0.61c0,0.35 -0.265,0.61 -0.613,0.61zM86.494,136h-3.908v-0.61h1.617v-3.49h-1.604v-0.62h2.335v4.11h1.56zM89.714,136.09c-1.247,0 -2.043,-0.82 -2.043,-2.09v-0.71c0,-1.28 0.796,-2.09 2.043,-2.09c1.248,0 2.043,0.81 2.043,2.09v0.71c0,1.27 -0.795,2.09 -2.043,2.09zM89.714,131.85c-0.808,0 -1.313,0.58 -1.313,1.5v0.58c0,0.93 0.505,1.5 1.313,1.5c0.809,0 1.313,-0.57 1.313,-1.5v-0.58c0,-0.92 -0.504,-1.5 -1.313,-1.5zM93.065,136v-4.72h0.708v0.83h0.061c0.252,-0.58 0.791,-0.91 1.508,-0.91c1.026,0 1.583,0.61 1.583,1.74v3.06h-0.739v-2.87c0,-0.86 -0.348,-1.26 -1.083,-1.26c-0.778,0 -1.299,0.55 -1.299,1.35v2.78zM100.392,136h-2.051v-6.27h2.03c1.156,0 1.851,0.58 1.851,1.55c0,0.69 -0.447,1.26 -1.078,1.37v0.06c0.844,0.09 1.396,0.7 1.396,1.54c0,1.1 -0.8,1.75 -2.148,1.75zM99.101,130.39v2.05h0.978c0.891,0 1.37,-0.37 1.37,-1.03c0,-0.65 -0.452,-1.02 -1.252,-1.02zM99.101,135.33h1.126c0.996,0 1.517,-0.39 1.517,-1.13c0,-0.74 -0.526,-1.13 -1.543,-1.13h-1.1zM107.485,131.28v4.72h-0.708v-0.83h-0.061c-0.252,0.59 -0.791,0.92 -1.508,0.92c-1.026,0 -1.583,-0.62 -1.583,-1.75v-3.06h0.739v2.88c0,0.85 0.348,1.25 1.083,1.25c0.778,0 1.299,-0.54 1.299,-1.35v-2.78zM110.918,130.13c-0.347,0 -0.613,-0.26 -0.613,-0.61c0,-0.34 0.266,-0.61 0.613,-0.61c0.348,0 0.613,0.27 0.613,0.61c0,0.35 -0.265,0.61 -0.613,0.61zM112.896,136h-3.908v-0.61h1.617v-3.49h-1.604v-0.62h2.335v4.11h1.56zM118.176,136h-3.907v-0.61h1.612v-5.34h-1.599v-0.62h2.338v5.96h1.556zM121.101,136.08c-1.091,0 -1.804,-0.79 -1.804,-2v-0.88c0,-1.21 0.713,-1.99 1.804,-1.99c0.682,0 1.187,0.29 1.391,0.8h0.078v-2.58h0.752v6.57h-0.726v-0.72h-0.082c-0.244,0.52 -0.739,0.8 -1.413,0.8zM121.318,135.4c0.774,0 1.274,-0.55 1.274,-1.43v-0.67c0,-0.87 -0.5,-1.43 -1.274,-1.43c-0.778,0 -1.278,0.56 -1.278,1.43v0.67c0,0.87 0.5,1.43 1.278,1.43zM127.95,134.78h0.718c-0.144,0.78 -0.891,1.31 -1.882,1.31c-1.296,0 -2.048,-0.78 -2.048,-2.12v-0.71c0,-1.25 0.796,-2.06 1.995,-2.06c1.226,0 1.948,0.81 1.948,2.17v0.47h-3.212v0.19c0,0.86 0.512,1.42 1.317,1.42c0.595,0 1.034,-0.25 1.164,-0.67zM126.729,131.83c-0.787,0 -1.26,0.54 -1.26,1.44h2.481c0,-0.9 -0.46,-1.44 -1.221,-1.44zM131.77,133.89v1.52h1.461v0.59h-3.134v-0.59h0.952v-3.54h-1.048v-0.59h1.761v1.21h0.095c0.174,-0.88 0.761,-1.33 1.669,-1.33c0.27,0 0.526,0.04 0.683,0.11v0.83c-0.217,-0.08 -0.522,-0.13 -0.778,-0.13c-1.043,0 -1.661,0.72 -1.661,1.92zM137.238,136.03c-0.431,0 -0.787,-0.36 -0.787,-0.81c0,-0.44 0.356,-0.8 0.787,-0.8c0.43,0 0.786,0.36 0.786,0.8c0,0.45 -0.356,0.81 -0.786,0.81zM140.801,132.56c0,-0.82 0.696,-1.37 1.734,-1.37c0.983,0 1.648,0.49 1.735,1.28h-0.713c-0.087,-0.41 -0.483,-0.66 -1.035,-0.66c-0.599,0 -0.986,0.27 -0.986,0.7c0,0.36 0.243,0.57 0.834,0.7l0.665,0.15c0.917,0.21 1.335,0.61 1.335,1.29c0,0.87 -0.726,1.44 -1.843,1.44c-1.07,0 -1.778,-0.5 -1.861,-1.31h0.752c0.109,0.43 0.526,0.69 1.135,0.69c0.643,0 1.052,-0.3 1.052,-0.75c0,-0.37 -0.231,-0.57 -0.83,-0.71l-0.7,-0.16c-0.852,-0.19 -1.274,-0.62 -1.274,-1.29zM146.994,130.02h0.731v1.28h1.912v0.63h-1.904v2.66c0,0.51 0.361,0.79 1.026,0.79c0.265,0 0.739,-0.01 0.865,-0.03v0.63c-0.117,0.02 -0.691,0.04 -0.917,0.04c-1.169,0 -1.713,-0.44 -1.713,-1.42v-2.67h-1.256v-0.63h1.256zM152.601,136.08c-0.9,0 -1.5,-0.56 -1.5,-1.42c0,-0.83 0.6,-1.33 1.674,-1.39l1.295,-0.06v-0.43c0,-0.59 -0.361,-0.91 -1.017,-0.91c-0.544,0 -0.926,0.23 -1.048,0.63h-0.726c0.087,-0.76 0.817,-1.27 1.782,-1.27c1.109,0 1.743,0.56 1.743,1.54v3.23h-0.704v-0.7h-0.074c-0.226,0.5 -0.739,0.78 -1.425,0.78zM152.814,135.43c0.713,0 1.256,-0.47 1.256,-1.1v-0.56l-1.213,0.06c-0.661,0.03 -1.008,0.31 -1.008,0.81c0,0.49 0.369,0.79 0.965,0.79zM157.555,130.02h0.73v1.28h1.913v0.63h-1.904v2.66c0,0.51 0.361,0.79 1.026,0.79c0.265,0 0.739,-0.01 0.865,-0.03v0.63c-0.118,0.02 -0.691,0.04 -0.917,0.04c-1.17,0 -1.713,-0.44 -1.713,-1.42v-2.67h-1.256v-0.63h1.256zM165.57,131.28v4.72h-0.709v-0.83h-0.061c-0.252,0.59 -0.791,0.92 -1.508,0.92c-1.026,0 -1.582,-0.62 -1.582,-1.75v-3.06h0.739v2.88c0,0.85 0.347,1.25 1.082,1.25c0.778,0 1.3,-0.54 1.3,-1.35v-2.78zM167.203,132.56c0,-0.82 0.696,-1.37 1.734,-1.37c0.983,0 1.648,0.49 1.735,1.28h-0.713c-0.087,-0.41 -0.483,-0.66 -1.035,-0.66c-0.599,0 -0.986,0.27 -0.986,0.7c0,0.36 0.243,0.57 0.834,0.7l0.665,0.15c0.917,0.21 1.335,0.61 1.335,1.29c0,0.87 -0.726,1.44 -1.843,1.44c-1.07,0 -1.778,-0.5 -1.861,-1.31h0.752c0.109,0.43 0.526,0.69 1.135,0.69c0.643,0 1.052,-0.3 1.052,-0.75c0,-0.37 -0.231,-0.57 -0.831,-0.71l-0.699,-0.16c-0.852,-0.19 -1.274,-0.62 -1.274,-1.29zM174.344,135.4c0.834,0 1.365,-0.5 1.386,-1.3h0.774c0,1.21 -0.878,2.03 -2.16,2.03c-1.474,0 -2.33,-0.99 -2.33,-2.71v-1.11c0,-1.72 0.856,-2.71 2.33,-2.71c1.321,0 2.138,0.8 2.164,2.14h-0.778c-0.026,-0.85 -0.586,-1.42 -1.391,-1.42c-1.012,0 -1.543,0.69 -1.543,1.99v1.11c0,1.3 0.531,1.98 1.548,1.98zM179.481,136.09c-1.248,0 -2.043,-0.82 -2.043,-2.09v-0.71c0,-1.28 0.795,-2.09 2.043,-2.09c1.247,0 2.043,0.81 2.043,2.09v0.71c0,1.27 -0.796,2.09 -2.043,2.09zM179.481,131.85c-0.809,0 -1.313,0.58 -1.313,1.5v0.58c0,0.93 0.504,1.5 1.313,1.5c0.808,0 1.312,-0.57 1.312,-1.5v-0.58c0,-0.92 -0.504,-1.5 -1.312,-1.5zM184.466,136.08c-1.091,0 -1.804,-0.79 -1.804,-2v-0.88c0,-1.21 0.713,-1.99 1.804,-1.99c0.682,0 1.186,0.29 1.391,0.8h0.078v-2.58h0.752v6.57h-0.726v-0.72h-0.083c-0.243,0.52 -0.739,0.8 -1.412,0.8zM184.683,135.4c0.774,0 1.274,-0.55 1.274,-1.43v-0.67c0,-0.87 -0.5,-1.43 -1.274,-1.43c-0.778,0 -1.278,0.56 -1.278,1.43v0.67c0,0.87 0.5,1.43 1.278,1.43zM191.315,134.78h0.717c-0.143,0.78 -0.891,1.31 -1.882,1.31c-1.295,0 -2.047,-0.78 -2.047,-2.12v-0.71c0,-1.25 0.795,-2.06 1.995,-2.06c1.226,0 1.947,0.81 1.947,2.17v0.47h-3.212v0.19c0,0.86 0.513,1.42 1.317,1.42c0.596,0 1.035,-0.25 1.165,-0.67zM190.094,131.83c-0.787,0 -1.261,0.54 -1.261,1.44h2.482c0,-0.9 -0.461,-1.44 -1.221,-1.44zM205.883,136.03c-0.431,0 -0.787,-0.36 -0.787,-0.81c0,-0.44 0.356,-0.8 0.787,-0.8c0.43,0 0.786,0.36 0.786,0.8c0,0.45 -0.356,0.81 -0.786,0.81zM212.437,134.78h0.717c-0.144,0.78 -0.891,1.31 -1.882,1.31c-1.296,0 -2.048,-0.78 -2.048,-2.12v-0.71c0,-1.25 0.796,-2.06 1.996,-2.06c1.225,0 1.947,0.81 1.947,2.17v0.47h-3.212v0.19c0,0.86 0.513,1.42 1.317,1.42c0.595,0 1.034,-0.25 1.165,-0.67zM211.215,131.83c-0.786,0 -1.26,0.54 -1.26,1.44h2.482c0,-0.9 -0.461,-1.44 -1.222,-1.44zM216.148,131.21c0.674,0 1.165,0.27 1.413,0.8h0.078v-0.73h0.73v6.31h-0.752v-2.32h-0.082c-0.205,0.52 -0.705,0.81 -1.387,0.81c-1.091,0 -1.804,-0.79 -1.804,-2v-0.87c0,-1.22 0.713,-2 1.804,-2zM216.361,131.88c-0.778,0 -1.274,0.56 -1.274,1.43v0.68c0,0.87 0.496,1.43 1.274,1.43c0.778,0 1.274,-0.56 1.274,-1.43v-0.68c0,-0.87 -0.496,-1.43 -1.274,-1.43zM223.654,131.28v4.72h-0.709v-0.83h-0.061c-0.252,0.59 -0.791,0.92 -1.508,0.92c-1.026,0 -1.582,-0.62 -1.582,-1.75v-3.06h0.739v2.88c0,0.85 0.348,1.25 1.082,1.25c0.778,0 1.3,-0.54 1.3,-1.35v-2.78zM226.526,136.08c-0.9,0 -1.499,-0.56 -1.499,-1.42c0,-0.83 0.599,-1.33 1.673,-1.39l1.295,-0.06v-0.43c0,-0.59 -0.36,-0.91 -1.017,-0.91c-0.543,0 -0.926,0.23 -1.047,0.63h-0.726c0.087,-0.76 0.817,-1.27 1.782,-1.27c1.108,0 1.743,0.56 1.743,1.54v3.23h-0.704v-0.7h-0.074c-0.226,0.5 -0.739,0.78 -1.426,0.78zM226.739,135.43c0.713,0 1.256,-0.47 1.256,-1.1v-0.56l-1.212,0.06c-0.661,0.03 -1.009,0.31 -1.009,0.81c0,0.49 0.37,0.79 0.965,0.79zM234.345,136h-3.908v-0.61h1.613v-5.34h-1.6v-0.62h2.339v5.96h1.556zM235.848,132.56c0,-0.82 0.696,-1.37 1.734,-1.37c0.983,0 1.648,0.49 1.735,1.28h-0.713c-0.087,-0.41 -0.483,-0.66 -1.035,-0.66c-0.599,0 -0.986,0.27 -0.986,0.7c0,0.36 0.243,0.57 0.834,0.7l0.665,0.15c0.917,0.21 1.335,0.61 1.335,1.29c0,0.87 -0.726,1.44 -1.843,1.44c-1.07,0 -1.778,-0.5 -1.861,-1.31h0.752c0.109,0.43 0.526,0.69 1.135,0.69c0.643,0 1.052,-0.3 1.052,-0.75c0,-0.37 -0.231,-0.57 -0.83,-0.71l-0.7,-0.16c-0.852,-0.19 -1.274,-0.62 -1.274,-1.29zM246.126,131.49c0,-1.1 0.818,-1.89 1.961,-1.89c1.152,0 1.943,0.71 1.943,1.76c0,0.65 -0.296,1.17 -1.296,2.26l-1.478,1.61v0.07h2.874v0.7h-3.969v-0.53l2.121,-2.36c0.796,-0.89 0.987,-1.23 0.987,-1.72c0,-0.68 -0.474,-1.12 -1.204,-1.12c-0.722,0 -1.2,0.48 -1.2,1.22v0.03h-0.739zM253.411,136.14c-1.365,0 -2.117,-1.16 -2.117,-3.27c0,-2.12 0.752,-3.28 2.117,-3.28c1.36,0 2.116,1.16 2.116,3.28c0,2.11 -0.756,3.27 -2.116,3.27zM252.054,132.87c0,0.24 0.013,0.47 0.031,0.69l2.53,-2.12c-0.205,-0.77 -0.613,-1.17 -1.204,-1.17c-0.887,0 -1.357,0.89 -1.357,2.6zM253.411,135.47c0.886,0 1.351,-0.9 1.351,-2.6c0,-0.26 -0.008,-0.49 -0.03,-0.7l-2.521,2.13c0.204,0.77 0.608,1.17 1.2,1.17zM258.691,136.14c-1.365,0 -2.117,-1.16 -2.117,-3.27c0,-2.12 0.752,-3.28 2.117,-3.28c1.36,0 2.117,1.16 2.117,3.28c0,2.11 -0.757,3.27 -2.117,3.27zM257.335,132.87c0,0.24 0.013,0.47 0.03,0.69l2.53,-2.12c-0.204,-0.77 -0.613,-1.17 -1.204,-1.17c-0.887,0 -1.356,0.89 -1.356,2.6zM258.691,135.47c0.887,0 1.352,-0.9 1.352,-2.6c0,-0.26 -0.009,-0.49 -0.031,-0.7l-2.521,2.13c0.205,0.77 0.609,1.17 1.2,1.17z" fill="#00B51D"/>
<path d="M194.374,132.86c0,-1.47 0.444,-2.75 1.309,-3.74h0.734c-0.899,1.27 -1.278,2.38 -1.278,3.74c0,1.37 0.379,2.47 1.278,3.74h-0.734c-0.865,-0.98 -1.309,-2.26 -1.309,-3.74zM201.55,132.86c0,1.48 -0.443,2.76 -1.308,3.74h-0.735c0.9,-1.27 1.278,-2.37 1.278,-3.74c0,-1.36 -0.378,-2.47 -1.278,-3.74h0.735c0.865,0.99 1.308,2.27 1.308,3.74zM241.898,132.86c0,-1.47 0.443,-2.75 1.308,-3.74h0.735c-0.9,1.27 -1.278,2.38 -1.278,3.74c0,1.37 0.378,2.47 1.278,3.74h-0.735c-0.865,-0.98 -1.308,-2.26 -1.308,-3.74zM264.915,132.86c0,1.48 -0.444,2.76 -1.309,3.74h-0.734c0.899,-1.27 1.278,-2.37 1.278,-3.74c0,-1.36 -0.379,-2.47 -1.278,-3.74h0.734c0.865,0.99 1.309,2.27 1.309,3.74z" fill="#EEEEEE"/>
</g>
<g id="], } })">
<path d="M43.0423,140.13v7.47h-2.2994v-0.6h1.5778v-6.27h-1.5691v-0.6zM29.617,159.6v-0.6h0.4738c0.652,0 0.7781,-0.15 0.7781,-0.91v-1.16c0,-0.61 0.4564,-1.01 1.3388,-1.03v-0.07c-0.8824,-0.02 -1.3388,-0.42 -1.3388,-1.03v-1.16c0,-0.76 -0.1261,-0.91 -0.7781,-0.91h-0.4738v-0.6h0.5912c1.0562,0 1.3909,0.34 1.3909,1.41v0.97c0,0.68 0.3912,1.06 1.4084,0.96v0.79c-1.0172,-0.11 -1.4084,0.28 -1.4084,0.95v0.98c0,1.07 -0.3347,1.41 -1.3909,1.41zM19.0563,171.6v-0.6h0.4737c0.6521,0 0.7781,-0.15 0.7781,-0.91v-1.16c0,-0.61 0.4564,-1.01 1.3388,-1.03v-0.07c-0.8824,-0.02 -1.3388,-0.42 -1.3388,-1.03v-1.16c0,-0.76 -0.126,-0.91 -0.7781,-0.91h-0.4737v-0.6h0.5911c1.0563,0 1.391,0.34 1.391,1.41v0.97c0,0.68 0.3912,1.06 1.4083,0.96v0.79c-1.0171,-0.11 -1.4083,0.28 -1.4083,0.95v0.98c0,1.07 -0.3347,1.41 -1.391,1.41zM26.9794,167.86c0,1.48 -0.4433,2.76 -1.3083,3.74h-0.7346c0.8998,-1.27 1.2779,-2.37 1.2779,-3.74c0,-1.36 -0.3781,-2.47 -1.2779,-3.74h0.7346c0.865,0.99 1.3083,2.27 1.3083,3.74z" fill="#EEEEEE"/>
<path d="M46.7579,148.44h-0.6999l0.539,-2.82h0.978z" fill="white"/>
</g>
</g>
</g>
</g>
</g></svg>