<svg viewBox="0 0 1280 63" x="0" y="0" fill="none" xmlns="http://www.w3.org/2000/svg"><defs><clipPath id="clip2_224_100152" xmlns="http://www.w3.org/2000/svg">
<rect width="140" height="63" fill="white" transform="translate(188.33300000000003, 0)"/>
</clipPath><clipPath id="clip3_224_100152" xmlns="http://www.w3.org/2000/svg">
<rect width="160" height="40" fill="white" transform="translate(376.667, 11.5)"/>
</clipPath><clipPath id="clip4_224_100152" xmlns="http://www.w3.org/2000/svg">
<rect width="120" height="52" fill="white" transform="translate(783.333, 5.5)"/>
</clipPath><clipPath id="clip5_224_100152" xmlns="http://www.w3.org/2000/svg">
<rect width="160" height="40" fill="white" transform="translate(951.6700000000001, 11.5)"/>
</clipPath></defs><g id="Auto Layout Horizontal_5" xmlns="http://www.w3.org/2000/svg">
<g id="Frame_15">
<path id="Vector_4" d="M135.739,22.19h4.261v18.55h-4.479l-6.664,-11.93v11.93h-4.288v-18.55h4.479l6.691,12.07zM107.69,21.7c6.145,0 9.778,4.65 9.778,9.74c0,5.09 -3.66,9.74 -9.778,9.74c-6.172,0 -9.805,-4.65 -9.805,-9.74c0,-5.06 3.66,-9.74 9.805,-9.74zM113.126,31.47c0,-3.04 -2.077,-5.89 -5.409,-5.89c-3.386,0 -5.407,2.85 -5.407,5.89c0,3.03 2.048,5.88 5.407,5.88c3.332,-0.03 5.409,-2.85 5.409,-5.88zM38.537,25.89v-3.7h12.673v3.7h-4.206v14.82h-4.288v-14.82zM83.929,29.85h7.019v3.37h-6.991v4.07h6.991v3.45h-11.28v-18.55h11.28v3.45h-6.991v4.21zM65.63,22.19c4.097,0 6.746,3.09 6.746,6.71c0,2.59 -1.365,4.89 -3.687,5.99l3.714,5.85h-4.97l-3.278,-5.14h-2.021v5.14h-4.288v-18.55zM68.034,28.9c0,-1.73 -1.175,-3.21 -2.95,-3.21h-2.922v6.41h2.922c1.802,0 2.95,-1.48 2.95,-3.2zM30.152,38.47h-6.582l-0.71,2.24h-4.5612l6.6092,-18.54h3.933l6.692,18.54h-4.643zM26.875,27.47l-2.267,7.64h4.506zM7.7566,22.19c4.0967,0 6.7459,3.09 6.7459,6.71c0,3.61 -2.6492,6.7 -6.7459,6.7h-3.4687v5.14h-4.2879v-18.55zM10.1873,28.9c0,-1.73 -1.1745,-3.21 -2.9497,-3.21h-2.9497v6.41h2.9224c1.8025,0 2.977,-1.48 2.977,-3.2z" fill="black"/>
</g>
<g id="Frame_16" clip-path="url(#clip2_224_100152)">
<g id="Group">
<path id="Vector_5" d="M262.116,20.43c0,1.57 -1.268,2.84 -2.843,2.84c-1.574,0 -2.843,-1.27 -2.843,-2.84c0,-1.58 1.225,-2.84 2.843,-2.84c1.618,0.04 2.843,1.31 2.843,2.84zM250.395,26.16c0,0.26 0,0.7 0,0.7c0,0 -1.356,-1.75 -4.243,-1.75c-4.767,0 -8.485,3.63 -8.485,8.66c0,4.98 3.674,8.66 8.485,8.66c2.931,0 4.243,-1.8 4.243,-1.8v0.75c0,0.35 0.262,0.61 0.612,0.61h3.543v-16.44c0,0 -3.237,0 -3.543,0c-0.35,0 -0.612,0.3 -0.612,0.61zM250.395,36.7c-0.656,0.96 -1.969,1.79 -3.543,1.79c-2.799,0 -4.942,-1.75 -4.942,-4.72c0,-2.98 2.143,-4.73 4.942,-4.73c1.531,0 2.93,0.88 3.543,1.8zM257.174,25.55h4.198v16.44h-4.198zM319.891,25.11c-2.886,0 -4.242,1.75 -4.242,1.75v-9.23h-4.198v24.36c0,0 3.236,0 3.542,0c0.35,0 0.612,-0.31 0.612,-0.61v-0.75c0,0 1.356,1.8 4.243,1.8c4.767,0 8.485,-3.68 8.485,-8.66c0,-4.99 -3.718,-8.66 -8.442,-8.66zM319.192,38.45c-1.618,0 -2.887,-0.83 -3.543,-1.8v-5.86c0.656,-0.87 2.056,-1.79 3.543,-1.79c2.799,0 4.942,1.75 4.942,4.72c0,2.98 -2.143,4.73 -4.942,4.73zM309.264,32.24v9.79h-4.199v-9.31c0,-2.71 -0.875,-3.81 -3.236,-3.81c-1.269,0 -2.581,0.66 -3.412,1.62v11.46h-4.199v-16.44h3.325c0.35,0 0.611,0.3 0.611,0.61v0.7c1.225,-1.27 2.844,-1.75 4.461,-1.75c1.838,0 3.368,0.52 4.593,1.57c1.487,1.23 2.056,2.8 2.056,5.56zM284.028,25.11c-2.886,0 -4.242,1.75 -4.242,1.75v-9.23h-4.199v24.36c0,0 3.236,0 3.542,0c0.35,0 0.613,-0.31 0.613,-0.61v-0.75c0,0 1.355,1.8 4.242,1.8c4.767,0 8.485,-3.68 8.485,-8.66c0.043,-4.99 -3.674,-8.66 -8.441,-8.66zM283.328,38.45c-1.618,0 -2.886,-0.83 -3.542,-1.8v-5.86c0.656,-0.87 2.055,-1.79 3.542,-1.79c2.799,0 4.942,1.75 4.942,4.72c0,2.98 -2.143,4.73 -4.942,4.73zM271.957,25.11c1.268,0 1.924,0.22 1.924,0.22v3.89c0,0 -3.499,-1.18 -5.686,1.31v11.5h-4.199v-16.48c0,0 3.237,0 3.543,0c0.35,0 0.613,0.3 0.613,0.61v0.7c0.787,-0.92 2.492,-1.75 3.805,-1.75zM228.351,40.5c-0.218,-0.52 -0.437,-1.09 -0.656,-1.57c-0.349,-0.79 -0.699,-1.53 -1.005,-2.23l-0.044,-0.05c-3.018,-6.56 -6.255,-13.2 -9.666,-19.76l-0.131,-0.27c-0.35,-0.65 -0.7,-1.35 -1.05,-2.05c-0.437,-0.79 -0.875,-1.62 -1.574,-2.41c-1.4,-1.75 -3.412,-2.71 -5.555,-2.71c-2.187,0 -4.155,0.96 -5.598,2.62c-0.656,0.79 -1.137,1.62 -1.575,2.41c-0.349,0.7 -0.699,1.4 -1.049,2.06l-0.132,0.26c-3.367,6.56 -6.647,13.21 -9.665,19.77l-0.044,0.08c-0.306,0.7 -0.656,1.45 -1.006,2.23c-0.219,0.49 -0.437,1.01 -0.656,1.58c-0.569,1.62 -0.743,3.15 -0.525,4.72c0.481,3.28 2.668,6.04 5.686,7.26c1.137,0.48 2.318,0.7 3.543,0.7c0.349,0 0.787,-0.04 1.137,-0.08c1.443,-0.18 2.93,-0.66 4.373,-1.49c1.794,-1.01 3.499,-2.45 5.424,-4.55c1.924,2.1 3.674,3.54 5.423,4.55c1.443,0.83 2.93,1.31 4.374,1.49c0.349,0.04 0.787,0.08 1.137,0.08c1.224,0 2.449,-0.22 3.542,-0.7c3.062,-1.22 5.205,-4.02 5.686,-7.26c0.35,-1.53 0.175,-3.06 -0.394,-4.68zM208.626,42.78c-2.361,-2.98 -3.892,-5.78 -4.417,-8.14c-0.219,-1 -0.262,-1.88 -0.131,-2.67c0.087,-0.7 0.35,-1.31 0.7,-1.83c0.831,-1.18 2.23,-1.93 3.848,-1.93c1.619,0 3.062,0.7 3.849,1.93c0.35,0.52 0.612,1.13 0.7,1.83c0.131,0.79 0.087,1.71 -0.131,2.67c-0.525,2.32 -2.056,5.12 -4.418,8.14zM226.077,44.83c-0.306,2.28 -1.837,4.25 -3.98,5.12c-1.049,0.44 -2.187,0.57 -3.324,0.44c-1.093,-0.13 -2.187,-0.48 -3.324,-1.14c-1.574,-0.87 -3.149,-2.23 -4.986,-4.24c2.887,-3.54 4.636,-6.78 5.292,-9.67c0.307,-1.35 0.35,-2.58 0.219,-3.72c-0.175,-1.09 -0.568,-2.09 -1.181,-2.97c-1.356,-1.97 -3.63,-3.1 -6.167,-3.1c-2.536,0 -4.811,1.18 -6.166,3.1c-0.613,0.88 -1.006,1.88 -1.181,2.97c-0.175,1.14 -0.131,2.41 0.218,3.72c0.656,2.89 2.45,6.17 5.293,9.71c-1.794,2.01 -3.412,3.37 -4.986,4.24c-1.138,0.66 -2.231,1.01 -3.324,1.14c-1.181,0.13 -2.318,-0.04 -3.324,-0.44c-2.143,-0.87 -3.674,-2.84 -3.98,-5.11c-0.132,-1.1 -0.044,-2.19 0.393,-3.41c0.131,-0.44 0.35,-0.88 0.569,-1.4c0.306,-0.7 0.656,-1.45 1.006,-2.19l0.043,-0.09c3.018,-6.52 6.255,-13.16 9.622,-19.64l0.132,-0.26c0.35,-0.65 0.699,-1.35 1.049,-2.01c0.35,-0.7 0.744,-1.36 1.225,-1.92c0.918,-1.05 2.143,-1.62 3.499,-1.62c1.356,0 2.58,0.57 3.499,1.62c0.481,0.56 0.874,1.22 1.224,1.92c0.35,0.66 0.7,1.36 1.05,2.01l0.131,0.26c3.324,6.52 6.561,13.17 9.579,19.69v0.04c0.349,0.7 0.656,1.49 1.005,2.19c0.219,0.52 0.438,0.96 0.569,1.4c0.35,1.13 0.481,2.23 0.306,3.36z" fill="black"/>
</g>
</g>
<g id="Frame_17" clip-path="url(#clip3_224_100152)">
<path id="Vector_6" fill-rule="evenodd" clip-rule="evenodd" d="M404.508,44.22c-2.406,2.4 -6.089,2.4 -12.718,2.4c-6.627,0 -10.311,0 -12.718,-2.4c-2.405,-2.41 -2.405,-6.09 -2.405,-12.72c0,-6.63 0,-10.31 2.405,-12.72c2.407,-2.4 6.091,-2.4 12.718,-2.4c6.629,0 10.312,0 12.718,2.4c2.408,2.41 2.408,6.09 2.408,12.72c0,6.63 0,10.31 -2.408,12.72zM393.236,29.56l-9.129,-0.02l-0.002,2.25l8.617,0.01l-0.507,2.25l-8.11,-0.02v2.25l7.602,0.01h-0.012c-0.294,1.14 0.535,2.26 1.673,2.26h1.579l0.872,-2.26h-4.112l0.508,-2.24l5.167,0.01l0.801,-2.25l-5.45,-0.01l0.51,-2.24l7.378,-0.04l0.915,-2.24l-7.783,0.03zM392.424,25.06l-8.317,-0.02l-0.002,2.25l9.647,0.01l0.087,-0.39c0.216,-0.95 -0.475,-1.85 -1.415,-1.85z" fill="black"/>
<path id="Vector_7" d="M430.438,40.24h3.866l0.374,-2.31h0.703c0.562,1.7 2.085,2.55 3.656,2.55c3.255,0 5.247,-2.12 5.247,-6.65c0,-3.99 -1.641,-6.65 -5.155,-6.65c-1.686,0 -3.186,1.01 -3.748,2.52h-0.703l0.234,-3.54v-3.6h-4.474zM434.912,34.23v-0.78c0,-1.65 0.914,-2.66 2.508,-2.66c1.382,0 2.319,0.61 2.319,2.19v1.72c0,1.3 -0.632,2.17 -2.297,2.17c-1.662,0 -2.53,-1.01 -2.53,-2.64zM445.455,33.85c0,3.99 2.601,6.63 6.559,6.63c3.282,0 5.693,-1.75 6.022,-4.43h-4.264c-0.117,0.73 -0.866,1.15 -1.897,1.15c-1.055,0 -1.923,-0.66 -1.923,-1.65v-0.66h7.944c0.14,-0.49 0.186,-1.18 0.186,-1.84c0,-3.82 -2.74,-5.87 -6.207,-5.87c-3.609,0 -6.42,2.4 -6.42,6.67zM449.952,32.2v-0.26c0,-0.85 0.797,-1.46 1.875,-1.46c1.079,0 1.782,0.61 1.782,1.46v0.26zM468.514,27.34c-1.428,0 -2.53,0.83 -2.882,2.88h-0.703l-0.539,-2.81h-5.881v3.61h1.947v9.22h4.474v-5.23c0,-2.69 1.664,-3.44 3.56,-3.44c0.259,0 0.517,0.02 0.797,0.04v-4.2c-0.254,-0.05 -0.513,-0.07 -0.773,-0.07zM470.477,27.41v16.77h4.474v-2.69l-0.235,-3.53h0.704c0.562,1.51 2.062,2.52 3.749,2.52c3.513,0 5.154,-2.67 5.154,-6.65c0,-4.53 -1.992,-6.65 -5.249,-6.65c-1.569,0 -3.092,0.85 -3.654,2.55h-0.704l-0.375,-2.32zM474.951,33.43c0,-1.63 0.868,-2.64 2.531,-2.64c1.663,0 2.295,0.87 2.295,2.17v1.72c0,1.58 -0.936,2.19 -2.318,2.19c-1.594,0 -2.508,-1.01 -2.508,-2.66zM489.88,36.75v-14.19h-4.452v14.27c0,2.05 0.822,3.42 3.398,3.42h3.959v-3.49h-2.905zM493.609,36.63c0,2.36 1.709,3.85 4.333,3.85c2.178,0 3.702,-1.01 4.195,-2.52h0.63v2.28h4.688v-3.3h-1.618v-5.11c0,-2.79 -1.592,-4.65 -5.67,-4.65c-3.748,0 -5.926,1.63 -5.787,4.79h4.101c-0.071,-1.06 0.562,-1.42 1.476,-1.42c0.866,0 1.427,0.36 1.427,1.25v0.9l-3.559,0.23c-2.507,0.17 -4.218,1.35 -4.218,3.71zM498.106,36.02c0,-0.49 0.352,-0.96 1.149,-1.01l2.131,-0.14v1.48c-0.352,0.55 -1.055,0.9 -1.922,0.9c-0.937,0 -1.357,-0.4 -1.357,-0.94zM508.811,40.24h4.476v-6.86c0,-1.51 0.749,-2.57 2.248,-2.57c1.266,0 1.969,0.73 1.969,2.31v7.12h4.497v-8.7c0,-2.62 -1.428,-4.36 -3.982,-4.36c-1.968,0 -3.374,0.92 -4.03,2.52h-0.702l-0.539,-2.29h-3.937zM523.438,33.85c0,3.99 2.602,6.63 6.562,6.63c3.279,0 5.693,-1.75 6.021,-4.43h-4.264c-0.117,0.73 -0.866,1.15 -1.898,1.15c-1.055,0 -1.921,-0.66 -1.921,-1.65v-0.66h7.943c0.14,-0.49 0.187,-1.18 0.187,-1.84c0,-3.82 -2.742,-5.87 -6.209,-5.87c-3.608,0 -6.421,2.4 -6.421,6.67zM527.938,32.2v-0.26c0,-0.85 0.797,-1.46 1.874,-1.46c1.079,0 1.781,0.61 1.781,1.46v0.26zM420.103,27.42h8.831v12.82h-4.496v-9.22h-4.335v9.22h-4.497v-9.22h-2.322v-3.6h2.322v-1.11c0,-0.3 0.004,-0.52 0.011,-0.65c0.008,-0.15 0.032,-0.33 0.07,-0.55c0.044,-0.21 0.114,-0.44 0.205,-0.69c0.451,-1.24 1.599,-1.86 3.443,-1.86h3.649v3.49h-2.881zM424.46,26.05v-3.49h4.474v3.49z" fill="black"/>
</g>
<g id="Frame_18">
<g id="Group_2">
<path id="Vector_8" d="M615.274,25.48c-5.449,0 -9.707,4.14 -9.707,9.67c0,5.54 4.15,9.64 9.707,9.64c5.557,0 9.779,-4.17 9.779,-9.67c0,-5.47 -4.15,-9.64 -9.779,-9.64zM615.311,40.8c-3.103,0 -5.377,-2.41 -5.377,-5.64c0,-3.28 2.237,-5.69 5.34,-5.69c3.14,0 5.412,2.45 5.412,5.69c0,3.23 -2.272,5.64 -5.375,5.64zM626.243,29.69h2.707v14.75h4.33v-18.6h-7.037zM594.67,29.47c2.274,0 4.078,1.41 4.763,3.49h4.583c-0.83,-4.46 -4.511,-7.48 -9.309,-7.48c-5.449,0 -9.707,4.14 -9.707,9.68c0,5.54 4.15,9.64 9.707,9.64c4.691,0 8.443,-3.03 9.274,-7.52h-4.548c-0.649,2.08 -2.454,3.52 -4.727,3.52c-3.14,0 -5.341,-2.41 -5.341,-5.64c0.002,-3.28 2.167,-5.69 5.305,-5.69zM708.514,33.36l-3.175,-0.47c-1.516,-0.21 -2.598,-0.72 -2.598,-1.91c0,-1.29 1.408,-1.94 3.32,-1.94c2.092,0 3.428,0.9 3.716,2.38h4.186c-0.469,-3.74 -3.356,-5.94 -7.794,-5.94c-4.583,0 -7.614,2.34 -7.614,5.65c0,3.16 1.986,5 5.99,5.57l3.175,0.47c1.553,0.22 2.418,0.83 2.418,1.98c0,1.47 -1.515,2.08 -3.608,2.08c-2.562,0 -4.006,-1.04 -4.222,-2.62h-4.258c0.398,3.63 3.247,6.19 8.443,6.19c4.728,0 7.866,-2.16 7.866,-5.87c0,-3.31 -2.272,-5.03 -5.845,-5.57zM631.115,18.18c-1.588,0 -2.779,1.15 -2.779,2.73c0,1.58 1.19,2.74 2.779,2.74c1.588,0 2.779,-1.16 2.779,-2.74c0,-1.58 -1.191,-2.73 -2.779,-2.73zM694.658,32.21c0,-4.03 -2.453,-6.73 -7.649,-6.73c-4.907,0 -7.65,2.48 -8.192,6.3h4.295c0.217,-1.48 1.371,-2.7 3.825,-2.7c2.201,0 3.284,0.97 3.284,2.16c0,1.54 -1.985,1.94 -4.439,2.19c-3.319,0.36 -7.433,1.51 -7.433,5.83c0,3.34 2.491,5.5 6.46,5.5c3.102,0 5.051,-1.3 6.026,-3.35c0.145,1.84 1.515,3.03 3.429,3.03h2.525v-3.85h-2.129v-8.38zM690.4,36.88c0,2.48 -2.164,4.32 -4.799,4.32c-1.624,0 -2.995,-0.68 -2.995,-2.12c0,-1.84 2.201,-2.34 4.221,-2.56c1.949,-0.18 3.032,-0.61 3.573,-1.43zM667.415,25.48c-2.418,0 -4.438,1.01 -5.882,2.7v-10.18h-4.33v26.44h4.258v-2.45c1.443,1.76 3.501,2.81 5.954,2.81c5.196,0 9.13,-4.1 9.13,-9.64c0,-5.54 -4.006,-9.68 -9.13,-9.68zM666.766,40.8c-3.103,0 -5.377,-2.41 -5.377,-5.64c0,-3.24 2.309,-5.69 5.412,-5.69c3.14,0 5.341,2.41 5.341,5.69c0,3.23 -2.273,5.64 -5.376,5.64zM646.847,25.48c-2.815,0 -4.655,1.15 -5.738,2.77v-2.41h-4.294v18.59h4.329v-10.1c0,-2.84 1.805,-4.86 4.475,-4.86c2.49,0 4.041,1.76 4.041,4.32v10.65h4.33v-10.97c0.001,-4.68 -2.416,-7.99 -7.143,-7.99zM735,34.54c0,-5.32 -3.897,-9.06 -9.13,-9.06c-5.557,0 -9.634,4.17 -9.634,9.68c0,5.79 4.366,9.64 9.706,9.64c4.512,0 8.048,-2.67 8.949,-6.44h-4.511c-0.65,1.65 -2.237,2.59 -4.366,2.59c-2.78,0 -4.873,-1.73 -5.341,-4.75h14.326v-1.66zM720.926,33.11c0.687,-2.59 2.635,-3.85 4.872,-3.85c2.454,0 4.33,1.4 4.763,3.85z" fill="black"/>
</g>
</g>
<g id="Frame_19" clip-path="url(#clip4_224_100152)">
<g id="Group_3">
<path id="Vector_9" d="M783.333,33.18c0,-8.8 6.931,-15.08 16.787,-15.08c2.926,0 6.119,0.55 7.91,1.36v5.49h-0.201l-6.853,-4.9c-0.353,-0.12 -1.091,-0.2 -1.79,-0.2c-5.185,0 -8.845,4.83 -8.845,11.49c0,7.44 4.561,13.24 10.357,13.24c0.393,-0.01 0.784,-0.05 1.17,-0.12l-0.112,-0.05v-12.36l-1.757,-2.15v-0.2h10.244v0.2l-1.757,2.15v14.37h-0.2l-4.439,-1.36c-1.713,0.85 -4.361,1.48 -6.742,1.48c-8.165,0 -13.772,-5.42 -13.772,-13.36zM814.983,29.4l-2.07,-2.06v-0.16l7.365,-1.95h0.389l0.277,4.17h0.233c1.68,-2.96 3.16,-4.17 5.028,-4.17c0.779,0 1.447,0.24 1.791,0.55v6.3h-0.2l-3.936,-2.64c-0.117,-0.03 -0.236,-0.04 -0.356,-0.04c-0.812,0 -1.98,0.78 -2.369,1.72v12.77l2.057,1.87v0.2h-9.967v-0.2l1.758,-1.87zM829.667,45.95v-0.16l1.757,-1.91v-14.48l-2.068,-2.02v-0.2l7.831,-1.95h0.389v18.66l1.758,1.91v0.16h-9.667zM831.145,19.05c0,-1.92 1.291,-3.08 3.349,-3.08c2.057,0 3.348,1.16 3.348,3.08c0,1.87 -1.279,3.03 -3.348,3.03c-2.07,0 -3.349,-1.16 -3.349,-3.03zM842.193,45.95v-0.2l1.758,-1.87v-15.84h-2.77v-0.16l2.803,-2.41c0.857,-5.66 4.328,-9.5 8.566,-9.5c1.057,0 2.305,0.23 2.803,0.51l-0.622,5.1h-0.201l-5.573,-2.46c-1.212,0.13 -2.259,2.11 -2.259,3.9c0,2.3 1.758,3.58 4.749,3.58h5.184c0.312,-5.99 3.66,-10.63 7.832,-10.63c0.979,0 2.147,0.23 2.692,0.51l-0.667,5.06h-0.201l-4.949,-2.34c-1.134,0.11 -2.024,1.79 -2.024,3.63c0,2.49 1.636,3.78 4.795,3.78h11.915l-0.313,2.23v15.12l1.758,1.84v0.15h-9.689v-0.15l1.791,-1.92v-15.84h-6.82v15.85l2.337,1.87v0.2h-10.282v-0.2l1.791,-1.92v-15.8h-6.505v15.85l2.336,1.87v0.2h-10.235zM869.304,19.05c0,-1.92 1.279,-3.08 3.349,-3.08c2.102,0 3.393,1.16 3.393,3.08c0,1.87 -1.292,3.03 -3.393,3.03c-2.07,0 -3.349,-1.16 -3.349,-3.03zM888.26,43.89l1.758,1.87v0.2h-9.667v-0.2l1.758,-1.87v-14.48l-2.07,-2.07v-0.2l7.365,-1.91h0.389l0.277,3.66h0.267c2.135,-2.46 4.438,-3.66 7.008,-3.66c3.471,0 5.884,2.26 5.884,5.45v13.2l1.758,1.87v0.2h-9.7v-0.2l1.791,-1.99v-11.86c0,-1.91 -1.168,-3.08 -3.038,-3.08c-1.244,0 -2.489,0.5 -3.78,1.52z" fill="black"/>
</g>
</g>
<g id="Frame_20" clip-path="url(#clip5_224_100152)">
<path id="Vector_10" d="M995.67,21.5l-0.06,0.02v8.51h-8.08v-8.51l-0.05,-0.02c-1.2,-0.25 -2.39,-0.25 -3.57,0l-0.05,0.02v19.58l0.05,0.02c0.59,0.11 1.18,0.19 1.77,0.19c0.6,0 1.19,-0.06 1.8,-0.19l0.05,-0.02v-7.94h8.08v7.94l0.06,0.02c1.18,0.25 2.38,0.25 3.56,0l0.05,-0.02v-19.58l-0.05,-0.02c-1.2,-0.23 -2.38,-0.23 -3.56,0zM1008.18,27c-4.23,0 -6.74,2.67 -6.74,7.15c0,2.32 0.53,4.17 1.6,5.44c1.16,1.4 2.89,2.1 5.2,2.1c3.9,0 5.9,-2.32 6.15,-4.63v-0.06l-0.06,-0.01c-0.99,-0.33 -1.9,-0.4 -2.99,-0.25h-0.04v0.04c-0.23,1.37 -1.37,2.19 -3.02,2.19c-2.33,0 -3.47,-1.28 -3.51,-3.91h9.83v-0.06c0.28,-2.59 -0.23,-4.68 -1.49,-6.11c-1.16,-1.22 -2.85,-1.89 -4.93,-1.89zM1008.14,29.54c0.97,0 1.79,0.3 2.34,0.89c0.58,0.61 0.86,1.53 0.8,2.61h-6.51c0.06,-2.23 1.3,-3.5 3.37,-3.5zM1016.98,21.5l-0.06,0.02v19.58l0.06,0.02c0.55,0.11 1.1,0.19 1.68,0.19c0.55,0 1.12,-0.06 1.67,-0.19l0.06,-0.02v-19.58l-0.06,-0.02c-1.1,-0.25 -2.23,-0.23 -3.35,0zM1030.03,27c-1.47,0 -3.01,0.58 -4.48,1.66l-0.21,-1.03l-0.04,-0.02c-0.83,-0.24 -1.52,-0.24 -2.34,0l-0.04,0.02v19.49l0.06,0.02c0.55,0.11 1.1,0.19 1.68,0.19c0.57,0 1.12,-0.06 1.67,-0.19l0.06,-0.02v-6.52c1.16,0.75 2.4,1.09 3.79,1.09c3.85,0 6.15,-2.72 6.15,-7.31c-0.02,-4.67 -2.3,-7.38 -6.3,-7.38zM1026.33,30.87c1.03,-0.7 1.98,-1.03 3.01,-1.03c2.34,0 3.62,1.62 3.62,4.59c0,2.92 -1.26,4.46 -3.66,4.46c-1.03,0 -2,-0.32 -2.97,-1.01zM1051.02,30.57c-0.59,-0.23 -1.13,-0.42 -1.64,-0.59c-2.67,-0.96 -4.27,-1.53 -4.31,-2.98c-0.01,-0.66 0.19,-1.23 0.65,-1.71c0.67,-0.69 1.79,-1.05 3.16,-1.05c1.36,0 2.4,0.36 3.03,1.03c0.54,0.57 0.76,1.35 0.71,2.32v0.06l0.05,0.02c1.17,0.23 2.33,0.21 3.59,-0.08l0.05,-0.01v-0.06c0.08,-1.64 -0.42,-3.07 -1.43,-4.13c-1.25,-1.34 -3.27,-2.04 -5.82,-2.06h-0.08c-4.74,0 -7.6,2.11 -7.64,5.66c-0.02,3.52 3.22,4.7 5.16,5.39l0.29,0.11c0.65,0.23 1.26,0.44 1.79,0.63c2.63,0.91 4.21,1.47 4.27,2.86c0.01,0.72 -0.19,1.31 -0.63,1.77c-0.63,0.64 -1.74,0.97 -3.2,0.95c-1.62,0 -2.86,-0.42 -3.56,-1.18c-0.52,-0.57 -0.73,-1.3 -0.65,-2.17v-0.06l-0.06,-0.02c-1.18,-0.23 -2.38,-0.21 -3.56,0.06l-0.04,0.02v0.05c-0.09,1.59 0.38,2.99 1.41,4.08c1.37,1.47 3.62,2.23 6.51,2.21c2.84,0 7.51,-0.76 7.55,-5.71c-0.06,-3.3 -2.88,-4.37 -5.6,-5.41zM1065.13,29.84c2.34,0 2.9,1.53 3.01,2.42v0.06h0.06c1.08,0.17 2.11,0.09 3.1,-0.19l0.06,-0.02v-0.06c-0.1,-1.37 -0.69,-2.61 -1.66,-3.5c-1.1,-1.01 -2.68,-1.56 -4.55,-1.56c-4.46,0 -6.91,2.6 -6.91,7.35c0,4.72 2.43,7.33 6.85,7.33c1.91,0 3.51,-0.55 4.63,-1.6c0.93,-0.88 1.51,-2.06 1.62,-3.33v-0.06l-0.06,-0.02c-0.93,-0.32 -1.96,-0.38 -3.08,-0.19h-0.04v0.04c-0.31,2.13 -2.38,2.28 -3.01,2.28c-2.4,0 -3.52,-1.42 -3.52,-4.49c-0.02,-3.03 1.1,-4.46 3.5,-4.46zM1079.8,27c-4.38,0 -6.8,2.61 -6.8,7.36c0,4.72 2.42,7.33 6.8,7.33c4.38,0 6.8,-2.61 6.8,-7.33c0,-4.75 -2.42,-7.36 -6.8,-7.36zM1083.28,34.38c0,3.02 -1.14,4.49 -3.48,4.49c-2.35,0 -3.49,-1.47 -3.49,-4.49c0,-3.09 1.11,-4.54 3.49,-4.54c2.34,0 3.48,1.49 3.48,4.54zM1097.57,27.63l-0.06,0.02v9.75c-1.1,0.96 -2.11,1.38 -3.27,1.38c-1.64,0 -2.35,-0.94 -2.35,-3.15v-8l-0.05,-0.02c-1.11,-0.26 -2.23,-0.26 -3.36,0l-0.05,0.02v8.78c0,3.34 1.79,5.26 4.93,5.26c1.68,0 3.14,-0.65 4.72,-2.09l0.33,1.52l0.03,0.02c0.8,0.21 1.64,0.21 2.44,0l0.06,-0.02v-13.47l-0.06,-0.02c-1.06,-0.26 -2.19,-0.26 -3.31,0.02zM1111.49,38.49l-0.02,-0.06l-0.05,0.02c-1.34,0.31 -2.12,0.29 -2.58,-0.07c-0.38,-0.31 -0.55,-0.84 -0.55,-1.68v-6.25h2.71l0.02,-0.06c0.19,-0.91 0.19,-1.84 0,-2.78l-0.02,-0.05h-2.71v-3.7l-0.05,-0.02c-1.11,-0.25 -2.23,-0.25 -3.34,0l-0.06,0.02l0.02,3.7h-1.71l-0.02,0.05c-0.21,0.92 -0.21,1.87 0,2.78l0.02,0.06h1.71l0.02,6c0,1.68 0.1,3.37 1.26,4.34c0.63,0.52 1.54,0.79 2.72,0.79c0.73,0 1.57,-0.1 2.54,-0.29h0.04l0.01,-0.04c0.27,-0.89 0.29,-1.83 0.04,-2.76z" fill="black"/>
<path id="Vector_11" d="M953.55,34.01l9.26,-9.25c1.2,-1.18 1.94,-2.84 1.94,-4.65c0,-1.79 -0.72,-3.43 -1.88,-4.61l-9.26,9.26c-1.2,1.18 -1.94,2.84 -1.94,4.64c0,1.81 0.72,3.43 1.88,4.61zM975.97,28.6l-9.26,9.26c-1.2,1.18 -1.94,2.84 -1.94,4.65c0,1.79 0.73,3.43 1.89,4.61l9.25,-9.26c1.2,-1.18 1.95,-2.84 1.95,-4.65c0,-1.81 -0.73,-3.42 -1.89,-4.61zM975.91,24.78c1.2,-1.18 1.95,-2.84 1.95,-4.65c0,-1.79 -0.73,-3.43 -1.89,-4.61l-22.36,22.34c-1.2,1.2 -1.94,2.84 -1.94,4.67c0,1.79 0.72,3.43 1.88,4.61z" fill="black"/>
</g>
<g id="Frame_21">
<g id="Group_4">
<g id="Group_5">
<path id="Vector_12" fill-rule="evenodd" clip-rule="evenodd" d="M1223.08,23.85c-1,-0.84 -2.71,-1.26 -5.14,-1.26h-5.46v16.88h4.09v-5.29h1.83c2.22,0 3.85,-0.49 4.88,-1.47c1.17,-1.09 1.76,-2.55 1.76,-4.38c0,-1.89 -0.65,-3.38 -1.96,-4.48zM1218.29,30.36h-1.72v-3.95h1.55c1.89,0 2.83,0.66 2.83,1.99c0,1.3 -0.88,1.96 -2.66,1.96zM1232.03,22.59h-4.26v16.88h9.2v-3.82h-4.94zM1245.32,22.59l-6.7,16.88h4.59l0.88,-2.45h5.81l0.81,2.45h4.64l-6.65,-16.88zM1245.27,33.6l1.75,-5.77l1.73,5.77z" fill="black"/>
<path id="Vector_13" fill-rule="evenodd" clip-rule="evenodd" d="M1257.47,39.47h4.27v-16.88h-4.27zM1278.28,25.75c-0.54,-0.78 -1.23,-1.44 -2.03,-1.95c-1.29,-0.81 -3.04,-1.21 -5.26,-1.21h-5.62v16.88h6.57c2.37,0 4.28,-0.77 5.71,-2.33c1.44,-1.55 2.16,-3.61 2.16,-6.17c0,-2.05 -0.51,-3.78 -1.53,-5.22zM1271.46,35.65h-1.83v-9.24h1.86c1.3,0 2.3,0.41 3.01,1.22c0.7,0.81 1.05,1.97 1.05,3.46c0,3.04 -1.36,4.56 -4.09,4.56zM1177.88,8.408l-13.81,3.612l-3.8,13.89l4.76,4.89l-4.84,4.81l3.58,13.95l13.75,3.84l4.84,-4.81l4.76,4.89l13.81,-3.62l3.81,-13.89l-4.76,-4.88l4.83,-4.81l-3.58,-13.95l-13.75,-3.843l-4.84,4.803zM1169.41,14.7l7.27,-1.91l3.18,3.27l-4.64,4.61zM1185.38,16.1l3.23,-3.21l7.24,2.02l-5.91,5.88zM1164.62,24.77l2.01,-7.31l5.81,5.97l-4.63,4.61zM1192.68,23.59l5.91,-5.87l1.88,7.35l-3.23,3.21zM1177.96,23.47l4.64,-4.61l4.56,4.69l-4.64,4.61zM1170.54,30.84l4.64,-4.61l4.57,4.69l-4.65,4.61zM1185.26,30.96l4.64,-4.61l4.56,4.69l-4.64,4.61zM1164.53,36.82l3.23,-3.21l4.57,4.68l-5.91,5.88zM1177.84,38.34l4.64,-4.61l4.56,4.68l-4.64,4.61zM1192.56,38.46l4.64,-4.61l3.18,3.26l-2.01,7.32zM1169.15,46.97l5.91,-5.87l4.57,4.68l-3.24,3.22zM1185.14,45.83l4.64,-4.61l5.81,5.97l-7.27,1.9z" fill="black"/>
</g>
</g>
</g>
</g></svg>