<svg viewBox="0 0 183.9115 18.5596" x="0" y="0" fill="none" xmlns="http://www.w3.org/2000/svg"><path id="Vector_27" d="M100.1884,0c-6.522,0 -9.901,3.94 -9.901,9.25c0,5.33 3.379,9.3 9.901,9.3c6.544,0 9.923,-3.97 9.923,-9.3c0.01,-5.31 -3.379,-9.25 -9.923,-9.25zM156.7304,0c-5.518,0 -8.287,2.16 -8.287,5.97c0,3.1 1.84,4.57 5.646,4.97l4.234,0.44c1.615,0.18 2.352,0.79 2.352,1.58c0,0.91 -1.079,1.72 -3.677,1.72c-3.005,0 -4.214,-0.75 -4.417,-2.25h-4.394c0.203,4.06 2.887,6.13 8.65,6.13c5.26,0 8.2,-2.27 8.2,-5.69c0,-2.98 -1.742,-4.76 -5.035,-5.13l-4.17,-0.46c-2.438,-0.27 -3.047,-0.87 -3.047,-1.68c0,-0.9 1.251,-1.71 3.699,-1.71c2.353,0 3.582,0.86 3.806,2.16h4.482c-0.226,-3.74 -3.402,-6.05 -8.042,-6.05zM54.4034,0.42v11.42c0,5.09 4.619,6.68 8.489,6.68c3.85,0 8.447,-1.59 8.447,-6.68v-11.42h-4.576v10.91h0.021c0,2.29 -1.432,3.21 -3.88,3.21c-2.374,0 -3.925,-0.96 -3.925,-3.21v-10.91zM16.0064,0.48l-16.006,9.78v7.86h0.138l16.049,-9.82h8.329c0.257,0 0.493,0.2 0.493,0.48c0,0.23 -0.107,0.33 -0.235,0.4l-7.881,4.65c-0.514,0.3 -0.695,0.9 -0.695,1.35l-0.012,2.94h10.02v-17.03c0,-0.32 -0.257,-0.61 -0.642,-0.61zM41.0384,0.48l-6.877,17.64h4.727l1.197,-3.3h7.678l1.176,3.3h4.886l-6.961,-17.64zM73.4364,0.48v3.82h5.784v13.82h4.566v-13.82h5.763v-3.82zM112.6014,0.48v17.64h8.384c6.427,0 8.201,-2.36 8.201,-8.95c0,-6.19 -1.7,-8.69 -8.201,-8.69zM131.7424,0.48v17.64h14.435v-3.82h-9.859v-3.2h7.934v-3.82h-7.934v-2.98h9.859v-3.82zM167.3684,0.48l0.022,17.64h4.556v-6.7l6.18,6.7h5.785l-8.341,-8.71l8.341,-8.93h-5.443l-6.522,7.16v-7.16zM100.1884,3.96c3.411,0 5.24,2.05 5.24,5.29c0.01,3.32 -1.829,5.33 -5.24,5.33c-3.379,0 -5.239,-2.03 -5.239,-5.33c0,-3.24 1.86,-5.29 5.239,-5.29zM43.9564,4.15l2.47,6.91h-4.983zM117.1684,4.3h3.635c2.866,0 3.721,0.77 3.721,4.87c0,3.74 -0.962,5.13 -3.721,5.13h-3.635z" fill="black" xmlns="http://www.w3.org/2000/svg"/></svg>