<svg viewBox="0 0 257.2034 185.4594" fill="none" xmlns="http://www.w3.org/2000/svg" xmlns:xlink="http://www.w3.org/1999/xlink" id="4bc30add" x="0" y="0"><g id="Homepage" data-node-id="224:100152" clip-path="url(#clip0_224_100152)"><g id="Switch Mobile=No, Dark=No_3" data-node-id="801:14321"><g id="Auto Layout Horizontal_26" data-node-id="801:14323"><g id="Auto Layout Horizontal_27" data-node-id="801:14324"><g id="Frame_73" data-node-id="801:14348"><g clip-path="url(#clip14_224_100152)"><g id="Image_12" data-node-id="801:14354"><path id="Vector_25" data-node-id="801:14356" d="M37.8037,161.7294c-8.633,-23.71 -27.931,-8.73 -37.215,1.74v24.71h254.845v-79.98c-3.25,-1.43 -10.39,-0.83 -12.62,9.45c-7.57,29.6 -22.71,28.34 -27.77,10.68c-4.18,-35.71 1.39,-68.56 -12.53,-71.42c-16.71,-4.28 -12.53,-24.28 -13.93,-39.99c-4.18,-22.85 -25.06,-18.57 -25.06,4.28c0,22.86 0,45.71 -11.14,51.42c-23.68,11.43 -8.82,64.97 -19.96,72.11c-25.06,12.85 -15.72,-36.53 -29.65,-36.53c-11.14,0 -14.45,-9.87 -14.45,-15.58c-4.18,-47.13 -26.46,-4.29 -26.46,38.56c0,42.85 -13.97,58.26 -24.06,30.55z" fill="#F9F9F9"/><path id="Vector_26" data-node-id="801:14364" d="M1.7697,162.5294c9.241,-10.29 29.663,-24.97 37.424,-1.41c9.7,29.46 23.57,9.82 23.57,-32.26c0,-42.08 22.17,-84.16 26.33,-37.87c0,5.61 2.77,16.83 13.86,16.83c13.86,0 5.55,49.1 30.5,36.47c11.09,-7.01 -4.16,-61.72 19.4,-72.94c11.09,-5.61 11.09,-28.05 11.09,-50.49c0,-22.45 20.79,-26.66 24.95,-4.21c1.39,15.43 -2.77,35.06 13.86,39.27c13.87,2.81 8.32,35.07 12.48,70.14c4.16,21.04 20.79,19.63 27.72,-9.82c2.22,-10.1 9.24,-9.82 12.48,-8.42" stroke="black" stroke-width="3.53945" stroke-linecap="round"/></g></g></g></g></g></g></g><defs><clipPath id="clip0_224_100152">
<rect width="1440" height="6831" fill="white" x="-964.7263" y="-3683.0406"/>
</clipPath><clipPath id="clip14_224_100152">
<rect x="-228.72630000000004" y="-213.0405999999998" width="570" height="398" rx="8" fill="white"/>
</clipPath></defs></svg>