<svg viewBox="0 0 304 34" x="0" y="0" fill="none" xmlns="http://www.w3.org/2000/svg"><g id="Frame_53" xmlns="http://www.w3.org/2000/svg">
<g id="Frame_54">
<path id="Member profiles" d="M111.941,4v-7.63h1.566l2.295,5.87h0.09l2.29,-5.87h1.566v7.63h-1.227v-5.43h-0.095l-2.116,5.43h-0.931l-2.115,-5.43h-0.09v5.43zM123.968,4.12c-1.719,0 -2.761,-1.16 -2.761,-3v0c0,-1.82 1.053,-3.01 2.698,-3.01c1.645,0 2.66,1.15 2.66,2.9v0.43h-4.041c0.016,1.04 0.577,1.64 1.471,1.64c0.714,0 1.121,-0.36 1.248,-0.62l0.016,-0.04h1.253l-0.016,0.05c-0.185,0.74 -0.957,1.65 -2.528,1.65zM123.921,-0.86c-0.735,0 -1.286,0.5 -1.386,1.42h2.745c-0.09,-0.95 -0.624,-1.42 -1.359,-1.42zM127.882,4v-5.78h1.317v0.9h0.09c0.248,-0.65 0.83,-1.01 1.587,-1.01c0.782,0 1.353,0.4 1.602,1.04h0.09c0.28,-0.63 0.947,-1.04 1.751,-1.04c1.163,0 1.861,0.71 1.861,1.91v3.98h-1.317v-3.65c0,-0.76 -0.343,-1.14 -1.047,-1.14c-0.687,0 -1.132,0.52 -1.132,1.18v3.61h-1.317v-3.75c0,-0.64 -0.396,-1.04 -1.042,-1.04c-0.65,0 -1.126,0.55 -1.126,1.27v3.52zM140.956,4.1c-0.809,0 -1.438,-0.38 -1.756,-1h-0.09v0.9h-1.317v-8.02h1.317v3.16h0.09c0.302,-0.62 0.963,-1.02 1.756,-1.02c1.465,0 2.375,1.15 2.375,2.99v0.01c0,1.83 -0.926,2.98 -2.375,2.98zM140.544,2.98c0.899,0 1.443,-0.7 1.443,-1.86v-0.01c0,-1.17 -0.544,-1.88 -1.443,-1.88c-0.894,0 -1.45,0.72 -1.45,1.88v0.01c0,1.16 0.556,1.86 1.45,1.86zM147.123,4.12c-1.719,0 -2.761,-1.16 -2.761,-3v0c0,-1.82 1.053,-3.01 2.697,-3.01c1.645,0 2.661,1.15 2.661,2.9v0.43h-4.041c0.016,1.04 0.577,1.64 1.47,1.64c0.714,0 1.122,-0.36 1.249,-0.62l0.015,-0.04h1.254l-0.016,0.05c-0.185,0.74 -0.957,1.65 -2.528,1.65zM147.075,-0.86c-0.735,0 -1.285,0.5 -1.385,1.42h2.745c-0.09,-0.95 -0.625,-1.42 -1.36,-1.42zM151.037,4v-5.78h1.317v0.89h0.089c0.196,-0.62 0.725,-0.99 1.487,-0.99c0.201,0 0.407,0.03 0.534,0.07v1.18c-0.212,-0.05 -0.429,-0.08 -0.656,-0.08c-0.878,0 -1.454,0.53 -1.454,1.35v3.36zM111.804,22.92v-7.7h1.317v0.9h0.09c0.317,-0.63 0.946,-1 1.756,-1c1.449,0 2.374,1.16 2.374,2.99v0.01c0,1.84 -0.909,2.98 -2.374,2.98c-0.794,0 -1.455,-0.4 -1.756,-1.02h-0.09v2.84zM114.554,19.98c0.899,0 1.444,-0.7 1.444,-1.86v-0.01c0,-1.17 -0.545,-1.88 -1.444,-1.88c-0.894,0 -1.449,0.71 -1.449,1.87v0.01c0,1.16 0.555,1.87 1.449,1.87zM118.669,21v-5.78h1.317v0.89h0.09c0.195,-0.62 0.724,-0.99 1.486,-0.99c0.201,0 0.407,0.03 0.534,0.07v1.18c-0.212,-0.05 -0.428,-0.08 -0.656,-0.08c-0.878,0 -1.454,0.53 -1.454,1.35v3.36zM125.523,21.12c-1.735,0 -2.782,-1.14 -2.782,-3.01v-0.01c0,-1.85 1.063,-2.99 2.782,-2.99c1.724,0 2.782,1.13 2.782,2.99v0.01c0,1.87 -1.052,3.01 -2.782,3.01zM125.523,20.05c0.915,0 1.433,-0.72 1.433,-1.93v-0.01c0,-1.22 -0.523,-1.94 -1.433,-1.94c-0.915,0 -1.438,0.72 -1.438,1.94v0.01c0,1.21 0.523,1.93 1.438,1.93zM130.05,21v-4.76h-0.946v-1.02h0.946v-0.57c0,-1.15 0.588,-1.72 1.873,-1.72c0.28,0 0.518,0.02 0.73,0.05v0.92c-0.101,-0.01 -0.265,-0.02 -0.45,-0.02c-0.619,0 -0.857,0.29 -0.857,0.84v0.5h1.254v1.02h-1.233v4.76zM134.546,14.25c-0.434,0 -0.788,-0.34 -0.788,-0.78c0,-0.42 0.354,-0.77 0.788,-0.77c0.428,0 0.783,0.35 0.783,0.77c0,0.44 -0.355,0.78 -0.783,0.78zM133.885,21v-5.78h1.317v5.78zM136.873,21v-8.02h1.317v8.02zM142.331,21.12c-1.719,0 -2.761,-1.16 -2.761,-3v0c0,-1.82 1.053,-3.01 2.698,-3.01c1.645,0 2.66,1.15 2.66,2.9v0.43h-4.041c0.016,1.04 0.577,1.64 1.471,1.64c0.714,0 1.121,-0.36 1.248,-0.62l0.016,-0.04h1.253l-0.016,0.05c-0.185,0.74 -0.957,1.65 -2.528,1.65zM142.284,16.14c-0.736,0 -1.286,0.5 -1.386,1.42h2.745c-0.09,-0.95 -0.624,-1.42 -1.359,-1.42zM148.429,21.12c-1.47,0 -2.359,-0.68 -2.47,-1.66v-0.01h1.307l0.005,0.01c0.137,0.4 0.524,0.68 1.179,0.68c0.656,0 1.111,-0.29 1.111,-0.73v-0.01c0,-0.34 -0.254,-0.56 -0.888,-0.7l-0.937,-0.21c-1.1,-0.25 -1.623,-0.76 -1.623,-1.62v0c0,-1.04 0.952,-1.76 2.316,-1.76c1.407,0 2.248,0.7 2.333,1.63v0.01h-1.238l-0.005,-0.01c-0.095,-0.37 -0.476,-0.66 -1.095,-0.66c-0.587,0 -1.01,0.28 -1.01,0.72v0c0,0.34 0.243,0.55 0.867,0.69l0.936,0.2c1.132,0.26 1.666,0.74 1.666,1.58v0.01c0,1.1 -1.031,1.84 -2.454,1.84z" fill="#171717"/>
</g>
<g id="Frame_55">
<path id="Automatic portfolios of your work." d="M71.365,21l2.814,-7.63h0.941l2.814,7.63h-1l-0.767,-2.18h-3.036l-0.766,2.18zM74.607,14.6l-1.195,3.41h2.475l-1.195,-3.41zM80.8,21.1c-1.296,0 -1.962,-0.76 -1.962,-2.11v-3.69h0.92v3.47c0,1.02 0.371,1.52 1.28,1.52c1.005,0 1.539,-0.62 1.539,-1.62v-3.37h0.921v5.7h-0.921v-0.85h-0.084c-0.281,0.61 -0.857,0.95 -1.693,0.95zM87.242,21.04c-1.174,0 -1.666,-0.43 -1.666,-1.52v-3.46h-0.899v-0.76h0.899v-1.48h0.952v1.48h1.248v0.76h-1.248v3.23c0,0.67 0.233,0.94 0.825,0.94c0.164,0 0.254,-0.01 0.423,-0.02v0.78c-0.18,0.03 -0.354,0.05 -0.534,0.05zM91.41,21.1c-1.624,0 -2.629,-1.12 -2.629,-2.95v-0.01c0,-1.83 1.005,-2.94 2.629,-2.94c1.623,0 2.628,1.11 2.628,2.94v0.01c0,1.83 -1.005,2.95 -2.628,2.95zM91.41,20.29c1.079,0 1.687,-0.79 1.687,-2.14v-0.01c0,-1.34 -0.608,-2.13 -1.687,-2.13c-1.079,0 -1.687,0.79 -1.687,2.13v0.01c0,1.35 0.608,2.14 1.687,2.14zM95.466,21v-5.7h0.921v0.87h0.084c0.254,-0.62 0.793,-0.97 1.539,-0.97c0.772,0 1.312,0.41 1.576,1h0.085c0.307,-0.61 0.957,-1 1.745,-1c1.164,0 1.814,0.66 1.814,1.86v3.94h-0.92v-3.73c0,-0.84 -0.386,-1.26 -1.19,-1.26c-0.793,0 -1.317,0.6 -1.317,1.32v3.67h-0.92v-3.87c0,-0.68 -0.466,-1.12 -1.185,-1.12c-0.746,0 -1.311,0.65 -1.311,1.46v3.53zM106.456,21.1c-1.084,0 -1.903,-0.66 -1.903,-1.69v-0.01c0,-1.02 0.751,-1.61 2.078,-1.68l1.634,-0.1v-0.52c0,-0.71 -0.428,-1.09 -1.28,-1.09c-0.682,0 -1.131,0.26 -1.28,0.7l-0.005,0.02h-0.92l0.005,-0.04c0.148,-0.89 1.016,-1.49 2.232,-1.49c1.391,0 2.169,0.71 2.169,1.9v3.9h-0.921v-0.84h-0.084c-0.36,0.61 -0.958,0.94 -1.725,0.94zM105.494,19.39c0,0.57 0.492,0.91 1.153,0.91c0.936,0 1.618,-0.61 1.618,-1.43v-0.51l-1.523,0.09c-0.867,0.05 -1.248,0.36 -1.248,0.93zM112.893,21.04c-1.174,0 -1.666,-0.43 -1.666,-1.52v-3.46h-0.899v-0.76h0.899v-1.48h0.952v1.48h1.248v0.76h-1.248v3.23c0,0.67 0.233,0.94 0.825,0.94c0.164,0 0.254,-0.01 0.423,-0.02v0.78c-0.18,0.03 -0.354,0.05 -0.534,0.05zM115.289,14.2c-0.349,0 -0.635,-0.29 -0.635,-0.64c0,-0.35 0.286,-0.63 0.635,-0.63c0.349,0 0.635,0.28 0.635,0.63c0,0.35 -0.286,0.64 -0.635,0.64zM114.823,21v-5.7h0.921v5.7zM119.811,21.1c-1.597,0 -2.618,-1.16 -2.618,-2.97v-0.01c0,-1.77 1.015,-2.92 2.613,-2.92c1.385,0 2.216,0.8 2.385,1.81l0.005,0.03h-0.915l-0.005,-0.01c-0.143,-0.56 -0.651,-1.02 -1.47,-1.02c-1.026,0 -1.672,0.83 -1.672,2.11v0.01c0,1.32 0.656,2.16 1.672,2.16c0.766,0 1.253,-0.34 1.465,-0.98l0.01,-0.03h0.91l-0.011,0.05c-0.232,1.04 -0.999,1.77 -2.369,1.77zM126.586,22.9v-7.6h0.92v0.91h0.085c0.349,-0.64 0.983,-1.01 1.777,-1.01c1.444,0 2.39,1.17 2.39,2.94v0.01c0,1.79 -0.941,2.95 -2.39,2.95c-0.783,0 -1.465,-0.39 -1.777,-1h-0.085v2.8zM129.156,20.29c1.042,0 1.661,-0.81 1.661,-2.14v-0.01c0,-1.32 -0.619,-2.13 -1.661,-2.13c-1.036,0 -1.671,0.82 -1.671,2.13v0.01c0,1.32 0.635,2.14 1.671,2.14zM135.54,21.1c-1.624,0 -2.629,-1.12 -2.629,-2.95v-0.01c0,-1.83 1.005,-2.94 2.629,-2.94c1.624,0 2.628,1.11 2.628,2.94v0.01c0,1.83 -1.004,2.95 -2.628,2.95zM135.54,20.29c1.079,0 1.687,-0.79 1.687,-2.14v-0.01c0,-1.34 -0.608,-2.13 -1.687,-2.13c-1.079,0 -1.687,0.79 -1.687,2.13v0.01c0,1.35 0.608,2.14 1.687,2.14zM139.596,21v-5.7h0.921v0.84h0.084c0.217,-0.59 0.751,-0.94 1.524,-0.94c0.174,0 0.37,0.02 0.46,0.04v0.89c-0.191,-0.03 -0.365,-0.05 -0.566,-0.05c-0.878,0 -1.502,0.55 -1.502,1.39v3.53zM145.853,21.04c-1.174,0 -1.666,-0.43 -1.666,-1.52v-3.46h-0.899v-0.76h0.899v-1.48h0.952v1.48h1.248v0.76h-1.248v3.23c0,0.67 0.233,0.94 0.825,0.94c0.164,0 0.254,-0.01 0.423,-0.02v0.78c-0.179,0.03 -0.354,0.05 -0.534,0.05zM148.143,21v-4.94h-0.946v-0.76h0.946v-0.64c0,-1.13 0.571,-1.68 1.656,-1.68c0.222,0 0.423,0.02 0.613,0.05v0.74c-0.111,-0.02 -0.264,-0.03 -0.428,-0.03c-0.656,0 -0.92,0.33 -0.92,0.95v0.61h1.295v0.76h-1.295v4.94zM153.786,21.1c-1.623,0 -2.628,-1.12 -2.628,-2.95v-0.01c0,-1.83 1.005,-2.94 2.628,-2.94c1.624,0 2.629,1.11 2.629,2.94v0.01c0,1.83 -1.005,2.95 -2.629,2.95zM153.786,20.29c1.079,0 1.688,-0.79 1.688,-2.14v-0.01c0,-1.34 -0.609,-2.13 -1.688,-2.13c-1.078,0 -1.687,0.79 -1.687,2.13v0.01c0,1.35 0.609,2.14 1.687,2.14zM157.896,21v-7.97h0.92v7.97zM161.069,14.2c-0.349,0 -0.634,-0.29 -0.634,-0.64c0,-0.35 0.285,-0.63 0.634,-0.63c0.349,0 0.635,0.28 0.635,0.63c0,0.35 -0.286,0.64 -0.635,0.64zM160.604,21v-5.7h0.92v5.7zM165.602,21.1c-1.624,0 -2.629,-1.12 -2.629,-2.95v-0.01c0,-1.83 1.005,-2.94 2.629,-2.94c1.623,0 2.628,1.11 2.628,2.94v0.01c0,1.83 -1.005,2.95 -2.628,2.95zM165.602,20.29c1.079,0 1.687,-0.79 1.687,-2.14v-0.01c0,-1.34 -0.608,-2.13 -1.687,-2.13c-1.079,0 -1.687,0.79 -1.687,2.13v0.01c0,1.35 0.608,2.14 1.687,2.14zM171.615,21.1c-1.269,0 -2.142,-0.61 -2.248,-1.55h0.942c0.153,0.47 0.608,0.78 1.338,0.78c0.767,0 1.312,-0.36 1.312,-0.88v-0.01c0,-0.39 -0.291,-0.66 -0.995,-0.83l-0.883,-0.21c-1.068,-0.25 -1.55,-0.72 -1.55,-1.54v0c0,-0.95 0.91,-1.66 2.121,-1.66c1.196,0 2.026,0.6 2.153,1.53h-0.905c-0.121,-0.45 -0.566,-0.76 -1.253,-0.76c-0.677,0 -1.174,0.34 -1.174,0.85v0.01c0,0.38 0.285,0.63 0.957,0.79l0.878,0.21c1.074,0.26 1.592,0.73 1.592,1.54v0.01c0,1.02 -0.989,1.72 -2.285,1.72zM180.717,21.1c-1.623,0 -2.628,-1.12 -2.628,-2.95v-0.01c0,-1.83 1.005,-2.94 2.628,-2.94c1.624,0 2.629,1.11 2.629,2.94v0.01c0,1.83 -1.005,2.95 -2.629,2.95zM180.717,20.29c1.079,0 1.687,-0.79 1.687,-2.14v-0.01c0,-1.34 -0.608,-2.13 -1.687,-2.13c-1.079,0 -1.687,0.79 -1.687,2.13v0.01c0,1.35 0.608,2.14 1.687,2.14zM185.155,21v-4.94h-0.947v-0.76h0.947v-0.64c0,-1.13 0.571,-1.68 1.655,-1.68c0.222,0 0.423,0.02 0.614,0.05v0.74c-0.111,-0.02 -0.265,-0.03 -0.429,-0.03c-0.656,0 -0.92,0.33 -0.92,0.95v0.61h1.296v0.76h-1.296v4.94zM192.231,23c-0.121,0 -0.28,-0.01 -0.407,-0.03v-0.76c0.111,0.02 0.254,0.03 0.381,0.03c0.523,0 0.841,-0.24 1.047,-0.9l0.106,-0.33l-2.111,-5.71h0.984l1.566,4.69h0.084l1.561,-4.69h0.967l-2.226,6.05c-0.471,1.28 -0.942,1.65 -1.952,1.65zM199.757,21.1c-1.623,0 -2.628,-1.12 -2.628,-2.95v-0.01c0,-1.83 1.005,-2.94 2.628,-2.94c1.624,0 2.629,1.11 2.629,2.94v0.01c0,1.83 -1.005,2.95 -2.629,2.95zM199.757,20.29c1.079,0 1.687,-0.79 1.687,-2.14v-0.01c0,-1.34 -0.608,-2.13 -1.687,-2.13c-1.079,0 -1.687,0.79 -1.687,2.13v0.01c0,1.35 0.608,2.14 1.687,2.14zM205.723,21.1c-1.296,0 -1.962,-0.76 -1.962,-2.11v-3.69h0.92v3.47c0,1.02 0.37,1.52 1.28,1.52c1.005,0 1.539,-0.62 1.539,-1.62v-3.37h0.92v5.7h-0.92v-0.85h-0.085c-0.28,0.61 -0.856,0.95 -1.692,0.95zM210.139,21v-5.7h0.92v0.84h0.085c0.217,-0.59 0.751,-0.94 1.523,-0.94c0.175,0 0.371,0.02 0.46,0.04v0.89c-0.19,-0.03 -0.364,-0.05 -0.565,-0.05c-0.878,0 -1.503,0.55 -1.503,1.39v3.53zM72.957,38l-1.597,-5.7h0.92l1.121,4.56h0.085l1.274,-4.56h0.873l1.275,4.56h0.084l1.122,-4.56h0.914l-1.597,5.7h-0.925l-1.275,-4.41h-0.085l-1.269,4.41zM82.376,38.1c-1.623,0 -2.628,-1.12 -2.628,-2.95v-0.01c0,-1.83 1.005,-2.94 2.628,-2.94c1.624,0 2.629,1.11 2.629,2.94v0.01c0,1.83 -1.005,2.95 -2.629,2.95zM82.376,37.29c1.079,0 1.687,-0.79 1.687,-2.14v-0.01c0,-1.34 -0.608,-2.13 -1.687,-2.13c-1.079,0 -1.687,0.79 -1.687,2.13v0.01c0,1.35 0.608,2.14 1.687,2.14zM86.433,38v-5.7h0.92v0.84h0.085c0.217,-0.59 0.751,-0.94 1.523,-0.94c0.174,0 0.37,0.02 0.46,0.04v0.89c-0.19,-0.03 -0.365,-0.05 -0.566,-0.05c-0.878,0 -1.502,0.55 -1.502,1.39v3.53zM90.611,38v-7.97h0.92v4.76h0.085l2.465,-2.49h1.116l-2.486,2.39l2.649,3.31h-1.158l-2.136,-2.68l-0.535,0.52v2.16zM97.19,38.05c-0.375,0 -0.687,-0.31 -0.687,-0.68c0,-0.39 0.312,-0.69 0.687,-0.69c0.381,0 0.688,0.3 0.688,0.69c0,0.37 -0.307,0.68 -0.688,0.68z" fill="#525252"/>
</g>
</g></svg>