<svg viewBox="0 0 263 151.6018" x="0" y="0" fill="none" xmlns="http://www.w3.org/2000/svg"><defs><filter id="filter3_d_224_101557" x="-21.663200000000003" y="-24.070000000000164" width="306.326" height="235.326" filterUnits="userSpaceOnUse" color-interpolation-filters="sRGB" xmlns="http://www.w3.org/2000/svg">
<feFlood flood-opacity="0" result="BackgroundImageFix"/>
<feColorMatrix in="SourceAlpha" type="matrix" values="0 0 0 0 0 0 0 0 0 0 0 0 0 0 0 0 0 0 127 0" result="hardAlpha"/>
<feOffset dy="-2.40702"/>
<feGaussianBlur stdDeviation="10.8316"/>
<feComposite in2="hardAlpha" operator="out"/>
<feColorMatrix type="matrix" values="0 0 0 0 0 0 0 0 0 0 0 0 0 0 0 0 0 0 0.05 0"/>
<feBlend mode="normal" in2="BackgroundImageFix" result="effect1_dropShadow_224_101557"/>
<feBlend mode="normal" in="SourceGraphic" in2="effect1_dropShadow_224_101557" result="shape"/>
</filter><linearGradient id="paint13_linear_224_101557" x1="220.687" y1="47.320000000000164" x2="209.152" y2="10.989999999999782" gradientUnits="userSpaceOnUse" xmlns="http://www.w3.org/2000/svg">
<stop stop-color="#FB432C"/>
<stop offset="1" stop-color="#FF591E"/>
</linearGradient><linearGradient id="paint14_linear_224_101557" x1="193.005" y1="125.98999999999978" x2="181.005" y2="113.98999999999978" gradientUnits="userSpaceOnUse" xmlns="http://www.w3.org/2000/svg">
<stop stop-color="#FB432C"/>
<stop offset="1" stop-color="#FF591E"/>
</linearGradient></defs><g id="Group_6" xmlns="http://www.w3.org/2000/svg">
<g id="Rectangle_6" filter="url(#filter3_d_224_101557)">
<rect x="0" y="0" width="263" height="192" rx="8.42456" fill="white"/>
</g>
<g id="Group_7">
<path id="10k" d="M24.4948,78v-6.56h-1.0074v-1.13h2.253v7.69zM28.8881,70.41c0.3755,-0.21 0.8305,-0.31 1.3648,-0.31c0.5344,0 0.9893,0.1 1.3648,0.31c0.3755,0.19 0.6643,0.47 0.8665,0.84c0.2094,0.37 0.3575,0.78 0.4441,1.24c0.0939,0.44 0.1408,0.96 0.1408,1.55c0,0.58 -0.0469,1.1 -0.1408,1.56c-0.0866,0.44 -0.2347,0.85 -0.4441,1.23c-0.2022,0.37 -0.491,0.65 -0.8665,0.86c-0.3755,0.19 -0.8304,0.29 -1.3648,0.29c-0.5343,0 -0.9893,-0.1 -1.3648,-0.29c-0.3754,-0.21 -0.6679,-0.49 -0.8773,-0.86c-0.2022,-0.38 -0.3502,-0.79 -0.4441,-1.23c-0.0867,-0.46 -0.13,-0.98 -0.13,-1.56c0,-0.59 0.0433,-1.11 0.13,-1.55c0.0939,-0.46 0.2419,-0.87 0.4441,-1.24c0.2094,-0.37 0.5019,-0.65 0.8773,-0.84zM30.2529,71.23c-0.3466,0 -0.6318,0.08 -0.8557,0.23c-0.2238,0.14 -0.3863,0.36 -0.4874,0.65c-0.1733,0.5 -0.2599,1.14 -0.2599,1.93c0,0.79 0.0866,1.44 0.2599,1.93c0.2022,0.59 0.6499,0.88 1.3431,0.88c0.6932,0 1.141,-0.29 1.3431,-0.88c0.1733,-0.49 0.26,-1.14 0.26,-1.93c0,-0.79 -0.0867,-1.43 -0.26,-1.93c-0.2021,-0.59 -0.6499,-0.88 -1.3431,-0.88zM35.773,78h-1.2348v-8.02h1.2348v4.66l2.1663,-2.61h1.7114l-2.7512,2.99l2.7512,2.98h-1.6681l-2.2096,-2.57z" fill="#383838"/>
<path id="6k" d="M28.1017,110.41c0,-0.48 -0.13,-0.87 -0.39,-1.16c-0.2527,-0.29 -0.6138,-0.44 -1.0831,-0.44c-0.4694,0 -0.8593,0.13 -1.1698,0.4c-0.3033,0.26 -0.455,0.64 -0.455,1.14c0,0.49 0.1409,0.89 0.4225,1.19c0.2888,0.29 0.6751,0.43 1.159,0.43c0.4838,0 0.8556,-0.14 1.1156,-0.42c0.2672,-0.28 0.4008,-0.66 0.4008,-1.14zM26.5853,105.94c-0.5705,0 -0.9966,0.22 -1.2782,0.66c-0.2816,0.43 -0.4296,1.15 -0.4441,2.16c0.1878,-0.31 0.4622,-0.56 0.8232,-0.73c0.3611,-0.17 0.751,-0.26 1.1698,-0.26c0.7221,0 1.3071,0.23 1.7548,0.69c0.4477,0.46 0.6715,1.09 0.6715,1.89c0,0.78 -0.2274,1.42 -0.6824,1.91c-0.4549,0.49 -1.0904,0.74 -1.9063,0.74c-1.1193,0 -1.8883,-0.38 -2.3072,-1.13c-0.2166,-0.37 -0.3682,-0.8 -0.4549,-1.27c-0.0866,-0.49 -0.13,-1.06 -0.13,-1.73c0,-2.64 0.9316,-3.96 2.7946,-3.96c0.7221,0 1.2889,0.19 1.7005,0.58c0.4189,0.39 0.6644,0.87 0.7366,1.44h-1.1373c-0.1589,-0.66 -0.5958,-0.99 -1.3106,-0.99zM31.9967,113h-1.2348v-8.02h1.2348v4.66l2.1663,-2.61h1.7114l-2.7512,2.99l2.7512,2.98h-1.668l-2.2097,-2.57z" fill="#383838"/>
<path id="5k" d="M23.9748,139.08h4.7659v1.09h-3.6285v2.15c0.1516,-0.2 0.3755,-0.37 0.6715,-0.51c0.3033,-0.14 0.6535,-0.2 1.0507,-0.2c0.4044,0 0.7762,0.08 1.1156,0.23c0.3466,0.16 0.6102,0.38 0.7907,0.64c0.3611,0.52 0.5416,1.11 0.5416,1.76c0,0.82 -0.2347,1.49 -0.704,2c-0.4694,0.51 -1.1229,0.76 -1.9606,0.76c-0.8304,0 -1.4839,-0.19 -1.9605,-0.58c-0.4766,-0.39 -0.7618,-0.91 -0.8557,-1.55h1.2023c0.0795,0.34 0.2564,0.61 0.5308,0.81c0.2744,0.19 0.6427,0.29 1.1048,0.29c0.4622,0 0.8196,-0.15 1.0723,-0.46c0.26,-0.32 0.39,-0.73 0.39,-1.24c0,-0.52 -0.13,-0.92 -0.39,-1.19c-0.2599,-0.28 -0.6426,-0.42 -1.1481,-0.42c-0.3538,0 -0.6535,0.09 -0.899,0.27c-0.2383,0.17 -0.4116,0.41 -0.5199,0.71h-1.1699zM31.965,147h-1.2348v-8.02h1.2348v4.66l2.1663,-2.61h1.7114l-2.7512,2.99l2.7512,2.98h-1.6681l-2.2096,-2.57z" fill="#383838"/>
<g id="Auto Layout Horizontal_25">
<path id="Overview" d="M21.1895,31.73c0.9267,0 1.6813,-0.31 2.2638,-0.91c0.5914,-0.62 0.887,-1.43 0.887,-2.43c0,-1 -0.2956,-1.81 -0.887,-2.42c-0.5825,-0.61 -1.3371,-0.91 -2.2638,-0.91c-0.9267,0 -1.6857,0.3 -2.277,0.91c-0.5825,0.61 -0.8738,1.42 -0.8738,2.42c0,1 0.2913,1.81 0.8738,2.43c0.5913,0.6 1.3503,0.91 2.277,0.91zM21.1895,33.09c-1.315,0 -2.427,-0.44 -3.3361,-1.32c-0.909,-0.89 -1.3636,-2.02 -1.3636,-3.38c0,-1.37 0.4546,-2.49 1.3636,-3.37c0.9091,-0.89 2.0211,-1.34 3.3361,-1.34c1.3239,0 2.4359,0.45 3.3362,1.34c0.909,0.88 1.3635,2 1.3635,3.37c0,1.36 -0.4545,2.49 -1.3635,3.38c-0.9003,0.88 -2.0123,1.32 -3.3362,1.32zM26.5138,25.71h1.6151l2.0653,5.94l2.0652,-5.94h1.6283l-2.7801,7.29h-1.8269zM38.0734,33.12c-1.0591,0 -1.9196,-0.35 -2.5815,-1.03c-0.662,-0.69 -0.9929,-1.61 -0.9929,-2.74c0,-1.14 0.3353,-2.05 1.0061,-2.73c0.6708,-0.69 1.5357,-1.03 2.5948,-1.03c1.0679,0 1.9328,0.33 2.5947,0.99c0.662,0.65 0.9929,1.51 0.9929,2.57c0,0.25 -0.0176,0.49 -0.0529,0.71h-5.5867c0.0353,0.61 0.2383,1.1 0.609,1.46c0.3795,0.35 0.8516,0.53 1.4165,0.53c0.8208,0 1.3989,-0.34 1.7342,-1.02h1.6284c-0.2206,0.67 -0.6222,1.22 -1.2047,1.65c-0.5825,0.43 -1.3018,0.64 -2.1579,0.64zM40.1121,28.83c-0.0088,-0.6 -0.2074,-1.08 -0.5957,-1.43c-0.3883,-0.36 -0.8605,-0.54 -1.4165,-0.54c-0.5561,0 -1.0238,0.18 -1.4033,0.54c-0.3707,0.35 -0.5825,0.83 -0.6355,1.43zM44.682,25.71v1.27c0.468,-0.93 1.196,-1.39 2.184,-1.39v1.56h-0.384c-0.591,0 -1.041,0.15 -1.35,0.45c-0.3,0.3 -0.45,0.82 -0.45,1.56v3.84h-1.5093v-7.29zM47.393,25.71h1.615l2.065,5.94l2.066,-5.94h1.628l-2.78,7.29h-1.827zM57.602,23.77c0,0.28 -0.092,0.51 -0.278,0.69c-0.185,0.19 -0.415,0.28 -0.688,0.28c-0.265,0 -0.49,-0.09 -0.675,-0.28c-0.186,-0.18 -0.278,-0.41 -0.278,-0.69c0,-0.27 0.092,-0.5 0.278,-0.69c0.185,-0.18 0.41,-0.27 0.675,-0.27c0.273,0 0.503,0.09 0.688,0.27c0.186,0.19 0.278,0.42 0.278,0.69zM55.881,33v-7.29h1.509v7.29zM62.443,33.12c-1.059,0 -1.919,-0.35 -2.581,-1.03c-0.662,-0.69 -0.993,-1.61 -0.993,-2.74c0,-1.14 0.335,-2.05 1.006,-2.73c0.671,-0.69 1.536,-1.03 2.595,-1.03c1.068,0 1.933,0.33 2.595,0.99c0.661,0.65 0.992,1.51 0.992,2.57c0,0.25 -0.017,0.49 -0.053,0.71h-5.586c0.035,0.61 0.238,1.1 0.609,1.46c0.379,0.35 0.851,0.53 1.416,0.53c0.821,0 1.399,-0.34 1.735,-1.02h1.628c-0.221,0.67 -0.622,1.22 -1.205,1.65c-0.582,0.43 -1.302,0.64 -2.158,0.64zM64.482,28.83c-0.009,-0.6 -0.207,-1.08 -0.596,-1.43c-0.388,-0.36 -0.86,-0.54 -1.416,-0.54c-0.556,0 -1.024,0.18 -1.404,0.54c-0.37,0.35 -0.582,0.83 -0.635,1.43zM75.856,25.71h1.483l-2.264,7.29h-1.588l-1.47,-5.39l-1.469,5.39h-1.589l-2.277,-7.29h1.536l1.522,5.86l1.549,-5.86h1.576l1.482,5.83z" fill="black"/>
<g id="Auto Layout Horizontal_26">
<rect x="183.909" y="19" width="63" height="20" rx="10" fill="url(#paint13_linear_224_101557)"/>
<path id="Monthly" d="M204.708,25.14v5.86h-0.961v-4.01l-1.786,4.01h-0.665l-1.795,-4.01v4.01h-0.96v-5.86h1.036l2.056,4.6l2.047,-4.6zM208.986,29.85c0.281,-0.28 0.421,-0.68 0.421,-1.18c0,-0.5 -0.137,-0.88 -0.412,-1.16c-0.27,-0.28 -0.599,-0.42 -0.986,-0.42c-0.388,0 -0.713,0.14 -0.977,0.42c-0.264,0.28 -0.396,0.67 -0.396,1.17c0,0.5 0.129,0.89 0.387,1.17c0.259,0.28 0.579,0.42 0.961,0.42c0.387,0 0.721,-0.14 1.002,-0.42zM207.984,31.08c-0.674,0 -1.23,-0.22 -1.668,-0.66c-0.439,-0.44 -0.658,-1.02 -0.658,-1.74c0,-0.72 0.225,-1.29 0.674,-1.73c0.455,-0.45 1.02,-0.67 1.694,-0.67c0.674,0 1.235,0.22 1.685,0.67c0.455,0.44 0.682,1.01 0.682,1.72c0,0.72 -0.233,1.3 -0.699,1.74c-0.461,0.44 -1.031,0.67 -1.71,0.67zM212.303,26.36v0.73c0.309,-0.54 0.803,-0.81 1.483,-0.81c0.522,0 0.952,0.18 1.288,0.52c0.343,0.35 0.514,0.84 0.514,1.46v2.74h-0.952v-2.59c0,-0.42 -0.103,-0.74 -0.311,-0.96c-0.208,-0.22 -0.492,-0.33 -0.851,-0.33c-0.36,0 -0.646,0.11 -0.859,0.33c-0.208,0.22 -0.312,0.54 -0.312,0.96v2.59h-0.961v-4.64zM219.063,27.14h-1.129v2.57c0,0.18 0.039,0.3 0.118,0.38c0.084,0.07 0.225,0.11 0.421,0.11h0.59v0.8h-0.758c-0.893,0 -1.34,-0.43 -1.34,-1.29v-2.57h-0.548v-0.78h0.548v-1.16h0.969v1.16h1.129zM220.908,24.77v2.32c0.309,-0.54 0.804,-0.81 1.483,-0.81c0.522,0 0.952,0.18 1.289,0.52c0.343,0.35 0.514,0.84 0.514,1.46v2.74h-0.952v-2.59c0,-0.42 -0.104,-0.74 -0.312,-0.96c-0.208,-0.22 -0.491,-0.33 -0.851,-0.33c-0.359,0 -0.646,0.11 -0.859,0.33c-0.208,0.22 -0.312,0.54 -0.312,0.96v2.59h-0.96v-6.23zM225.419,31v-6.23h0.96v6.23zM228.921,30.92l-1.828,-4.56h1.07l1.305,3.54l1.357,-3.54h0.994l-2.848,6.82h-0.994z" fill="white"/>
</g>
</g>
<path id="Line_3" d="M60.493,66.05v97.78" stroke="#FCFCFC" stroke-width="1.80526" stroke-linecap="round" stroke-linejoin="round"/>
<path id="Line_4" d="M103.819,66.05v97.78" stroke="#FCFCFC" stroke-width="1.80526" stroke-linecap="round" stroke-linejoin="round"/>
<path id="Line_5" d="M147.146,66.05v97.78" stroke="#FCFCFC" stroke-width="1.80526" stroke-linecap="round" stroke-linejoin="round"/>
<path id="Line_6" d="M190.472,66.05v97.78" stroke="#FCFCFC" stroke-width="1.80526" stroke-linecap="round" stroke-linejoin="round"/>
<path id="Line_7" d="M233.798,66.05v97.78" stroke="#FCFCFC" stroke-width="1.80526" stroke-linecap="round" stroke-linejoin="round"/>
<path id="Vector_19" d="M84.262,157.82c-10.35,9.62 -25.374,-6.42 -31.592,-15.65v38.81h194.367v-103.8c-9.328,8.73 -32.495,57.77 -46.937,46.64c-12.488,-9.63 -17.752,-19.56 -23.168,-20.76c-16.548,-3.61 -22.866,26.78 -29.185,38.81c-6.318,12.04 -28.583,-7.22 -39.114,-6.92c-10.531,0.3 -11.433,10.83 -24.371,22.87z" fill="#F9F9F9"/>
<path id="Vector_20" d="M52.67,142.17c6.218,9.23 21.242,25.27 31.592,15.65c12.938,-12.04 13.84,-22.57 24.371,-22.87c10.531,-0.3 32.796,18.96 39.114,6.92c6.319,-12.03 12.637,-42.42 29.185,-38.81c5.416,1.2 10.68,11.13 23.168,20.76c14.442,11.13 37.609,-37.91 46.937,-46.64" stroke="black" stroke-width="1.80526" stroke-linecap="round" stroke-linejoin="round"/>
<path id="5,560$" d="M154.941,74.96h4.236v0.96h-3.226v1.92c0.135,-0.18 0.334,-0.33 0.597,-0.45c0.27,-0.12 0.581,-0.18 0.934,-0.18c0.36,0 0.69,0.07 0.992,0.21c0.308,0.14 0.542,0.33 0.703,0.57c0.321,0.46 0.481,0.98 0.481,1.55c0,0.74 -0.208,1.33 -0.626,1.79c-0.417,0.45 -0.998,0.67 -1.742,0.67c-0.738,0 -1.319,-0.17 -1.743,-0.52c-0.424,-0.35 -0.677,-0.81 -0.761,-1.38h1.069c0.071,0.3 0.228,0.55 0.472,0.73c0.244,0.17 0.571,0.26 0.982,0.26c0.411,0 0.729,-0.14 0.953,-0.42c0.231,-0.27 0.347,-0.64 0.347,-1.1c0,-0.46 -0.116,-0.81 -0.347,-1.06c-0.231,-0.25 -0.571,-0.37 -1.02,-0.37c-0.315,0 -0.581,0.08 -0.8,0.24c-0.211,0.15 -0.365,0.37 -0.462,0.64h-1.039zM160.57,81.25h1.04c0.25,0.95 0.205,1.6 -0.135,1.94c-0.186,0.2 -0.459,0.3 -0.819,0.3v-0.48c0.161,0 0.276,-0.04 0.347,-0.11c0.077,-0.08 0.116,-0.21 0.116,-0.39v-0.2h-0.549zM163.036,74.96h4.236v0.96h-3.225v1.92c0.135,-0.18 0.334,-0.33 0.597,-0.45c0.269,-0.12 0.581,-0.18 0.934,-0.18c0.359,0 0.69,0.07 0.991,0.21c0.309,0.14 0.543,0.33 0.703,0.57c0.321,0.46 0.482,0.98 0.482,1.55c0,0.74 -0.209,1.33 -0.626,1.79c-0.417,0.45 -0.998,0.67 -1.743,0.67c-0.738,0 -1.319,-0.17 -1.742,-0.52c-0.424,-0.35 -0.678,-0.81 -0.761,-1.38h1.069c0.07,0.3 0.228,0.55 0.471,0.73c0.244,0.17 0.572,0.26 0.982,0.26c0.411,0 0.729,-0.14 0.954,-0.42c0.231,-0.27 0.346,-0.64 0.346,-1.1c0,-0.46 -0.115,-0.81 -0.346,-1.06c-0.231,-0.25 -0.572,-0.37 -1.021,-0.37c-0.314,0 -0.581,0.08 -0.799,0.24c-0.212,0.15 -0.366,0.37 -0.462,0.64h-1.04zM172.853,79.7c0,-0.43 -0.115,-0.77 -0.346,-1.03c-0.225,-0.26 -0.546,-0.4 -0.963,-0.4c-0.417,0 -0.764,0.12 -1.04,0.36c-0.269,0.23 -0.404,0.57 -0.404,1.01c0,0.44 0.125,0.8 0.375,1.06c0.257,0.26 0.6,0.39 1.031,0.39c0.43,0 0.76,-0.13 0.991,-0.38c0.238,-0.25 0.356,-0.59 0.356,-1.01zM171.506,75.72c-0.508,0 -0.886,0.2 -1.137,0.59c-0.25,0.38 -0.381,1.03 -0.394,1.93c0.167,-0.29 0.41,-0.51 0.731,-0.66c0.321,-0.15 0.668,-0.23 1.04,-0.23c0.642,0 1.162,0.21 1.56,0.62c0.398,0.41 0.597,0.97 0.597,1.67c0,0.7 -0.202,1.27 -0.607,1.71c-0.404,0.43 -0.969,0.65 -1.694,0.65c-0.995,0 -1.679,-0.33 -2.051,-1c-0.193,-0.34 -0.327,-0.71 -0.404,-1.14c-0.077,-0.43 -0.116,-0.94 -0.116,-1.53c0,-2.35 0.828,-3.52 2.484,-3.52c0.642,0 1.146,0.17 1.512,0.52c0.372,0.34 0.59,0.77 0.654,1.28h-1.01c-0.142,-0.59 -0.53,-0.89 -1.165,-0.89zM176.364,75.25c0.334,-0.18 0.738,-0.27 1.213,-0.27c0.475,0 0.879,0.09 1.213,0.27c0.334,0.17 0.591,0.42 0.77,0.75c0.187,0.33 0.318,0.69 0.395,1.1c0.084,0.4 0.125,0.86 0.125,1.38c0,0.52 -0.041,0.98 -0.125,1.38c-0.077,0.4 -0.208,0.77 -0.395,1.1c-0.179,0.33 -0.436,0.58 -0.77,0.76c-0.334,0.17 -0.738,0.26 -1.213,0.26c-0.475,0 -0.879,-0.09 -1.213,-0.26c-0.334,-0.18 -0.594,-0.43 -0.78,-0.76c-0.18,-0.33 -0.311,-0.7 -0.395,-1.1c-0.077,-0.4 -0.115,-0.86 -0.115,-1.38c0,-0.52 0.038,-0.98 0.115,-1.38c0.084,-0.41 0.215,-0.77 0.395,-1.1c0.186,-0.33 0.446,-0.58 0.78,-0.75zM177.577,75.98c-0.308,0 -0.562,0.07 -0.761,0.2c-0.199,0.13 -0.343,0.33 -0.433,0.58c-0.154,0.45 -0.231,1.02 -0.231,1.72c0,0.7 0.077,1.28 0.231,1.72c0.18,0.52 0.578,0.78 1.194,0.78c0.616,0 1.014,-0.26 1.194,-0.78c0.154,-0.44 0.231,-1.02 0.231,-1.72c0,-0.7 -0.077,-1.27 -0.231,-1.72c-0.18,-0.52 -0.578,-0.78 -1.194,-0.78zM185.902,80.09c0,0.5 -0.183,0.93 -0.549,1.31c-0.366,0.38 -0.867,0.6 -1.502,0.66v0.78h-0.549v-0.78c-0.616,-0.05 -1.114,-0.23 -1.492,-0.55c-0.379,-0.33 -0.568,-0.76 -0.568,-1.29h1.174c0.045,0.54 0.341,0.86 0.886,0.94v-2.12c-0.584,-0.13 -0.995,-0.27 -1.232,-0.41c-0.289,-0.17 -0.488,-0.35 -0.597,-0.54c-0.154,-0.27 -0.231,-0.58 -0.231,-0.92c0,-0.55 0.189,-0.99 0.568,-1.34c0.378,-0.35 0.876,-0.55 1.492,-0.6v-0.78h0.549v0.78c0.578,0.05 1.04,0.22 1.386,0.53c0.353,0.3 0.552,0.72 0.597,1.26h-1.174c-0.02,-0.2 -0.103,-0.39 -0.251,-0.55c-0.141,-0.16 -0.327,-0.26 -0.558,-0.31v2.08c0.61,0.14 1.017,0.27 1.223,0.39c0.301,0.19 0.491,0.35 0.568,0.49c0.173,0.3 0.26,0.63 0.26,0.97zM183.302,76.13c-0.289,0.04 -0.52,0.14 -0.693,0.3c-0.167,0.17 -0.25,0.39 -0.25,0.67c0,0.28 0.08,0.49 0.24,0.63c0.167,0.15 0.401,0.27 0.703,0.36zM183.851,81.16c0.295,-0.04 0.526,-0.15 0.693,-0.33c0.167,-0.19 0.25,-0.41 0.25,-0.67c0,-0.26 -0.083,-0.47 -0.25,-0.62c-0.16,-0.14 -0.391,-0.26 -0.693,-0.35z" fill="black"/>
<path id="Ratings" d="M157.621,90.96v2.04h-0.823v-5.02h1.733c0.568,0 1.006,0.14 1.314,0.43c0.308,0.28 0.462,0.63 0.462,1.07c0,0.33 -0.103,0.64 -0.31,0.91c-0.203,0.27 -0.516,0.44 -0.939,0.52l1.328,2.09h-1.003l-1.257,-2.04zM157.621,88.62v1.7h0.91c0.313,0 0.546,-0.07 0.7,-0.22c0.154,-0.15 0.231,-0.36 0.231,-0.62c0,-0.27 -0.077,-0.48 -0.231,-0.63c-0.154,-0.15 -0.387,-0.23 -0.7,-0.23zM163.981,91.99c0.241,-0.25 0.361,-0.57 0.361,-0.98c0,-0.41 -0.12,-0.74 -0.361,-0.98c-0.236,-0.24 -0.517,-0.36 -0.844,-0.36c-0.328,0 -0.612,0.12 -0.853,0.35c-0.235,0.24 -0.353,0.56 -0.353,0.97c0,0.41 0.118,0.74 0.353,0.99c0.241,0.25 0.525,0.37 0.853,0.37c0.327,0 0.608,-0.12 0.844,-0.36zM162.963,93.06c-0.529,0 -0.975,-0.19 -1.336,-0.57c-0.361,-0.39 -0.541,-0.89 -0.541,-1.49c0,-0.61 0.178,-1.1 0.534,-1.47c0.361,-0.38 0.809,-0.57 1.343,-0.57c0.313,0 0.588,0.07 0.823,0.21c0.241,0.14 0.426,0.33 0.556,0.56v-0.71h0.831v3.98h-0.831v-0.74c-0.134,0.24 -0.32,0.44 -0.556,0.59c-0.235,0.14 -0.51,0.21 -0.823,0.21zM168.182,89.69h-0.968v2.21c0,0.14 0.034,0.25 0.102,0.32c0.072,0.06 0.192,0.09 0.361,0.09h0.505v0.69h-0.65c-0.765,0 -1.148,-0.37 -1.148,-1.1v-2.21h-0.469v-0.67h0.469v-0.99h0.83v0.99h0.968zM169.88,87.97c0,0.15 -0.051,0.27 -0.152,0.37c-0.101,0.1 -0.226,0.15 -0.376,0.15c-0.144,0 -0.267,-0.05 -0.368,-0.15c-0.101,-0.1 -0.151,-0.22 -0.151,-0.37c0,-0.15 0.05,-0.28 0.151,-0.38c0.101,-0.1 0.224,-0.15 0.368,-0.15c0.15,0 0.275,0.05 0.376,0.15c0.101,0.1 0.152,0.23 0.152,0.38zM168.941,93v-3.98h0.823v3.98zM171.668,89.02v0.63c0.265,-0.46 0.688,-0.69 1.271,-0.69c0.448,0 0.816,0.15 1.105,0.44c0.293,0.3 0.44,0.72 0.44,1.25v2.35h-0.816v-2.22c0,-0.36 -0.089,-0.63 -0.267,-0.82c-0.178,-0.19 -0.421,-0.29 -0.729,-0.29c-0.308,0 -0.554,0.1 -0.737,0.29c-0.178,0.19 -0.267,0.46 -0.267,0.82v2.22h-0.823v-3.98zM177.137,93.06c-0.529,0 -0.975,-0.19 -1.336,-0.57c-0.361,-0.39 -0.541,-0.89 -0.541,-1.49c0,-0.61 0.178,-1.1 0.534,-1.47c0.361,-0.38 0.809,-0.57 1.343,-0.57c0.313,0 0.588,0.07 0.824,0.21c0.24,0.14 0.426,0.33 0.556,0.56v-0.71h0.83v4.04c0,0.56 -0.173,1.02 -0.52,1.37c-0.342,0.36 -0.799,0.53 -1.372,0.53c-0.573,0 -1.037,-0.12 -1.394,-0.38c-0.356,-0.25 -0.558,-0.59 -0.606,-1.02h0.816c0.062,0.2 0.195,0.37 0.397,0.49c0.207,0.13 0.465,0.2 0.773,0.2c0.308,0 0.563,-0.1 0.765,-0.3c0.207,-0.21 0.311,-0.5 0.311,-0.89v-0.8c-0.135,0.24 -0.321,0.44 -0.556,0.59c-0.236,0.14 -0.511,0.21 -0.824,0.21zM178.156,91.99c0.24,-0.25 0.361,-0.57 0.361,-0.98c0,-0.41 -0.121,-0.74 -0.361,-0.98c-0.236,-0.24 -0.518,-0.36 -0.845,-0.36c-0.328,0 -0.612,0.12 -0.852,0.35c-0.236,0.24 -0.354,0.56 -0.354,0.97c0,0.41 0.118,0.74 0.354,0.99c0.24,0.25 0.524,0.37 0.852,0.37c0.327,0 0.609,-0.12 0.845,-0.36zM180.248,90.16c0,-0.33 0.142,-0.62 0.426,-0.85c0.284,-0.24 0.657,-0.35 1.119,-0.35c0.462,0 0.828,0.11 1.098,0.34c0.274,0.23 0.421,0.54 0.44,0.93h-0.845c-0.014,-0.19 -0.084,-0.35 -0.209,-0.46c-0.121,-0.11 -0.291,-0.16 -0.513,-0.16c-0.221,0 -0.395,0.05 -0.52,0.15c-0.125,0.09 -0.188,0.22 -0.188,0.39c0,0.16 0.08,0.28 0.239,0.37c0.159,0.09 0.351,0.16 0.577,0.21c0.231,0.04 0.46,0.09 0.686,0.15c0.231,0.07 0.426,0.18 0.585,0.35c0.159,0.16 0.239,0.39 0.239,0.67c0,0.34 -0.147,0.62 -0.441,0.84c-0.289,0.22 -0.662,0.32 -1.119,0.32c-0.457,0 -0.828,-0.11 -1.112,-0.33c-0.284,-0.22 -0.441,-0.53 -0.47,-0.94h0.853c0.014,0.19 0.086,0.35 0.216,0.46c0.13,0.11 0.306,0.17 0.527,0.17c0.227,0 0.405,-0.05 0.535,-0.15c0.134,-0.1 0.202,-0.23 0.202,-0.4c0,-0.16 -0.08,-0.29 -0.238,-0.38c-0.159,-0.09 -0.354,-0.16 -0.585,-0.2c-0.227,-0.05 -0.455,-0.1 -0.686,-0.16c-0.227,-0.06 -0.419,-0.17 -0.578,-0.33c-0.159,-0.16 -0.238,-0.37 -0.238,-0.64z" fill="black"/>
<circle id="Ellipse" cx="192" cy="115" r="6" fill="url(#paint14_linear_224_101557)"/>
<circle id="Ellipse_2" cx="192" cy="115" r="3" fill="white"/>
</g>
</g></svg>