<svg viewBox="0 0 572 400" x="0" y="0" fill="none" xmlns="http://www.w3.org/2000/svg"><defs><clipPath id="clip13_224_100152" xmlns="http://www.w3.org/2000/svg">
<rect x="1" y="1" width="570" height="398" rx="8" fill="white"/>
</clipPath><filter id="filter5_d_224_100152" x="31" y="108" width="509" height="391" filterUnits="userSpaceOnUse" color-interpolation-filters="sRGB" xmlns="http://www.w3.org/2000/svg">
<feFlood flood-opacity="0" result="BackgroundImageFix"/>
<feColorMatrix in="SourceAlpha" type="matrix" values="0 0 0 0 0 0 0 0 0 0 0 0 0 0 0 0 0 0 127 0" result="hardAlpha"/>
<feOffset dy="-4"/>
<feGaussianBlur stdDeviation="18"/>
<feComposite in2="hardAlpha" operator="out"/>
<feColorMatrix type="matrix" values="0 0 0 0 0 0 0 0 0 0 0 0 0 0 0 0 0 0 0.05 0"/>
<feBlend mode="normal" in2="BackgroundImageFix" result="effect1_dropShadow_224_100152"/>
<feBlend mode="normal" in="SourceGraphic" in2="effect1_dropShadow_224_100152" result="shape"/>
</filter><linearGradient id="paint15_linear_224_100152" x1="433.129" y1="225.73999999999978" x2="413.952" y2="165.8800000000001" gradientUnits="userSpaceOnUse" xmlns="http://www.w3.org/2000/svg">
<stop stop-color="#FB432C"/>
<stop offset="1" stop-color="#FF591E"/>
</linearGradient><linearGradient id="paint16_linear_224_100152" x1="388.67600000000004" y1="356.32000000000016" x2="368.676" y2="336.32000000000016" gradientUnits="userSpaceOnUse" xmlns="http://www.w3.org/2000/svg">
<stop stop-color="#FB432C"/>
<stop offset="1" stop-color="#FF591E"/>
</linearGradient></defs><g id="Frame_72" xmlns="http://www.w3.org/2000/svg">
<g clip-path="url(#clip13_224_100152)">
<rect x="1" y="1" width="570" height="398" rx="8" fill="#FCFCFC"/>
<g id="Projects Organize, follow, and archive.">
<path d="M250.993,70v-13.09h4.909c1.006,0 1.85,0.19 2.532,0.56c0.686,0.38 1.204,0.89 1.553,1.55c0.354,0.65 0.53,1.39 0.53,2.22c0,0.84 -0.176,1.59 -0.53,2.24c-0.354,0.65 -0.876,1.17 -1.566,1.54c-0.69,0.37 -1.541,0.56 -2.551,0.56h-3.253v-1.95h2.934c0.588,0 1.069,-0.11 1.444,-0.31c0.375,-0.2 0.652,-0.49 0.831,-0.84c0.184,-0.36 0.275,-0.77 0.275,-1.24c0,-0.46 -0.091,-0.87 -0.275,-1.22c-0.179,-0.36 -0.458,-0.63 -0.837,-0.83c-0.375,-0.2 -0.859,-0.3 -1.451,-0.3h-2.173v11.11zM262.475,70v-9.82h2.244v1.64h0.102c0.179,-0.57 0.486,-1.01 0.92,-1.31c0.439,-0.31 0.94,-0.47 1.503,-0.47c0.127,0 0.27,0.01 0.428,0.02c0.162,0.01 0.296,0.02 0.402,0.05v2.12c-0.098,-0.03 -0.253,-0.06 -0.466,-0.09c-0.209,-0.03 -0.411,-0.04 -0.607,-0.04c-0.422,0 -0.802,0.09 -1.138,0.27c-0.333,0.18 -0.595,0.43 -0.786,0.75c-0.192,0.32 -0.288,0.69 -0.288,1.11v5.77zM273.49,70.19c-0.959,0 -1.79,-0.21 -2.493,-0.63c-0.703,-0.42 -1.248,-1.01 -1.636,-1.77c-0.384,-0.76 -0.575,-1.65 -0.575,-2.66c0,-1.01 0.191,-1.9 0.575,-2.67c0.388,-0.76 0.933,-1.35 1.636,-1.77c0.703,-0.43 1.534,-0.64 2.493,-0.64c0.959,0 1.79,0.21 2.493,0.64c0.703,0.42 1.246,1.01 1.63,1.77c0.388,0.77 0.582,1.66 0.582,2.67c0,1.01 -0.194,1.9 -0.582,2.66c-0.384,0.76 -0.927,1.35 -1.63,1.77c-0.703,0.42 -1.534,0.63 -2.493,0.63zM273.503,68.34c0.52,0 0.954,-0.14 1.304,-0.43c0.349,-0.29 0.609,-0.68 0.78,-1.16c0.174,-0.49 0.262,-1.03 0.262,-1.63c0,-0.6 -0.088,-1.14 -0.262,-1.63c-0.171,-0.49 -0.431,-0.88 -0.78,-1.17c-0.35,-0.29 -0.784,-0.43 -1.304,-0.43c-0.533,0 -0.976,0.14 -1.33,0.43c-0.349,0.29 -0.611,0.68 -0.786,1.17c-0.17,0.49 -0.256,1.03 -0.256,1.63c0,0.6 0.086,1.14 0.256,1.63c0.175,0.48 0.437,0.87 0.786,1.16c0.354,0.29 0.797,0.43 1.33,0.43zM280.159,60.18h2.314v10.38c0,0.71 -0.135,1.29 -0.403,1.75c-0.269,0.46 -0.656,0.81 -1.163,1.03c-0.508,0.23 -1.123,0.34 -1.848,0.34c-0.085,0 -0.164,0 -0.236,0c-0.073,0 -0.152,-0.01 -0.237,-0.01v-1.89c0.064,0.01 0.122,0.01 0.173,0.01c0.051,0 0.104,0.01 0.16,0.01c0.443,0 0.76,-0.11 0.952,-0.33c0.192,-0.21 0.288,-0.53 0.288,-0.94zM281.309,58.79c-0.371,0 -0.688,-0.12 -0.952,-0.37c-0.26,-0.24 -0.39,-0.54 -0.39,-0.88c0,-0.35 0.13,-0.65 0.39,-0.89c0.264,-0.25 0.581,-0.37 0.952,-0.37c0.367,0 0.68,0.12 0.94,0.37c0.264,0.24 0.396,0.54 0.396,0.89c0,0.34 -0.132,0.64 -0.396,0.88c-0.26,0.25 -0.573,0.37 -0.94,0.37zM289.199,70.19c-0.985,0 -1.835,-0.2 -2.551,-0.61c-0.711,-0.42 -1.259,-1 -1.643,-1.75c-0.383,-0.76 -0.575,-1.65 -0.575,-2.68c0,-1.01 0.192,-1.9 0.575,-2.66c0.388,-0.77 0.929,-1.36 1.624,-1.79c0.695,-0.43 1.511,-0.65 2.448,-0.65c0.605,0 1.176,0.1 1.713,0.3c0.541,0.19 1.019,0.49 1.432,0.89c0.418,0.41 0.746,0.92 0.984,1.55c0.239,0.62 0.358,1.36 0.358,2.22v0.71h-8.047v-1.56h5.829c-0.004,-0.44 -0.1,-0.83 -0.287,-1.18c-0.188,-0.35 -0.45,-0.62 -0.787,-0.82c-0.332,-0.2 -0.72,-0.3 -1.163,-0.3c-0.473,0 -0.888,0.11 -1.246,0.34c-0.358,0.23 -0.637,0.53 -0.838,0.9c-0.196,0.36 -0.296,0.77 -0.3,1.2v1.37c0,0.57 0.104,1.06 0.313,1.47c0.209,0.4 0.501,0.71 0.876,0.93c0.375,0.21 0.814,0.32 1.317,0.32c0.336,0 0.641,-0.05 0.914,-0.14c0.272,-0.1 0.509,-0.24 0.709,-0.43c0.2,-0.19 0.352,-0.42 0.454,-0.7l2.16,0.25c-0.136,0.57 -0.396,1.07 -0.779,1.49c-0.38,0.42 -0.865,0.75 -1.458,0.99c-0.592,0.23 -1.27,0.34 -2.032,0.34zM299.805,70.19c-0.981,0 -1.822,-0.21 -2.525,-0.64c-0.699,-0.43 -1.238,-1.03 -1.617,-1.79c-0.375,-0.76 -0.563,-1.64 -0.563,-2.63c0,-1 0.192,-1.88 0.575,-2.64c0.384,-0.77 0.925,-1.36 1.624,-1.79c0.703,-0.43 1.534,-0.65 2.493,-0.65c0.797,0 1.502,0.15 2.116,0.45c0.617,0.28 1.11,0.7 1.476,1.23c0.367,0.53 0.575,1.14 0.627,1.85h-2.212c-0.09,-0.47 -0.303,-0.86 -0.639,-1.18c-0.333,-0.32 -0.778,-0.48 -1.336,-0.48c-0.473,0 -0.889,0.13 -1.247,0.38c-0.358,0.26 -0.637,0.62 -0.837,1.09c-0.196,0.47 -0.294,1.04 -0.294,1.7c0,0.67 0.098,1.25 0.294,1.73c0.196,0.47 0.471,0.84 0.825,1.1c0.357,0.26 0.777,0.39 1.259,0.39c0.341,0 0.645,-0.07 0.914,-0.2c0.273,-0.13 0.501,-0.32 0.684,-0.56c0.183,-0.25 0.309,-0.55 0.377,-0.91h2.212c-0.056,0.7 -0.26,1.31 -0.614,1.85c-0.354,0.53 -0.835,0.95 -1.445,1.25c-0.609,0.3 -1.325,0.45 -2.147,0.45zM310.813,60.18v1.79h-5.644v-1.79zM306.563,57.83h2.314v9.22c0,0.31 0.046,0.55 0.14,0.71c0.098,0.16 0.226,0.28 0.384,0.34c0.157,0.05 0.332,0.08 0.524,0.08c0.145,0 0.277,-0.01 0.396,-0.03c0.124,-0.02 0.217,-0.04 0.281,-0.05l0.39,1.8c-0.123,0.05 -0.3,0.09 -0.53,0.14c-0.226,0.06 -0.503,0.09 -0.831,0.09c-0.58,0.02 -1.102,-0.07 -1.566,-0.26c-0.465,-0.19 -0.833,-0.5 -1.106,-0.91c-0.269,-0.4 -0.401,-0.92 -0.396,-1.53zM320.368,62.78l-2.11,0.23c-0.059,-0.22 -0.164,-0.42 -0.313,-0.6c-0.145,-0.19 -0.341,-0.34 -0.588,-0.46c-0.247,-0.11 -0.55,-0.17 -0.908,-0.17c-0.481,0 -0.886,0.1 -1.214,0.31c-0.324,0.21 -0.484,0.48 -0.479,0.81c-0.005,0.29 0.1,0.52 0.313,0.7c0.217,0.18 0.575,0.33 1.074,0.44l1.674,0.36c0.929,0.2 1.62,0.52 2.071,0.95c0.456,0.44 0.686,1.01 0.691,1.71c-0.005,0.62 -0.186,1.16 -0.544,1.64c-0.353,0.46 -0.845,0.83 -1.476,1.1c-0.631,0.26 -1.355,0.39 -2.173,0.39c-1.202,0 -2.169,-0.25 -2.902,-0.75c-0.733,-0.51 -1.17,-1.21 -1.311,-2.12l2.257,-0.22c0.102,0.45 0.319,0.78 0.652,1.01c0.332,0.22 0.765,0.34 1.297,0.34c0.55,0 0.991,-0.12 1.323,-0.34c0.337,-0.23 0.505,-0.51 0.505,-0.84c0,-0.28 -0.108,-0.51 -0.326,-0.7c-0.213,-0.18 -0.545,-0.32 -0.997,-0.42l-1.675,-0.35c-0.941,-0.2 -1.638,-0.53 -2.09,-0.99c-0.451,-0.47 -0.675,-1.06 -0.671,-1.78c-0.004,-0.6 0.16,-1.13 0.492,-1.57c0.337,-0.45 0.804,-0.79 1.4,-1.04c0.601,-0.24 1.293,-0.37 2.078,-0.37c1.15,0 2.056,0.25 2.716,0.74c0.665,0.49 1.076,1.15 1.234,1.99z" fill="#171717"/>
<path d="M173.757,91.45c0,1.39 -0.25,2.58 -0.748,3.58c-0.499,1.01 -1.183,1.79 -2.052,2.33c-0.869,0.55 -1.862,0.82 -2.979,0.82c-1.116,0 -2.109,-0.27 -2.978,-0.82c-0.87,-0.54 -1.554,-1.32 -2.052,-2.33c-0.499,-1 -0.748,-2.19 -0.748,-3.58c0,-1.38 0.249,-2.57 0.748,-3.57c0.498,-1.01 1.182,-1.79 2.052,-2.33c0.869,-0.55 1.862,-0.82 2.978,-0.82c1.117,0 2.11,0.27 2.979,0.82c0.869,0.54 1.553,1.32 2.052,2.33c0.498,1 0.748,2.19 0.748,3.57zM172.223,91.45c0,-1.13 -0.19,-2.09 -0.569,-2.87c-0.375,-0.78 -0.885,-1.37 -1.528,-1.77c-0.639,-0.4 -1.355,-0.6 -2.148,-0.6c-0.792,0 -1.51,0.2 -2.154,0.6c-0.639,0.4 -1.148,0.99 -1.528,1.77c-0.375,0.78 -0.562,1.74 -0.562,2.87c0,1.14 0.187,2.09 0.562,2.87c0.38,0.78 0.889,1.37 1.528,1.78c0.644,0.4 1.362,0.6 2.154,0.6c0.793,0 1.509,-0.2 2.148,-0.6c0.643,-0.41 1.153,-1 1.528,-1.78c0.379,-0.78 0.569,-1.73 0.569,-2.87zM176.218,98v-9.82h1.457v1.48h0.102c0.179,-0.48 0.503,-0.88 0.972,-1.18c0.469,-0.3 0.997,-0.45 1.585,-0.45c0.111,0 0.249,0 0.416,0c0.166,0.01 0.291,0.02 0.377,0.02v1.54c-0.051,-0.01 -0.169,-0.03 -0.352,-0.06c-0.179,-0.03 -0.368,-0.04 -0.569,-0.04c-0.477,0 -0.903,0.1 -1.278,0.3c-0.371,0.19 -0.665,0.46 -0.882,0.81c-0.213,0.35 -0.32,0.74 -0.32,1.19v6.21zM186.579,101.89c-0.729,0 -1.355,-0.1 -1.879,-0.28c-0.524,-0.19 -0.961,-0.43 -1.311,-0.73c-0.345,-0.3 -0.62,-0.62 -0.824,-0.96l1.202,-0.85c0.136,0.18 0.309,0.39 0.517,0.62c0.209,0.23 0.495,0.43 0.857,0.6c0.366,0.18 0.846,0.27 1.438,0.27c0.793,0 1.447,-0.19 1.962,-0.58c0.516,-0.38 0.774,-0.98 0.774,-1.8v-2h-0.128c-0.111,0.18 -0.268,0.41 -0.473,0.67c-0.2,0.26 -0.49,0.49 -0.869,0.7c-0.375,0.2 -0.882,0.3 -1.522,0.3c-0.792,0 -1.504,-0.19 -2.135,-0.57c-0.626,-0.37 -1.122,-0.92 -1.489,-1.63c-0.362,-0.72 -0.543,-1.59 -0.543,-2.61c0,-1.01 0.177,-1.88 0.53,-2.63c0.354,-0.75 0.846,-1.33 1.477,-1.74c0.631,-0.41 1.359,-0.62 2.186,-0.62c0.639,0 1.146,0.11 1.521,0.32c0.38,0.21 0.669,0.45 0.87,0.72c0.204,0.26 0.362,0.48 0.473,0.65h0.153v-1.56h1.457v10.1c0,0.84 -0.191,1.53 -0.575,2.06c-0.379,0.53 -0.89,0.92 -1.534,1.17c-0.639,0.25 -1.351,0.38 -2.135,0.38zM186.528,96.49c0.605,0 1.116,-0.14 1.534,-0.41c0.418,-0.28 0.735,-0.68 0.952,-1.2c0.218,-0.52 0.326,-1.14 0.326,-1.87c0,-0.7 -0.106,-1.33 -0.319,-1.87c-0.213,-0.54 -0.529,-0.96 -0.946,-1.27c-0.418,-0.31 -0.933,-0.46 -1.547,-0.46c-0.639,0 -1.172,0.16 -1.598,0.48c-0.422,0.33 -0.739,0.76 -0.952,1.31c-0.209,0.54 -0.314,1.15 -0.314,1.81c0,0.69 0.107,1.29 0.32,1.81c0.217,0.52 0.537,0.93 0.959,1.23c0.426,0.29 0.954,0.44 1.585,0.44zM196.474,98.23c-0.622,0 -1.187,-0.12 -1.694,-0.35c-0.507,-0.24 -0.91,-0.58 -1.208,-1.03c-0.298,-0.45 -0.447,-1 -0.447,-1.64c0,-0.56 0.11,-1.02 0.332,-1.36c0.222,-0.36 0.518,-0.64 0.888,-0.84c0.371,-0.2 0.78,-0.35 1.228,-0.44c0.451,-0.11 0.905,-0.19 1.361,-0.25c0.597,-0.07 1.08,-0.13 1.451,-0.17c0.375,-0.04 0.648,-0.11 0.818,-0.21c0.175,-0.1 0.262,-0.27 0.262,-0.51v-0.05c0,-0.63 -0.172,-1.12 -0.517,-1.47c-0.341,-0.35 -0.859,-0.53 -1.554,-0.53c-0.72,0 -1.284,0.16 -1.693,0.48c-0.41,0.31 -0.697,0.65 -0.863,1.01l-1.432,-0.51c0.255,-0.6 0.596,-1.07 1.023,-1.4c0.43,-0.34 0.899,-0.57 1.406,-0.7c0.511,-0.14 1.014,-0.21 1.508,-0.21c0.316,0 0.678,0.04 1.087,0.12c0.413,0.07 0.812,0.22 1.195,0.45c0.388,0.23 0.71,0.58 0.965,1.04c0.256,0.47 0.384,1.09 0.384,1.87v6.47h-1.509v-1.33h-0.076c-0.103,0.21 -0.273,0.44 -0.512,0.68c-0.238,0.25 -0.556,0.45 -0.952,0.62c-0.396,0.17 -0.88,0.26 -1.451,0.26zM196.704,96.88c0.597,0 1.1,-0.12 1.509,-0.36c0.413,-0.23 0.724,-0.53 0.933,-0.9c0.213,-0.37 0.319,-0.76 0.319,-1.17v-1.38c-0.063,0.07 -0.204,0.14 -0.421,0.21c-0.213,0.06 -0.461,0.11 -0.742,0.16c-0.277,0.04 -0.547,0.08 -0.812,0.11c-0.26,0.03 -0.471,0.06 -0.632,0.08c-0.393,0.05 -0.759,0.13 -1.1,0.25c-0.337,0.11 -0.609,0.28 -0.818,0.5c-0.205,0.22 -0.307,0.53 -0.307,0.91c0,0.52 0.194,0.92 0.582,1.19c0.392,0.26 0.888,0.4 1.489,0.4zM205.236,92.09v5.91h-1.509v-9.82h1.458v1.54h0.128c0.23,-0.5 0.579,-0.9 1.048,-1.21c0.469,-0.3 1.074,-0.46 1.815,-0.46c0.665,0 1.247,0.14 1.745,0.41c0.499,0.27 0.887,0.68 1.164,1.23c0.277,0.55 0.415,1.24 0.415,2.07v6.24h-1.508v-6.14c0,-0.77 -0.201,-1.37 -0.601,-1.8c-0.401,-0.43 -0.951,-0.65 -1.649,-0.65c-0.482,0 -0.912,0.1 -1.292,0.31c-0.375,0.21 -0.671,0.52 -0.888,0.92c-0.217,0.4 -0.326,0.88 -0.326,1.45zM214.257,98v-9.82h1.508v9.82zM215.024,86.55c-0.294,0 -0.548,-0.1 -0.761,-0.3c-0.209,-0.21 -0.313,-0.45 -0.313,-0.73c0,-0.28 0.104,-0.52 0.313,-0.72c0.213,-0.2 0.467,-0.3 0.761,-0.3c0.294,0 0.545,0.1 0.754,0.3c0.213,0.2 0.32,0.44 0.32,0.72c0,0.28 -0.107,0.52 -0.32,0.73c-0.209,0.2 -0.46,0.3 -0.754,0.3zM218.247,98v-1.15l5.574,-7.16v-0.1h-5.395v-1.41h7.338v1.2l-5.421,7.11v0.1h5.6v1.41zM232.102,98.2c-0.946,0 -1.762,-0.2 -2.449,-0.62c-0.681,-0.42 -1.208,-1.01 -1.578,-1.77c-0.367,-0.75 -0.55,-1.64 -0.55,-2.64c0,-1.01 0.183,-1.89 0.55,-2.66c0.37,-0.77 0.886,-1.37 1.547,-1.8c0.664,-0.44 1.44,-0.66 2.326,-0.66c0.512,0 1.017,0.09 1.515,0.26c0.499,0.17 0.953,0.45 1.362,0.83c0.409,0.38 0.735,0.88 0.978,1.51c0.243,0.63 0.364,1.4 0.364,2.31v0.64h-7.568v-1.3h6.034c0,-0.56 -0.111,-1.05 -0.332,-1.48c-0.218,-0.44 -0.529,-0.78 -0.934,-1.03c-0.4,-0.26 -0.873,-0.38 -1.419,-0.38c-0.601,0 -1.12,0.15 -1.559,0.45c-0.435,0.29 -0.77,0.67 -1.004,1.15c-0.234,0.47 -0.352,0.98 -0.352,1.52v0.87c0,0.74 0.128,1.37 0.384,1.88c0.26,0.51 0.62,0.9 1.08,1.17c0.46,0.27 0.995,0.4 1.605,0.4c0.396,0 0.754,-0.06 1.074,-0.17c0.323,-0.11 0.602,-0.28 0.837,-0.51c0.234,-0.23 0.415,-0.51 0.543,-0.85l1.458,0.4c-0.154,0.5 -0.412,0.93 -0.774,1.31c-0.362,0.37 -0.81,0.66 -1.342,0.87c-0.533,0.2 -1.132,0.3 -1.796,0.3zM240.712,96.21l-0.103,0.69c-0.072,0.49 -0.183,1.01 -0.332,1.56c-0.145,0.55 -0.296,1.08 -0.454,1.57c-0.157,0.49 -0.287,0.88 -0.39,1.17h-1.15c0.055,-0.28 0.128,-0.64 0.217,-1.08c0.09,-0.45 0.179,-0.95 0.269,-1.51c0.093,-0.55 0.17,-1.11 0.23,-1.68l0.076,-0.72zM252.941,88.18v1.28h-5.292v-1.28zM249.234,98v-11.17c0,-0.57 0.132,-1.03 0.396,-1.41c0.264,-0.37 0.607,-0.66 1.029,-0.84c0.422,-0.19 0.868,-0.28 1.336,-0.28c0.371,0 0.674,0.03 0.908,0.08c0.234,0.06 0.409,0.12 0.524,0.17l-0.435,1.31c-0.076,-0.03 -0.183,-0.06 -0.319,-0.1c-0.132,-0.04 -0.307,-0.06 -0.524,-0.06c-0.499,0 -0.859,0.13 -1.081,0.38c-0.217,0.25 -0.326,0.62 -0.326,1.1v10.82zM258.64,98.2c-0.887,0 -1.664,-0.21 -2.333,-0.63c-0.665,-0.42 -1.185,-1.01 -1.56,-1.77c-0.371,-0.76 -0.556,-1.64 -0.556,-2.66c0,-1.02 0.185,-1.91 0.556,-2.68c0.375,-0.76 0.895,-1.35 1.56,-1.77c0.669,-0.43 1.446,-0.64 2.333,-0.64c0.886,0 1.662,0.21 2.327,0.64c0.669,0.42 1.188,1.01 1.559,1.77c0.375,0.77 0.563,1.66 0.563,2.68c0,1.02 -0.188,1.9 -0.563,2.66c-0.371,0.76 -0.89,1.35 -1.559,1.77c-0.665,0.42 -1.441,0.63 -2.327,0.63zM258.64,96.85c0.673,0 1.227,-0.17 1.662,-0.52c0.434,-0.34 0.756,-0.8 0.965,-1.36c0.209,-0.56 0.313,-1.17 0.313,-1.83c0,-0.65 -0.104,-1.27 -0.313,-1.83c-0.209,-0.57 -0.531,-1.03 -0.965,-1.38c-0.435,-0.35 -0.989,-0.52 -1.662,-0.52c-0.673,0 -1.227,0.17 -1.662,0.52c-0.435,0.35 -0.756,0.81 -0.965,1.38c-0.209,0.56 -0.314,1.18 -0.314,1.83c0,0.66 0.105,1.27 0.314,1.83c0.209,0.56 0.53,1.02 0.965,1.36c0.435,0.35 0.989,0.52 1.662,0.52zM266.9,84.91v13.09h-1.509v-13.09zM271.171,84.91v13.09h-1.508v-13.09zM277.923,98.2c-0.886,0 -1.664,-0.21 -2.333,-0.63c-0.665,-0.42 -1.185,-1.01 -1.56,-1.77c-0.37,-0.76 -0.556,-1.64 -0.556,-2.66c0,-1.02 0.186,-1.91 0.556,-2.68c0.375,-0.76 0.895,-1.35 1.56,-1.77c0.669,-0.43 1.447,-0.64 2.333,-0.64c0.886,0 1.662,0.21 2.327,0.64c0.669,0.42 1.189,1.01 1.559,1.77c0.375,0.77 0.563,1.66 0.563,2.68c0,1.02 -0.188,1.9 -0.563,2.66c-0.37,0.76 -0.89,1.35 -1.559,1.77c-0.665,0.42 -1.441,0.63 -2.327,0.63zM277.923,96.85c0.673,0 1.227,-0.17 1.662,-0.52c0.435,-0.34 0.756,-0.8 0.965,-1.36c0.209,-0.56 0.313,-1.17 0.313,-1.83c0,-0.65 -0.104,-1.27 -0.313,-1.83c-0.209,-0.57 -0.53,-1.03 -0.965,-1.38c-0.435,-0.35 -0.989,-0.52 -1.662,-0.52c-0.673,0 -1.227,0.17 -1.662,0.52c-0.435,0.35 -0.756,0.81 -0.965,1.38c-0.209,0.56 -0.313,1.18 -0.313,1.83c0,0.66 0.104,1.27 0.313,1.83c0.209,0.56 0.53,1.02 0.965,1.36c0.435,0.35 0.989,0.52 1.662,0.52zM286.565,98l-2.991,-9.82h1.585l2.122,7.52h0.102l2.097,-7.52h1.611l2.071,7.49h0.102l2.122,-7.49h1.585l-2.991,9.82h-1.483l-2.148,-7.54h-0.153l-2.148,7.54zM299.88,96.21l-0.103,0.69c-0.072,0.49 -0.183,1.01 -0.332,1.56c-0.145,0.55 -0.296,1.08 -0.454,1.57c-0.157,0.49 -0.287,0.88 -0.39,1.17h-1.15c0.055,-0.28 0.128,-0.64 0.217,-1.08c0.09,-0.45 0.179,-0.95 0.269,-1.51c0.093,-0.55 0.17,-1.11 0.23,-1.68l0.076,-0.72zM310.626,98.23c-0.622,0 -1.186,-0.12 -1.694,-0.35c-0.507,-0.24 -0.909,-0.58 -1.208,-1.03c-0.298,-0.45 -0.447,-1 -0.447,-1.64c0,-0.56 0.111,-1.02 0.332,-1.36c0.222,-0.36 0.518,-0.64 0.889,-0.84c0.371,-0.2 0.78,-0.35 1.227,-0.44c0.452,-0.11 0.906,-0.19 1.362,-0.25c0.596,-0.07 1.08,-0.13 1.451,-0.17c0.375,-0.04 0.647,-0.11 0.818,-0.21c0.174,-0.1 0.262,-0.27 0.262,-0.51v-0.05c0,-0.63 -0.173,-1.12 -0.518,-1.47c-0.341,-0.35 -0.859,-0.53 -1.553,-0.53c-0.72,0 -1.285,0.16 -1.694,0.48c-0.409,0.31 -0.697,0.65 -0.863,1.01l-1.432,-0.51c0.256,-0.6 0.597,-1.07 1.023,-1.4c0.43,-0.34 0.899,-0.57 1.406,-0.7c0.511,-0.14 1.014,-0.21 1.509,-0.21c0.315,0 0.677,0.04 1.086,0.12c0.414,0.07 0.812,0.22 1.196,0.45c0.387,0.23 0.709,0.58 0.965,1.04c0.255,0.47 0.383,1.09 0.383,1.87v6.47h-1.508v-1.33h-0.077c-0.102,0.21 -0.273,0.44 -0.511,0.68c-0.239,0.25 -0.556,0.45 -0.953,0.62c-0.396,0.17 -0.88,0.26 -1.451,0.26zM310.856,96.88c0.597,0 1.1,-0.12 1.509,-0.36c0.413,-0.23 0.724,-0.53 0.933,-0.9c0.213,-0.37 0.32,-0.76 0.32,-1.17v-1.38c-0.064,0.07 -0.205,0.14 -0.422,0.21c-0.213,0.06 -0.46,0.11 -0.742,0.16c-0.277,0.04 -0.547,0.08 -0.811,0.11c-0.26,0.03 -0.471,0.06 -0.633,0.08c-0.392,0.05 -0.759,0.13 -1.1,0.25c-0.336,0.11 -0.609,0.28 -0.818,0.5c-0.204,0.22 -0.307,0.53 -0.307,0.91c0,0.52 0.194,0.92 0.582,1.19c0.392,0.26 0.889,0.4 1.489,0.4zM319.388,92.09v5.91h-1.508v-9.82h1.457v1.54h0.128c0.23,-0.5 0.579,-0.9 1.048,-1.21c0.469,-0.3 1.074,-0.46 1.816,-0.46c0.664,0 1.246,0.14 1.745,0.41c0.498,0.27 0.886,0.68 1.163,1.23c0.277,0.55 0.415,1.24 0.415,2.07v6.24h-1.508v-6.14c0,-0.77 -0.2,-1.37 -0.601,-1.8c-0.401,-0.43 -0.95,-0.65 -1.649,-0.65c-0.482,0 -0.912,0.1 -1.291,0.31c-0.375,0.21 -0.671,0.52 -0.889,0.92c-0.217,0.4 -0.326,0.88 -0.326,1.45zM332.116,98.2c-0.818,0 -1.54,-0.2 -2.167,-0.62c-0.626,-0.41 -1.116,-1 -1.47,-1.76c-0.353,-0.76 -0.53,-1.66 -0.53,-2.7c0,-1.03 0.177,-1.93 0.53,-2.69c0.354,-0.76 0.846,-1.34 1.477,-1.76c0.631,-0.41 1.359,-0.62 2.186,-0.62c0.639,0 1.144,0.11 1.515,0.32c0.375,0.21 0.66,0.45 0.856,0.72c0.201,0.26 0.356,0.48 0.467,0.65h0.128v-4.83h1.508v13.09h-1.457v-1.51h-0.179c-0.111,0.18 -0.268,0.41 -0.473,0.68c-0.205,0.27 -0.496,0.51 -0.876,0.72c-0.379,0.21 -0.884,0.31 -1.515,0.31zM332.321,96.85c0.605,0 1.116,-0.16 1.534,-0.47c0.418,-0.32 0.735,-0.76 0.952,-1.33c0.218,-0.56 0.326,-1.22 0.326,-1.96c0,-0.73 -0.106,-1.37 -0.319,-1.92c-0.213,-0.56 -0.529,-0.99 -0.946,-1.29c-0.418,-0.32 -0.933,-0.47 -1.547,-0.47c-0.639,0 -1.172,0.16 -1.598,0.49c-0.422,0.33 -0.739,0.77 -0.952,1.32c-0.209,0.56 -0.314,1.18 -0.314,1.87c0,0.7 0.107,1.33 0.32,1.91c0.217,0.56 0.537,1.01 0.959,1.35c0.426,0.33 0.954,0.5 1.585,0.5zM347.54,98.23c-0.622,0 -1.186,-0.12 -1.693,-0.35c-0.508,-0.24 -0.91,-0.58 -1.209,-1.03c-0.298,-0.45 -0.447,-1 -0.447,-1.64c0,-0.56 0.111,-1.02 0.332,-1.36c0.222,-0.36 0.518,-0.64 0.889,-0.84c0.371,-0.2 0.78,-0.35 1.227,-0.44c0.452,-0.11 0.906,-0.19 1.362,-0.25c0.596,-0.07 1.08,-0.13 1.451,-0.17c0.375,-0.04 0.647,-0.11 0.818,-0.21c0.175,-0.1 0.262,-0.27 0.262,-0.51v-0.05c0,-0.63 -0.173,-1.12 -0.518,-1.47c-0.341,-0.35 -0.859,-0.53 -1.553,-0.53c-0.72,0 -1.285,0.16 -1.694,0.48c-0.409,0.31 -0.697,0.65 -0.863,1.01l-1.432,-0.51c0.256,-0.6 0.597,-1.07 1.023,-1.4c0.43,-0.34 0.899,-0.57 1.406,-0.7c0.512,-0.14 1.014,-0.21 1.509,-0.21c0.315,0 0.677,0.04 1.086,0.12c0.414,0.07 0.812,0.22 1.196,0.45c0.387,0.23 0.709,0.58 0.965,1.04c0.256,0.47 0.383,1.09 0.383,1.87v6.47h-1.508v-1.33h-0.077c-0.102,0.21 -0.273,0.44 -0.511,0.68c-0.239,0.25 -0.556,0.45 -0.953,0.62c-0.396,0.17 -0.88,0.26 -1.451,0.26zM347.771,96.88c0.596,0 1.099,-0.12 1.508,-0.36c0.413,-0.23 0.724,-0.53 0.933,-0.9c0.213,-0.37 0.32,-0.76 0.32,-1.17v-1.38c-0.064,0.07 -0.205,0.14 -0.422,0.21c-0.213,0.06 -0.46,0.11 -0.741,0.16c-0.277,0.04 -0.548,0.08 -0.812,0.11c-0.26,0.03 -0.471,0.06 -0.633,0.08c-0.392,0.05 -0.759,0.13 -1.1,0.25c-0.336,0.11 -0.609,0.28 -0.818,0.5c-0.204,0.22 -0.307,0.53 -0.307,0.91c0,0.52 0.194,0.92 0.582,1.19c0.392,0.26 0.889,0.4 1.49,0.4zM354.794,98v-9.82h1.457v1.48h0.102c0.179,-0.48 0.503,-0.88 0.972,-1.18c0.469,-0.3 0.997,-0.45 1.585,-0.45c0.111,0 0.25,0 0.416,0c0.166,0.01 0.292,0.02 0.377,0.02v1.54c-0.051,-0.01 -0.168,-0.03 -0.352,-0.06c-0.179,-0.03 -0.368,-0.04 -0.569,-0.04c-0.477,0 -0.903,0.1 -1.278,0.3c-0.371,0.19 -0.665,0.46 -0.882,0.81c-0.213,0.35 -0.32,0.74 -0.32,1.19v6.21zM365.181,98.2c-0.921,0 -1.713,-0.21 -2.378,-0.65c-0.665,-0.43 -1.176,-1.03 -1.534,-1.79c-0.358,-0.77 -0.537,-1.64 -0.537,-2.62c0,-1 0.183,-1.88 0.55,-2.64c0.37,-0.76 0.886,-1.36 1.547,-1.79c0.664,-0.44 1.44,-0.66 2.326,-0.66c0.691,0 1.313,0.13 1.867,0.39c0.554,0.25 1.008,0.61 1.361,1.07c0.354,0.46 0.573,1 0.659,1.61h-1.509c-0.115,-0.45 -0.371,-0.84 -0.767,-1.19c-0.392,-0.35 -0.92,-0.52 -1.585,-0.52c-0.588,0 -1.104,0.15 -1.547,0.46c-0.439,0.3 -0.782,0.73 -1.029,1.28c-0.243,0.55 -0.364,1.2 -0.364,1.94c0,0.76 0.119,1.42 0.357,1.98c0.243,0.56 0.584,1 1.023,1.31c0.443,0.31 0.963,0.47 1.56,0.47c0.392,0 0.748,-0.07 1.067,-0.21c0.32,-0.13 0.591,-0.33 0.812,-0.58c0.222,-0.26 0.379,-0.57 0.473,-0.92h1.509c-0.086,0.58 -0.297,1.1 -0.633,1.56c-0.333,0.46 -0.774,0.83 -1.323,1.1c-0.546,0.27 -1.181,0.4 -1.905,0.4zM372.755,92.09v5.91h-1.508v-13.09h1.508v4.81h0.128c0.23,-0.51 0.576,-0.91 1.036,-1.21c0.464,-0.3 1.082,-0.46 1.853,-0.46c0.669,0 1.255,0.14 1.758,0.41c0.503,0.26 0.893,0.67 1.17,1.22c0.281,0.54 0.422,1.24 0.422,2.08v6.24h-1.509v-6.14c0,-0.78 -0.202,-1.38 -0.607,-1.81c-0.4,-0.43 -0.957,-0.64 -1.668,-0.64c-0.495,0 -0.938,0.1 -1.33,0.31c-0.388,0.21 -0.694,0.52 -0.92,0.92c-0.222,0.4 -0.333,0.88 -0.333,1.45zM381.882,98v-9.82h1.508v9.82zM382.649,86.55c-0.294,0 -0.548,-0.1 -0.761,-0.3c-0.209,-0.21 -0.313,-0.45 -0.313,-0.73c0,-0.28 0.104,-0.52 0.313,-0.72c0.213,-0.2 0.467,-0.3 0.761,-0.3c0.294,0 0.545,0.1 0.754,0.3c0.213,0.2 0.32,0.44 0.32,0.72c0,0.28 -0.107,0.52 -0.32,0.73c-0.209,0.2 -0.46,0.3 -0.754,0.3zM394.182,88.18l-3.631,9.82h-1.534l-3.631,-9.82h1.636l2.711,7.83h0.102l2.71,-7.83zM399.938,98.2c-0.946,0 -1.762,-0.2 -2.449,-0.62c-0.681,-0.42 -1.208,-1.01 -1.578,-1.77c-0.367,-0.75 -0.55,-1.64 -0.55,-2.64c0,-1.01 0.183,-1.89 0.55,-2.66c0.37,-0.77 0.886,-1.37 1.546,-1.8c0.665,-0.44 1.441,-0.66 2.327,-0.66c0.512,0 1.017,0.09 1.515,0.26c0.499,0.17 0.953,0.45 1.362,0.83c0.409,0.38 0.735,0.88 0.978,1.51c0.242,0.63 0.364,1.4 0.364,2.31v0.64h-7.568v-1.3h6.034c0,-0.56 -0.111,-1.05 -0.333,-1.48c-0.217,-0.44 -0.528,-0.78 -0.933,-1.03c-0.4,-0.26 -0.873,-0.38 -1.419,-0.38c-0.601,0 -1.121,0.15 -1.559,0.45c-0.435,0.29 -0.77,0.67 -1.004,1.15c-0.234,0.47 -0.352,0.98 -0.352,1.52v0.87c0,0.74 0.128,1.37 0.384,1.88c0.26,0.51 0.62,0.9 1.08,1.17c0.46,0.27 0.995,0.4 1.605,0.4c0.396,0 0.754,-0.06 1.073,-0.17c0.324,-0.11 0.603,-0.28 0.838,-0.51c0.234,-0.23 0.415,-0.51 0.543,-0.85l1.458,0.4c-0.154,0.5 -0.412,0.93 -0.774,1.31c-0.362,0.37 -0.81,0.66 -1.342,0.87c-0.533,0.2 -1.132,0.3 -1.796,0.3zM407.397,98.1c-0.315,0 -0.586,-0.11 -0.812,-0.34c-0.226,-0.22 -0.338,-0.49 -0.338,-0.81c0,-0.31 0.112,-0.58 0.338,-0.81c0.226,-0.23 0.497,-0.34 0.812,-0.34c0.315,0 0.586,0.11 0.812,0.34c0.226,0.23 0.339,0.5 0.339,0.81c0,0.21 -0.054,0.4 -0.16,0.58c-0.102,0.17 -0.241,0.31 -0.416,0.42c-0.17,0.1 -0.362,0.15 -0.575,0.15z" fill="#525252"/>
</g>
<g id="Image_11">
<g id="Rectangle_6" filter="url(#filter5_d_224_100152)">
<rect x="67" y="148" width="437" height="319" rx="14" fill="white"/>
</g>
<g id="Group_6">
<path id="10k" d="M107.484,278v-10.91h-1.674v-1.87h3.744v12.78zM114.785,265.38c0.624,-0.33 1.38,-0.5 2.268,-0.5c0.888,0 1.644,0.17 2.268,0.5c0.624,0.33 1.104,0.79 1.44,1.41c0.348,0.61 0.594,1.29 0.738,2.05c0.156,0.74 0.234,1.6 0.234,2.57c0,0.97 -0.078,1.84 -0.234,2.59c-0.144,0.75 -0.39,1.43 -0.738,2.06c-0.336,0.61 -0.816,1.08 -1.44,1.42c-0.624,0.32 -1.38,0.48 -2.268,0.48c-0.888,0 -1.644,-0.16 -2.268,-0.48c-0.624,-0.34 -1.11,-0.81 -1.458,-1.42c-0.336,-0.63 -0.582,-1.31 -0.738,-2.06c-0.144,-0.75 -0.216,-1.62 -0.216,-2.59c0,-0.97 0.072,-1.83 0.216,-2.57c0.156,-0.76 0.402,-1.44 0.738,-2.05c0.348,-0.62 0.834,-1.08 1.458,-1.41zM117.053,266.75c-0.576,0 -1.05,0.13 -1.422,0.38c-0.372,0.24 -0.642,0.6 -0.81,1.08c-0.288,0.83 -0.432,1.89 -0.432,3.2c0,1.32 0.144,2.4 0.432,3.22c0.336,0.98 1.08,1.46 2.232,1.46c1.152,0 1.896,-0.48 2.232,-1.46c0.288,-0.82 0.432,-1.9 0.432,-3.22c0,-1.31 -0.144,-2.37 -0.432,-3.2c-0.336,-0.97 -1.08,-1.46 -2.232,-1.46zM126.226,278h-2.052v-13.32h2.052v7.74l3.6,-4.34h2.844l-4.572,4.97l4.572,4.95h-2.772l-3.672,-4.27z" fill="#383838"/>
<path id="6k" d="M113.478,330.7c0,-0.81 -0.216,-1.45 -0.648,-1.93c-0.42,-0.49 -1.02,-0.74 -1.8,-0.74c-0.78,0 -1.428,0.23 -1.944,0.67c-0.504,0.43 -0.756,1.06 -0.756,1.89c0,0.83 0.234,1.49 0.702,1.98c0.48,0.48 1.122,0.72 1.926,0.72c0.804,0 1.422,-0.23 1.854,-0.7c0.444,-0.47 0.666,-1.1 0.666,-1.89zM110.958,323.26c-0.948,0 -1.656,0.37 -2.124,1.1c-0.468,0.72 -0.714,1.92 -0.738,3.6c0.312,-0.53 0.768,-0.93 1.368,-1.22c0.6,-0.29 1.248,-0.43 1.944,-0.43c1.2,0 2.172,0.38 2.916,1.15c0.744,0.77 1.116,1.81 1.116,3.13c0,1.31 -0.378,2.37 -1.134,3.19c-0.756,0.81 -1.812,1.22 -3.168,1.22c-1.86,0 -3.138,-0.62 -3.834,-1.87c-0.36,-0.63 -0.612,-1.33 -0.756,-2.13c-0.144,-0.8 -0.216,-1.75 -0.216,-2.86c0,-4.39 1.548,-6.59 4.644,-6.59c1.2,0 2.142,0.33 2.826,0.98c0.696,0.64 1.104,1.44 1.224,2.39h-1.89c-0.264,-1.1 -0.99,-1.66 -2.178,-1.66zM119.951,335h-2.052v-13.32h2.052v7.74l3.6,-4.34h2.844l-4.572,4.97l4.572,4.95h-2.772l-3.672,-4.27z" fill="#383838"/>
<path id="5k" d="M106.62,378.84h7.92v1.8h-6.03v3.58c0.252,-0.33 0.624,-0.61 1.116,-0.84c0.504,-0.23 1.086,-0.34 1.746,-0.34c0.672,0 1.29,0.13 1.854,0.39c0.576,0.27 1.014,0.62 1.314,1.06c0.6,0.87 0.9,1.84 0.9,2.92c0,1.37 -0.39,2.48 -1.17,3.33c-0.78,0.84 -1.866,1.26 -3.258,1.26c-1.38,0 -2.466,-0.32 -3.258,-0.97c-0.792,-0.65 -1.266,-1.51 -1.422,-2.58h1.998c0.132,0.57 0.426,1.02 0.882,1.35c0.456,0.33 1.068,0.49 1.836,0.49c0.768,0 1.362,-0.26 1.782,-0.77c0.432,-0.52 0.648,-1.2 0.648,-2.06c0,-0.86 -0.216,-1.52 -0.648,-1.98c-0.432,-0.46 -1.068,-0.7 -1.908,-0.7c-0.588,0 -1.086,0.15 -1.494,0.45c-0.396,0.29 -0.684,0.69 -0.864,1.19h-1.944zM119.898,392h-2.052v-13.32h2.052v7.74l3.6,-4.34h2.844l-4.572,4.97l4.572,4.95h-2.772l-3.672,-4.27z" fill="#383838"/>
<g id="Auto Layout Horizontal_28">
<path id="Overview" d="M102.624,199.89c1.54,0 2.794,-0.51 3.762,-1.52c0.983,-1.03 1.474,-2.37 1.474,-4.03c0,-1.67 -0.491,-3.01 -1.474,-4.02c-0.968,-1.01 -2.222,-1.52 -3.762,-1.52c-1.54,0 -2.801,0.51 -3.784,1.52c-0.968,1.01 -1.452,2.35 -1.452,4.02c0,1.66 0.484,3 1.452,4.03c0.983,1.01 2.244,1.52 3.784,1.52zM102.624,202.15c-2.185,0 -4.033,-0.73 -5.544,-2.2c-1.511,-1.48 -2.266,-3.35 -2.266,-5.61c0,-2.27 0.755,-4.14 2.266,-5.61c1.511,-1.48 3.359,-2.22 5.544,-2.22c2.2,0 4.048,0.74 5.544,2.22c1.511,1.47 2.266,3.34 2.266,5.61c0,2.26 -0.755,4.13 -2.266,5.61c-1.496,1.47 -3.344,2.2 -5.544,2.2zM111.472,189.88h2.684l3.432,9.88l3.432,-9.88h2.706l-4.62,12.12h-3.036zM130.682,202.2c-1.76,0 -3.19,-0.57 -4.29,-1.72c-1.1,-1.14 -1.65,-2.66 -1.65,-4.55c0,-1.89 0.557,-3.4 1.672,-4.53c1.114,-1.15 2.552,-1.72 4.312,-1.72c1.774,0 3.212,0.55 4.312,1.65c1.1,1.09 1.65,2.51 1.65,4.27c0,0.42 -0.03,0.82 -0.088,1.19h-9.284c0.058,1.01 0.396,1.81 1.012,2.42c0.63,0.58 1.415,0.88 2.354,0.88c1.364,0 2.324,-0.57 2.882,-1.7h2.706c-0.367,1.12 -1.034,2.03 -2.002,2.75c-0.968,0.71 -2.164,1.06 -3.586,1.06zM134.07,195.07c-0.015,-1 -0.345,-1.79 -0.99,-2.38c-0.646,-0.6 -1.43,-0.9 -2.354,-0.9c-0.924,0 -1.702,0.3 -2.332,0.9c-0.616,0.59 -0.968,1.38 -1.056,2.38zM141.664,189.88v2.11c0.777,-1.54 1.987,-2.31 3.63,-2.31v2.6h-0.638c-0.983,0 -1.731,0.25 -2.244,0.74c-0.499,0.5 -0.748,1.37 -0.748,2.6v6.38h-2.508v-12.12zM146.169,189.88h2.684l3.432,9.88l3.432,-9.88h2.706l-4.62,12.12h-3.036zM163.135,186.67c0,0.45 -0.154,0.83 -0.462,1.14c-0.308,0.31 -0.689,0.46 -1.144,0.46c-0.44,0 -0.814,-0.15 -1.122,-0.46c-0.308,-0.31 -0.462,-0.69 -0.462,-1.14c0,-0.46 0.154,-0.84 0.462,-1.15c0.308,-0.31 0.682,-0.46 1.122,-0.46c0.455,0 0.836,0.15 1.144,0.46c0.308,0.31 0.462,0.69 0.462,1.15zM160.275,202v-12.12h2.508v12.12zM171.18,202.2c-1.76,0 -3.19,-0.57 -4.29,-1.72c-1.1,-1.14 -1.65,-2.66 -1.65,-4.55c0,-1.89 0.557,-3.4 1.672,-4.53c1.114,-1.15 2.552,-1.72 4.312,-1.72c1.774,0 3.212,0.55 4.312,1.65c1.1,1.09 1.65,2.51 1.65,4.27c0,0.42 -0.03,0.82 -0.088,1.19h-9.284c0.058,1.01 0.396,1.81 1.012,2.42c0.63,0.58 1.415,0.88 2.354,0.88c1.364,0 2.324,-0.57 2.882,-1.7h2.706c-0.367,1.12 -1.034,2.03 -2.002,2.75c-0.968,0.71 -2.164,1.06 -3.586,1.06zM174.568,195.07c-0.015,-1 -0.345,-1.79 -0.99,-2.38c-0.646,-0.6 -1.43,-0.9 -2.354,-0.9c-0.924,0 -1.702,0.3 -2.332,0.9c-0.616,0.59 -0.968,1.38 -1.056,2.38zM193.47,189.88h2.464l-3.762,12.12h-2.64l-2.442,-8.95l-2.442,8.95h-2.64l-3.784,-12.12h2.552l2.53,9.74l2.574,-9.74h2.618l2.464,9.7z" fill="black"/>
<g id="Auto Layout Horizontal_29">
<rect x="373" y="179" width="103" height="33" rx="16.5" fill="url(#paint15_linear_224_100152)"/>
<path id="Monthly" d="M407.298,190.27v9.73h-1.596v-6.66l-2.968,6.66h-1.106l-2.982,-6.66v6.66h-1.596v-9.73h1.722l3.416,7.63l3.402,-7.63zM414.408,198.08c0.466,-0.46 0.7,-1.11 0.7,-1.94c0,-0.83 -0.229,-1.48 -0.686,-1.94c-0.448,-0.46 -0.994,-0.7 -1.638,-0.7c-0.644,0 -1.186,0.24 -1.624,0.7c-0.439,0.46 -0.658,1.11 -0.658,1.95c0,0.83 0.214,1.48 0.644,1.95c0.429,0.45 0.961,0.68 1.596,0.68c0.644,0 1.199,-0.23 1.666,-0.7zM412.742,200.13c-1.12,0 -2.044,-0.37 -2.772,-1.1c-0.728,-0.73 -1.092,-1.69 -1.092,-2.88c0,-1.19 0.373,-2.16 1.12,-2.88c0.756,-0.74 1.694,-1.11 2.814,-1.11c1.12,0 2.053,0.37 2.8,1.11c0.756,0.72 1.134,1.68 1.134,2.87c0,1.18 -0.388,2.14 -1.162,2.88c-0.766,0.74 -1.713,1.11 -2.842,1.11zM419.919,192.29v1.21c0.514,-0.89 1.335,-1.34 2.464,-1.34c0.868,0 1.582,0.29 2.142,0.87c0.57,0.58 0.854,1.38 0.854,2.42v4.55h-1.582v-4.31c0,-0.69 -0.172,-1.22 -0.518,-1.58c-0.345,-0.38 -0.816,-0.56 -1.414,-0.56c-0.597,0 -1.073,0.18 -1.428,0.56c-0.345,0.36 -0.518,0.89 -0.518,1.58v4.31h-1.596v-7.71zM431.153,193.59h-1.876v4.27c0,0.29 0.066,0.5 0.196,0.63c0.14,0.12 0.374,0.18 0.7,0.18h0.98v1.33h-1.26c-1.484,0 -2.226,-0.71 -2.226,-2.14v-4.27h-0.91v-1.3h0.91v-1.92h1.61v1.92h1.876zM434.22,189.64v3.86c0.514,-0.89 1.335,-1.34 2.464,-1.34c0.868,0 1.582,0.29 2.142,0.87c0.57,0.58 0.854,1.38 0.854,2.42v4.55h-1.582v-4.31c0,-0.69 -0.172,-1.22 -0.518,-1.58c-0.345,-0.38 -0.816,-0.56 -1.414,-0.56c-0.597,0 -1.073,0.18 -1.428,0.56c-0.345,0.36 -0.518,0.89 -0.518,1.58v4.31h-1.596v-10.36zM441.716,200v-10.36h1.596v10.36zM447.535,199.87l-3.038,-7.58h1.778l2.17,5.88l2.254,-5.88h1.652l-4.732,11.34h-1.652z" fill="white"/>
</g>
</g>
<path id="Line_3" d="M168,257v162.5" stroke="#FCFCFC" stroke-width="3" stroke-linecap="round" stroke-linejoin="round"/>
<path id="Line_4" d="M240,257v162.5" stroke="#FCFCFC" stroke-width="3" stroke-linecap="round" stroke-linejoin="round"/>
<path id="Line_5" d="M312,257v162.5" stroke="#FCFCFC" stroke-width="3" stroke-linecap="round" stroke-linejoin="round"/>
<path id="Line_6" d="M384,257v162.5" stroke="#FCFCFC" stroke-width="3" stroke-linecap="round" stroke-linejoin="round"/>
<path id="Line_7" d="M456,257v162.5" stroke="#FCFCFC" stroke-width="3" stroke-linecap="round" stroke-linejoin="round"/>
<path id="Vector_23" d="M207.5,409.5c-17.2,16 -42.167,-10.67 -52.5,-26v64.5h323v-172.5c-15.5,14.5 -54,96 -78,77.5c-20.752,-16 -29.5,-32.5 -38.5,-34.5c-27.5,-6 -38,44.5 -48.5,64.5c-10.5,20 -47.5,-12 -65,-11.5c-17.5,0.5 -19,18 -40.5,38z" fill="#F9F9F9"/>
<path id="Vector_24" d="M155,383.5c10.333,15.33 35.3,42 52.5,26c21.5,-20 23,-37.5 40.5,-38c17.5,-0.5 54.5,31.5 65,11.5c10.5,-20 21,-70.5 48.5,-64.5c9,2 17.748,18.5 38.5,34.5c24,18.5 62.5,-63 78,-77.5" stroke="black" stroke-width="3" stroke-linecap="round" stroke-linejoin="round"/>
<path id="5,560$" d="M323.643,272.3h7.04v1.6h-5.36v3.19c0.224,-0.3 0.555,-0.55 0.992,-0.75c0.448,-0.21 0.965,-0.31 1.552,-0.31c0.597,0 1.147,0.12 1.648,0.35c0.512,0.24 0.901,0.55 1.168,0.95c0.533,0.77 0.8,1.63 0.8,2.59c0,1.22 -0.347,2.2 -1.04,2.96c-0.693,0.75 -1.659,1.12 -2.896,1.12c-1.227,0 -2.192,-0.29 -2.896,-0.86c-0.704,-0.58 -1.125,-1.34 -1.264,-2.29h1.776c0.117,0.5 0.379,0.9 0.784,1.2c0.405,0.29 0.949,0.43 1.632,0.43c0.683,0 1.211,-0.23 1.584,-0.69c0.384,-0.46 0.576,-1.06 0.576,-1.82c0,-0.77 -0.192,-1.36 -0.576,-1.76c-0.384,-0.42 -0.949,-0.63 -1.696,-0.63c-0.523,0 -0.965,0.14 -1.328,0.4c-0.352,0.26 -0.608,0.61 -0.768,1.06h-1.728zM332.998,282.75h1.728c0.416,1.58 0.341,2.66 -0.224,3.23c-0.309,0.33 -0.763,0.5 -1.36,0.5v-0.8c0.267,0 0.459,-0.06 0.576,-0.19c0.128,-0.13 0.192,-0.34 0.192,-0.64v-0.34h-0.912zM337.096,272.3h7.04v1.6h-5.36v3.19c0.224,-0.3 0.555,-0.55 0.992,-0.75c0.448,-0.21 0.966,-0.31 1.552,-0.31c0.598,0 1.147,0.12 1.648,0.35c0.512,0.24 0.902,0.55 1.168,0.95c0.534,0.77 0.8,1.63 0.8,2.59c0,1.22 -0.346,2.2 -1.04,2.96c-0.693,0.75 -1.658,1.12 -2.896,1.12c-1.226,0 -2.192,-0.29 -2.896,-0.86c-0.704,-0.58 -1.125,-1.34 -1.264,-2.29h1.776c0.118,0.5 0.379,0.9 0.784,1.2c0.406,0.29 0.95,0.43 1.632,0.43c0.683,0 1.211,-0.23 1.584,-0.69c0.384,-0.46 0.576,-1.06 0.576,-1.82c0,-0.77 -0.192,-1.36 -0.576,-1.76c-0.384,-0.42 -0.949,-0.63 -1.696,-0.63c-0.522,0 -0.965,0.14 -1.328,0.4c-0.352,0.26 -0.608,0.61 -0.768,1.06h-1.728zM353.411,280.18c0,-0.72 -0.192,-1.29 -0.576,-1.72c-0.373,-0.43 -0.907,-0.65 -1.6,-0.65c-0.693,0 -1.269,0.2 -1.728,0.59c-0.448,0.38 -0.672,0.94 -0.672,1.68c0,0.74 0.208,1.32 0.624,1.76c0.427,0.43 0.997,0.64 1.712,0.64c0.715,0 1.264,-0.21 1.648,-0.62c0.395,-0.42 0.592,-0.98 0.592,-1.68zM351.171,273.57c-0.843,0 -1.472,0.32 -1.888,0.97c-0.416,0.64 -0.635,1.71 -0.656,3.2c0.277,-0.47 0.683,-0.83 1.216,-1.08c0.533,-0.26 1.109,-0.39 1.728,-0.39c1.067,0 1.931,0.34 2.592,1.03c0.661,0.68 0.992,1.61 0.992,2.78c0,1.16 -0.336,2.11 -1.008,2.83c-0.672,0.73 -1.611,1.09 -2.816,1.09c-1.653,0 -2.789,-0.55 -3.408,-1.66c-0.32,-0.56 -0.544,-1.19 -0.672,-1.89c-0.128,-0.72 -0.192,-1.56 -0.192,-2.55c0,-3.9 1.376,-5.85 4.128,-5.85c1.067,0 1.904,0.29 2.512,0.86c0.619,0.58 0.981,1.29 1.088,2.13h-1.68c-0.235,-0.98 -0.88,-1.47 -1.936,-1.47zM359.245,272.78c0.554,-0.29 1.226,-0.44 2.016,-0.44c0.789,0 1.461,0.15 2.016,0.44c0.554,0.29 0.981,0.71 1.28,1.25c0.309,0.55 0.528,1.15 0.656,1.83c0.138,0.66 0.208,1.42 0.208,2.28c0,0.87 -0.07,1.64 -0.208,2.31c-0.128,0.66 -0.347,1.27 -0.656,1.82c-0.299,0.55 -0.726,0.97 -1.28,1.27c-0.555,0.28 -1.227,0.43 -2.016,0.43c-0.79,0 -1.462,-0.15 -2.016,-0.43c-0.555,-0.3 -0.987,-0.72 -1.296,-1.27c-0.299,-0.55 -0.518,-1.16 -0.656,-1.82c-0.128,-0.67 -0.192,-1.44 -0.192,-2.31c0,-0.86 0.064,-1.62 0.192,-2.28c0.138,-0.68 0.357,-1.28 0.656,-1.83c0.309,-0.54 0.741,-0.96 1.296,-1.25zM361.261,274c-0.512,0 -0.934,0.11 -1.264,0.34c-0.331,0.21 -0.571,0.53 -0.72,0.96c-0.256,0.73 -0.384,1.68 -0.384,2.84c0,1.18 0.128,2.13 0.384,2.87c0.298,0.86 0.96,1.29 1.984,1.29c1.024,0 1.685,-0.43 1.984,-1.29c0.256,-0.74 0.384,-1.69 0.384,-2.87c0,-1.16 -0.128,-2.11 -0.384,-2.84c-0.299,-0.87 -0.96,-1.3 -1.984,-1.3zM375.095,280.83c0,0.82 -0.304,1.55 -0.912,2.18c-0.608,0.63 -1.44,0.99 -2.496,1.09v1.29h-0.912v-1.29c-1.024,-0.08 -1.851,-0.38 -2.48,-0.92c-0.63,-0.54 -0.944,-1.25 -0.944,-2.14h1.952c0.074,0.91 0.565,1.43 1.472,1.57v-3.52c-0.971,-0.23 -1.654,-0.46 -2.048,-0.69c-0.48,-0.28 -0.811,-0.58 -0.992,-0.9c-0.256,-0.44 -0.384,-0.96 -0.384,-1.53c0,-0.91 0.314,-1.65 0.944,-2.23c0.629,-0.57 1.456,-0.9 2.48,-0.99v-1.29h0.912v1.29c0.96,0.08 1.728,0.37 2.304,0.88c0.586,0.5 0.917,1.2 0.992,2.1h-1.952c-0.032,-0.34 -0.171,-0.65 -0.416,-0.91c-0.235,-0.27 -0.544,-0.45 -0.928,-0.53v3.45c1.013,0.24 1.69,0.46 2.032,0.66c0.501,0.31 0.816,0.58 0.944,0.82c0.288,0.5 0.432,1.04 0.432,1.61zM370.775,274.24c-0.48,0.06 -0.864,0.23 -1.152,0.51c-0.278,0.27 -0.416,0.64 -0.416,1.11c0,0.45 0.133,0.81 0.4,1.05c0.277,0.25 0.666,0.44 1.168,0.59zM371.687,282.61c0.49,-0.08 0.874,-0.26 1.152,-0.56c0.277,-0.31 0.416,-0.68 0.416,-1.11c0,-0.43 -0.139,-0.77 -0.416,-1.02c-0.267,-0.25 -0.651,-0.44 -1.152,-0.59z" fill="black"/>
<path id="Ratings" d="M328.428,296.62v3.38h-1.368v-8.34h2.88c0.944,0 1.672,0.24 2.184,0.71c0.512,0.46 0.768,1.05 0.768,1.77c0,0.56 -0.172,1.07 -0.516,1.52c-0.336,0.44 -0.856,0.74 -1.56,0.87l2.208,3.47h-1.668l-2.088,-3.38zM328.428,292.73v2.82h1.512c0.52,0 0.908,-0.13 1.164,-0.37c0.256,-0.25 0.384,-0.6 0.384,-1.04c0,-0.44 -0.128,-0.79 -0.384,-1.04c-0.256,-0.25 -0.644,-0.37 -1.164,-0.37zM338.998,298.32c0.4,-0.41 0.6,-0.95 0.6,-1.63c0,-0.68 -0.2,-1.22 -0.6,-1.62c-0.392,-0.4 -0.86,-0.6 -1.404,-0.6c-0.544,0 -1.016,0.19 -1.416,0.59c-0.392,0.39 -0.588,0.92 -0.588,1.6c0,0.68 0.196,1.23 0.588,1.65c0.4,0.41 0.872,0.61 1.416,0.61c0.544,0 1.012,-0.2 1.404,-0.6zM337.306,300.11c-0.88,0 -1.62,-0.32 -2.22,-0.96c-0.6,-0.65 -0.9,-1.47 -0.9,-2.47c0,-1.01 0.296,-1.83 0.888,-2.45c0.6,-0.63 1.344,-0.95 2.232,-0.95c0.52,0 0.976,0.12 1.368,0.36c0.4,0.23 0.708,0.54 0.924,0.92v-1.17h1.38v6.61h-1.38v-1.24c-0.224,0.41 -0.532,0.74 -0.924,0.99c-0.392,0.24 -0.848,0.36 -1.368,0.36zM345.979,294.5h-1.608v3.66c0,0.25 0.056,0.43 0.168,0.54c0.12,0.11 0.32,0.16 0.6,0.16h0.84v1.14h-1.08c-1.272,0 -1.908,-0.61 -1.908,-1.84v-3.66h-0.78v-1.11h0.78v-1.65h1.38v1.65h1.608zM348.8,291.64c0,0.24 -0.084,0.45 -0.252,0.62c-0.168,0.17 -0.376,0.25 -0.624,0.25c-0.24,0 -0.444,-0.08 -0.612,-0.25c-0.168,-0.17 -0.252,-0.38 -0.252,-0.62c0,-0.25 0.084,-0.46 0.252,-0.63c0.168,-0.17 0.372,-0.25 0.612,-0.25c0.248,0 0.456,0.08 0.624,0.25c0.168,0.17 0.252,0.38 0.252,0.63zM347.24,300v-6.61h1.368v6.61zM351.772,293.39v1.04c0.44,-0.77 1.144,-1.15 2.112,-1.15c0.744,0 1.356,0.25 1.836,0.74c0.488,0.5 0.732,1.19 0.732,2.08v3.9h-1.356v-3.7c0,-0.59 -0.148,-1.04 -0.444,-1.35c-0.296,-0.32 -0.7,-0.48 -1.212,-0.48c-0.512,0 -0.92,0.16 -1.224,0.48c-0.296,0.31 -0.444,0.76 -0.444,1.35v3.7h-1.368v-6.61zM360.861,300.11c-0.88,0 -1.62,-0.32 -2.22,-0.96c-0.6,-0.65 -0.9,-1.47 -0.9,-2.47c0,-1.01 0.296,-1.83 0.888,-2.45c0.6,-0.63 1.344,-0.95 2.232,-0.95c0.52,0 0.976,0.12 1.368,0.36c0.4,0.23 0.708,0.54 0.924,0.92v-1.17h1.38v6.72c0,0.93 -0.288,1.68 -0.864,2.27c-0.568,0.59 -1.328,0.88 -2.28,0.88c-0.952,0 -1.724,-0.21 -2.316,-0.63c-0.592,-0.42 -0.928,-0.99 -1.008,-1.71h1.356c0.104,0.35 0.324,0.62 0.66,0.83c0.344,0.22 0.772,0.33 1.284,0.33c0.512,0 0.936,-0.17 1.272,-0.51c0.344,-0.33 0.516,-0.82 0.516,-1.46v-1.35c-0.224,0.41 -0.532,0.74 -0.924,0.99c-0.392,0.24 -0.848,0.36 -1.368,0.36zM362.553,298.32c0.4,-0.41 0.6,-0.95 0.6,-1.63c0,-0.68 -0.2,-1.22 -0.6,-1.62c-0.392,-0.4 -0.86,-0.6 -1.404,-0.6c-0.544,0 -1.016,0.19 -1.416,0.59c-0.392,0.39 -0.588,0.92 -0.588,1.6c0,0.68 0.196,1.23 0.588,1.65c0.4,0.41 0.872,0.61 1.416,0.61c0.544,0 1.012,-0.2 1.404,-0.6zM366.03,295.28c0,-0.56 0.236,-1.03 0.708,-1.41c0.472,-0.39 1.092,-0.59 1.86,-0.59c0.768,0 1.376,0.19 1.824,0.58c0.456,0.37 0.7,0.89 0.732,1.54h-1.404c-0.024,-0.32 -0.14,-0.58 -0.348,-0.76c-0.2,-0.19 -0.484,-0.28 -0.852,-0.28c-0.368,0 -0.656,0.08 -0.864,0.25c-0.208,0.16 -0.312,0.38 -0.312,0.65c0,0.26 0.132,0.47 0.396,0.62c0.264,0.16 0.584,0.27 0.96,0.34c0.384,0.07 0.764,0.16 1.14,0.26c0.384,0.11 0.708,0.3 0.972,0.58c0.264,0.27 0.396,0.64 0.396,1.1c0,0.58 -0.244,1.05 -0.732,1.41c-0.48,0.36 -1.1,0.54 -1.86,0.54c-0.76,0 -1.376,-0.19 -1.848,-0.55c-0.472,-0.37 -0.732,-0.9 -0.78,-1.58h1.416c0.024,0.33 0.144,0.59 0.36,0.77c0.216,0.19 0.508,0.28 0.876,0.28c0.376,0 0.672,-0.08 0.888,-0.24c0.224,-0.17 0.336,-0.39 0.336,-0.66c0,-0.27 -0.132,-0.49 -0.396,-0.64c-0.264,-0.15 -0.588,-0.26 -0.972,-0.33c-0.376,-0.08 -0.756,-0.17 -1.14,-0.27c-0.376,-0.1 -0.696,-0.29 -0.96,-0.55c-0.264,-0.26 -0.396,-0.62 -0.396,-1.06z" fill="black"/>
<circle id="Ellipse" cx="387" cy="338" r="10" fill="url(#paint16_linear_224_100152)"/>
<circle id="Ellipse_2" cx="387" cy="338" r="5" fill="white"/>
</g>
</g>
</g>
<rect x="0.5" y="0.5" width="571" height="399" rx="8.5" stroke="black" stroke-opacity="0.05"/>
</g></svg>