<svg viewBox="0 0 184.9521 41.1039" x="0" y="0" fill="none" xmlns="http://www.w3.org/2000/svg"><path id="Vector_28" d="M114.9431,26.39l-13.65,-17.78h-3.4v23.84h3.45v-18.27l14.04,18.27h3.02v-23.84h-3.46zM80.5631,21.97h12.24v-3.1h-12.25v-7.18h13.81v-3.09h-17.32v23.85h17.5v-3.1h-13.99zM66.1731,18.95c-4.76,-1.16 -6.1,-2.08 -6.1,-4.3c0,-1.99 1.75,-3.35 4.36,-3.35c2.38,0.07 4.67,0.91 6.54,2.38l1.85,-2.64c-2.37,-1.87 -5.31,-2.86 -8.32,-2.8c-4.69,0 -7.95,2.8 -7.95,6.79c0,4.29 2.77,5.77 7.82,7.02c4.5,1.04 5.88,2.01 5.88,4.19c0,2.17 -1.85,3.51 -4.71,3.51c-2.85,-0.01 -5.58,-1.09 -7.68,-3.04l-2.08,2.51c2.68,2.33 6.1,3.6 9.64,3.6c5.07,0 8.33,-2.76 8.33,-7.01c-0.03,-3.61 -2.14,-5.54 -7.58,-6.86zM180.9731,8.61l-7.11,11.2l-7.07,-11.2h-4.12l9.33,14.42v9.43h3.55v-9.55l9.4,-14.3zM121.1931,11.83h7.74v20.63h3.55v-20.63h7.75v-3.22h-19.03zM156.6531,23.15c3.57,-1 5.55,-3.52 5.55,-7.12c0,-4.59 -3.32,-7.47 -8.67,-7.47h-10.51v23.88h3.51v-8.57h5.97l5.99,8.59h4.11l-6.47,-9.16zM146.5231,20.81v-9.05h6.64c3.46,0 5.44,1.65 5.44,4.52c0,2.86 -2.12,4.53 -5.41,4.53zM26.7731,2.11c-0.38,-0.64 -0.92,-1.18 -1.57,-1.55c-0.65,-0.37 -1.38,-0.56 -2.13,-0.56c-0.74,0 -1.47,0.19 -2.12,0.56c-0.65,0.37 -1.19,0.91 -1.58,1.55l-6.08,10.52c4.65,2.34 8.61,5.87 11.49,10.23c2.88,4.37 4.58,9.42 4.93,14.65h-4.28c-0.35,-4.48 -1.85,-8.8 -4.36,-12.52c-2.5,-3.72 -5.93,-6.71 -9.94,-8.68l-5.63,9.82c2.25,1.02 4.21,2.6 5.71,4.58c1.49,1.99 2.46,4.32 2.83,6.78h-9.82c-0.11,-0.01 -0.23,-0.04 -0.33,-0.11c-0.09,-0.06 -0.18,-0.15 -0.23,-0.25c-0.06,-0.1 -0.09,-0.22 -0.09,-0.34c0,-0.11 0.02,-0.23 0.08,-0.33l2.72,-4.67c-0.92,-0.78 -1.98,-1.38 -3.11,-1.77l-2.69,4.66c-0.28,0.49 -0.46,1.02 -0.54,1.58c-0.07,0.56 -0.03,1.12 0.11,1.66c0.15,0.55 0.4,1.05 0.74,1.5c0.34,0.44 0.77,0.81 1.25,1.09c0.64,0.36 1.36,0.55 2.09,0.56h13.44c0.25,-3.11 -0.3,-6.23 -1.59,-9.06c-1.3,-2.83 -3.3,-5.28 -5.81,-7.1l2.14,-3.73c3.16,2.19 5.71,5.18 7.38,8.67c1.67,3.48 2.41,7.35 2.15,11.22h11.38c0.27,-5.86 -0.99,-11.68 -3.66,-16.89c-2.66,-5.21 -6.63,-9.62 -11.52,-12.79l4.32,-7.47c0.1,-0.16 0.26,-0.28 0.44,-0.33c0.18,-0.05 0.37,-0.02 0.54,0.08c0.49,0.27 18.76,32.45 19.11,32.82c0.06,0.11 0.09,0.24 0.08,0.36c0,0.13 -0.03,0.25 -0.1,0.35c-0.06,0.11 -0.15,0.2 -0.26,0.26c-0.11,0.06 -0.23,0.09 -0.35,0.09h-4.41c0.06,1.19 0.06,2.37 0,3.55h4.43c0.56,0.01 1.11,-0.1 1.63,-0.32c0.52,-0.21 0.99,-0.53 1.39,-0.93c0.4,-0.4 0.71,-0.87 0.93,-1.4c0.21,-0.52 0.32,-1.08 0.32,-1.65c0,-0.75 -0.2,-1.48 -0.57,-2.13z" fill="black" xmlns="http://www.w3.org/2000/svg"/></svg>